%TF.GenerationSoftware,KiCad,Pcbnew,(6.0.7)*%
%TF.CreationDate,2022-10-02T00:57:54+02:00*%
%TF.ProjectId,sensor_modul,73656e73-6f72-45f6-9d6f-64756c2e6b69,rev?*%
%TF.SameCoordinates,Original*%
%TF.FileFunction,Soldermask,Bot*%
%TF.FilePolarity,Negative*%
%FSLAX46Y46*%
G04 Gerber Fmt 4.6, Leading zero omitted, Abs format (unit mm)*
G04 Created by KiCad (PCBNEW (6.0.7)) date 2022-10-02 00:57:54*
%MOMM*%
%LPD*%
G01*
G04 APERTURE LIST*
G04 Aperture macros list*
%AMRoundRect*
0 Rectangle with rounded corners*
0 $1 Rounding radius*
0 $2 $3 $4 $5 $6 $7 $8 $9 X,Y pos of 4 corners*
0 Add a 4 corners polygon primitive as box body*
4,1,4,$2,$3,$4,$5,$6,$7,$8,$9,$2,$3,0*
0 Add four circle primitives for the rounded corners*
1,1,$1+$1,$2,$3*
1,1,$1+$1,$4,$5*
1,1,$1+$1,$6,$7*
1,1,$1+$1,$8,$9*
0 Add four rect primitives between the rounded corners*
20,1,$1+$1,$2,$3,$4,$5,0*
20,1,$1+$1,$4,$5,$6,$7,0*
20,1,$1+$1,$6,$7,$8,$9,0*
20,1,$1+$1,$8,$9,$2,$3,0*%
G04 Aperture macros list end*
%ADD10RoundRect,0.200100X-0.949900X-0.949900X0.949900X-0.949900X0.949900X0.949900X-0.949900X0.949900X0*%
%ADD11C,2.500000*%
%ADD12C,2.200000*%
%ADD13R,3.500000X3.500000*%
%ADD14RoundRect,0.750000X-0.750000X-1.000000X0.750000X-1.000000X0.750000X1.000000X-0.750000X1.000000X0*%
%ADD15RoundRect,0.875000X-0.875000X-0.875000X0.875000X-0.875000X0.875000X0.875000X-0.875000X0.875000X0*%
%ADD16R,1.700000X1.700000*%
%ADD17O,1.700000X1.700000*%
%ADD18RoundRect,0.250000X-0.450000X0.262500X-0.450000X-0.262500X0.450000X-0.262500X0.450000X0.262500X0*%
G04 APERTURE END LIST*
D10*
%TO.C,J2*%
X117900000Y-32500000D03*
D11*
X115360000Y-35040000D03*
X115360000Y-29960000D03*
X120440000Y-29960000D03*
X120440000Y-35040000D03*
%TD*%
D12*
%TO.C,H6*%
X67000000Y-66300000D03*
%TD*%
D13*
%TO.C,J3*%
X76800000Y-81242500D03*
D14*
X70800000Y-81242500D03*
D15*
X73800000Y-85942500D03*
%TD*%
D16*
%TO.C,TH1*%
X104625000Y-95000000D03*
D17*
X107165000Y-95000000D03*
%TD*%
D16*
%TO.C,J1*%
X116900000Y-82450000D03*
D17*
X116900000Y-79910000D03*
X116900000Y-77370000D03*
X116900000Y-74830000D03*
X116900000Y-72290000D03*
X116900000Y-69750000D03*
%TD*%
D16*
%TO.C,J4*%
X112250000Y-91300000D03*
D17*
X114790000Y-91300000D03*
X117330000Y-91300000D03*
X119870000Y-91300000D03*
X122410000Y-91300000D03*
X124950000Y-91300000D03*
%TD*%
D12*
%TO.C,H2*%
X123900000Y-64500000D03*
%TD*%
D16*
%TO.C,J7*%
X107000000Y-55675000D03*
D17*
X107000000Y-58215000D03*
X107000000Y-60755000D03*
X107000000Y-63295000D03*
X107000000Y-65835000D03*
%TD*%
D16*
%TO.C,J6*%
X106600000Y-40375000D03*
D17*
X106600000Y-37835000D03*
%TD*%
D12*
%TO.C,H1*%
X64400000Y-96400000D03*
%TD*%
D16*
%TO.C,J5*%
X125000000Y-82650000D03*
D17*
X125000000Y-80110000D03*
X125000000Y-77570000D03*
X125000000Y-75030000D03*
X125000000Y-72490000D03*
X125000000Y-69950000D03*
%TD*%
D12*
%TO.C,H4*%
X101800000Y-31500000D03*
%TD*%
D16*
%TO.C,J8*%
X82700000Y-81225000D03*
D17*
X82700000Y-83765000D03*
%TD*%
D12*
%TO.C,H3*%
X67000000Y-31500000D03*
%TD*%
D18*
%TO.C,C17*%
X117700000Y-56887500D03*
X117700000Y-58712500D03*
%TD*%
%TO.C,C11*%
X115500000Y-56887500D03*
X115500000Y-58712500D03*
%TD*%
M02*
