M48
; DRILL file {KiCad (6.0.7)} date Sun Oct  2 00:57:52 2022
; FORMAT={-:-/ absolute / inch / decimal}
; #@! TF.CreationDate,2022-10-02T00:57:52+02:00
; #@! TF.GenerationSoftware,Kicad,Pcbnew,(6.0.7)
; #@! TF.FileFunction,Plated,1,4,PTH
FMAT,2
INCH
; #@! TA.AperFunction,Plated,PTH,ViaDrill
T1C0.0079
; #@! TA.AperFunction,Plated,PTH,ComponentDrill
T2C0.0079
; #@! TA.AperFunction,Plated,PTH,ViaDrill
T3C0.0157
; #@! TA.AperFunction,Plated,PTH,ComponentDrill
T4C0.0394
; #@! TA.AperFunction,Plated,PTH,ComponentDrill
T5C0.0591
; #@! TA.AperFunction,Plated,PTH,ComponentDrill
T6C0.0669
; #@! TA.AperFunction,Plated,PTH,ViaDrill
T7C0.1181
%
G90
G05
T1
X3.3386Y-1.9055
X3.3386Y-1.9646
X4.4129Y-2.0199
X4.4291Y-1.9094
X4.4314Y-2.0345
X4.4488Y-1.9331
X4.4503Y-2.0488
X4.4672Y-2.0652
X4.4811Y-2.0842
X4.5Y-2.0984
X4.563Y-2.1732
X4.5912Y-2.1736
X4.6063Y-1.4961
X4.6221Y-1.8465
X4.626Y-2.1732
X4.6929Y-1.5709
X4.6929Y-1.6457
X4.7087Y-2.2047
X4.748Y-1.4882
X4.7717Y-1.5433
X4.7717Y-1.6063
X4.7717Y-1.6693
X4.7756Y-1.8976
X4.8937Y-1.7756
T2
X4.5791Y-1.9435
X4.5791Y-1.9934
X4.5791Y-2.0432
X4.5791Y-2.0931
X4.629Y-1.9435
X4.629Y-1.9934
X4.629Y-2.0432
X4.629Y-2.0931
X4.6789Y-1.9435
X4.6789Y-1.9934
X4.6789Y-2.0432
X4.6789Y-2.0931
X4.7287Y-1.9435
X4.7287Y-1.9934
X4.7287Y-2.0432
X4.7287Y-2.0931
T3
X2.5039Y-2.2913
X2.5039Y-2.3701
X2.5039Y-2.4488
X2.5039Y-2.5276
X2.5039Y-2.8465
X2.5039Y-2.9252
X2.5039Y-3.0039
X2.5039Y-3.0827
X2.5039Y-3.1614
X2.5039Y-3.2402
X2.5039Y-3.3189
X2.5039Y-3.3976
X2.5039Y-3.4764
X2.5039Y-3.5551
X2.5039Y-3.6339
X2.6063Y-2.5
X2.6569Y-3.8541
X2.7349Y-3.856
X2.7559Y-2.3622
X2.7559Y-2.6622
X2.815Y-3.8583
X2.8937Y-3.8583
X2.9Y-2.5
X2.9Y-2.8
X2.9528Y-2.3622
X2.9528Y-2.6622
X2.9724Y-3.8583
X3.0512Y-3.8583
X3.0827Y-1.8898
X3.1Y-2.5
X3.1Y-2.8
X3.1299Y-3.8583
X3.1496Y-2.3622
X3.1496Y-2.6622
X3.1772Y-1.8228
X3.2087Y-3.8583
X3.2126Y-2.0276
X3.252Y-1.8228
X3.2874Y-3.8583
X3.3Y-2.5
X3.3Y-2.8
X3.3228Y-1.8228
X3.3465Y-2.3622
X3.3465Y-2.6622
X3.3661Y-3.8583
X3.3898Y-1.8228
X3.4291Y-2.0118
X3.4449Y-3.8583
X3.4764Y-1.8228
X3.4961Y-2.0591
X3.5Y-2.5
X3.5Y-2.8
X3.5236Y-3.8583
X3.5433Y-2.3622
X3.5433Y-2.6622
X3.6024Y-3.8583
X3.6811Y-3.8583
X3.7Y-2.5
X3.7598Y-3.8583
X3.8386Y-3.8583
X3.9094Y-3.4213
X3.9094Y-3.4843
X3.9173Y-3.8583
X3.9646Y-3.4213
X3.9961Y-3.8583
X4.0276Y-3.4213
X4.0748Y-3.8583
X4.1535Y-3.8583
X4.1732Y-1.1811
X4.1732Y-1.2559
X4.1732Y-1.3386
X4.2323Y-3.8583
X4.252Y-1.1811
X4.252Y-1.2559
X4.252Y-1.3386
X4.311Y-3.8583
X4.3307Y-1.1811
X4.3307Y-1.2598
X4.3307Y-1.3386
X4.3307Y-1.4173
X4.3307Y-1.4961
X4.3307Y-1.5748
X4.3307Y-1.6535
X4.3307Y-1.7323
X4.3307Y-1.811
X4.3898Y-3.8583
X4.4094Y-1.1811
X4.4094Y-1.2598
X4.4094Y-1.3386
X4.4094Y-1.4173
X4.4094Y-1.4961
X4.4094Y-1.5748
X4.4094Y-1.6535
X4.4094Y-1.7323
X4.4094Y-1.811
X4.4685Y-3.8583
X4.4882Y-1.5354
X4.4882Y-1.6142
X4.4882Y-1.6929
X4.4882Y-1.7717
X4.5472Y-3.8583
X4.626Y-3.8583
X4.7047Y-3.8583
X4.7835Y-3.8583
X4.8031Y-2.3898
X4.8622Y-1.1614
X4.8622Y-1.2402
X4.8622Y-1.3189
X4.8622Y-1.3976
X4.8622Y-1.4764
X4.8622Y-1.5551
X4.8622Y-1.6339
X4.8622Y-1.7126
X4.8622Y-3.8583
X4.9409Y-1.1614
X4.9409Y-1.2402
X4.9409Y-1.3189
X4.9409Y-1.3976
X4.9409Y-1.4764
X4.9409Y-1.5551
X4.9409Y-1.6339
X4.9409Y-1.7126
X4.9409Y-3.8583
X5.0197Y-1.1614
X5.0197Y-1.2402
X5.0197Y-1.3189
X5.0197Y-1.3976
X5.0197Y-1.4764
X5.0197Y-1.5551
X5.0197Y-1.6339
X5.0197Y-1.7126
X5.0197Y-1.7913
X5.0197Y-1.8701
X5.0197Y-1.9488
X5.0197Y-2.0276
X5.0197Y-2.1063
X5.0197Y-3.8583
X5.0984Y-1.1614
X5.0984Y-1.2402
X5.0984Y-1.3189
X5.0984Y-1.3976
X5.0984Y-1.4764
X5.0984Y-1.5551
X5.0984Y-1.6339
X5.0984Y-1.7126
X5.0984Y-1.7913
X5.0984Y-1.8701
X5.0984Y-1.9488
X5.0984Y-2.0276
X5.0984Y-2.1063
X5.0984Y-2.185
X5.0984Y-2.2638
X5.0984Y-2.3425
X5.0984Y-2.4213
X5.0984Y-2.5
X5.0984Y-2.5787
X5.0984Y-2.6575
X5.0984Y-2.7362
X5.0984Y-2.815
X5.0984Y-2.8937
X5.0984Y-2.9724
X5.0984Y-3.0512
X5.0984Y-3.1299
X5.0984Y-3.2087
X5.0984Y-3.2874
X5.0984Y-3.3661
X5.0984Y-3.4449
X5.0984Y-3.5236
X5.0984Y-3.6024
X5.0984Y-3.6811
X5.0984Y-3.7598
X5.0984Y-3.8386
T4
X3.2559Y-3.1978
X3.2559Y-3.2978
X4.1191Y-3.7402
X4.1969Y-1.4896
X4.1969Y-1.5896
X4.2126Y-2.1919
X4.2126Y-2.2919
X4.2126Y-2.3919
X4.2126Y-2.4919
X4.2126Y-2.5919
X4.2191Y-3.7402
X4.4193Y-3.5945
X4.5193Y-3.5945
X4.6024Y-2.7461
X4.6024Y-2.8461
X4.6024Y-2.9461
X4.6024Y-3.0461
X4.6024Y-3.1461
X4.6024Y-3.2461
X4.6193Y-3.5945
X4.7193Y-3.5945
X4.8193Y-3.5945
X4.9193Y-3.5945
X4.9213Y-2.7539
X4.9213Y-2.8539
X4.9213Y-2.9539
X4.9213Y-3.0539
X4.9213Y-3.1539
X4.9213Y-3.2539
T5
X4.6417Y-1.2795
T6
X4.5417Y-1.1795
X4.5417Y-1.3795
X4.7417Y-1.1795
X4.7417Y-1.3795
T7
X2.6772Y-1.5354
X2.6772Y-1.7717
X2.6772Y-2.0079
X2.9134Y-1.2992
X2.9134Y-1.5354
X2.9134Y-1.7717
X2.9134Y-2.0079
X3.1496Y-1.2992
X3.1496Y-1.5354
X3.3858Y-1.2992
X3.3858Y-1.5354
X3.622Y-1.5354
T4
G00X2.7874Y-3.1592
M15
G01X2.7874Y-3.2379
M16
G05
G00X2.8661Y-3.3836
M15
G01X2.9449Y-3.3836
M16
G05
G00X3.0236Y-3.1592
M15
G01X3.0236Y-3.2379
M16
G05
T0
M30
