%TF.GenerationSoftware,KiCad,Pcbnew,(6.0.7)*%
%TF.CreationDate,2022-10-02T00:57:54+02:00*%
%TF.ProjectId,sensor_modul,73656e73-6f72-45f6-9d6f-64756c2e6b69,rev?*%
%TF.SameCoordinates,Original*%
%TF.FileFunction,Paste,Top*%
%TF.FilePolarity,Positive*%
%FSLAX46Y46*%
G04 Gerber Fmt 4.6, Leading zero omitted, Abs format (unit mm)*
G04 Created by KiCad (PCBNEW (6.0.7)) date 2022-10-02 00:57:54*
%MOMM*%
%LPD*%
G01*
G04 APERTURE LIST*
G04 Aperture macros list*
%AMRoundRect*
0 Rectangle with rounded corners*
0 $1 Rounding radius*
0 $2 $3 $4 $5 $6 $7 $8 $9 X,Y pos of 4 corners*
0 Add a 4 corners polygon primitive as box body*
4,1,4,$2,$3,$4,$5,$6,$7,$8,$9,$2,$3,0*
0 Add four circle primitives for the rounded corners*
1,1,$1+$1,$2,$3*
1,1,$1+$1,$4,$5*
1,1,$1+$1,$6,$7*
1,1,$1+$1,$8,$9*
0 Add four rect primitives between the rounded corners*
20,1,$1+$1,$2,$3,$4,$5,0*
20,1,$1+$1,$4,$5,$6,$7,0*
20,1,$1+$1,$6,$7,$8,$9,0*
20,1,$1+$1,$8,$9,$2,$3,0*%
%AMFreePoly0*
4,1,57,0.377128,0.574691,0.381594,0.575007,0.383995,0.573695,0.390216,0.572793,0.415350,0.556564,0.441603,0.542221,0.542221,0.441603,0.555164,0.424270,0.558545,0.421336,0.559315,0.418710,0.563076,0.413674,0.569373,0.384427,0.577795,0.355720,0.577795,-0.355720,0.574691,-0.377128,0.575007,-0.381594,0.573695,-0.383995,0.572793,-0.390216,0.556564,-0.415350,0.542221,-0.441603,
0.441603,-0.542221,0.424270,-0.555164,0.421336,-0.558545,0.418710,-0.559315,0.413674,-0.563076,0.384428,-0.569373,0.355720,-0.577795,-0.355720,-0.577795,-0.377128,-0.574691,-0.381594,-0.575007,-0.383995,-0.573695,-0.390216,-0.572793,-0.415350,-0.556564,-0.441603,-0.542221,-0.542221,-0.441603,-0.555164,-0.424270,-0.558545,-0.421336,-0.559315,-0.418710,-0.563076,-0.413674,-0.569373,-0.384428,
-0.577795,-0.355720,-0.577795,0.355720,-0.574691,0.377128,-0.575007,0.381594,-0.573695,0.383995,-0.572793,0.390216,-0.556564,0.415350,-0.542221,0.441603,-0.441603,0.542221,-0.424270,0.555164,-0.421336,0.558545,-0.418710,0.559315,-0.413674,0.563076,-0.384427,0.569373,-0.355720,0.577795,0.355720,0.577795,0.377128,0.574691,0.377128,0.574691,$1*%
G04 Aperture macros list end*
%ADD10RoundRect,0.135000X0.135000X0.185000X-0.135000X0.185000X-0.135000X-0.185000X0.135000X-0.185000X0*%
%ADD11RoundRect,0.218750X-0.218750X-0.381250X0.218750X-0.381250X0.218750X0.381250X-0.218750X0.381250X0*%
%ADD12RoundRect,0.250000X-0.450000X0.262500X-0.450000X-0.262500X0.450000X-0.262500X0.450000X0.262500X0*%
%ADD13RoundRect,0.250000X-0.475000X0.250000X-0.475000X-0.250000X0.475000X-0.250000X0.475000X0.250000X0*%
%ADD14RoundRect,0.135000X-0.185000X0.135000X-0.185000X-0.135000X0.185000X-0.135000X0.185000X0.135000X0*%
%ADD15R,0.700000X0.600000*%
%ADD16RoundRect,0.150000X-0.150000X0.587500X-0.150000X-0.587500X0.150000X-0.587500X0.150000X0.587500X0*%
%ADD17RoundRect,0.218750X-0.381250X0.218750X-0.381250X-0.218750X0.381250X-0.218750X0.381250X0.218750X0*%
%ADD18RoundRect,0.150000X0.150000X-0.587500X0.150000X0.587500X-0.150000X0.587500X-0.150000X-0.587500X0*%
%ADD19RoundRect,0.135000X-0.135000X-0.185000X0.135000X-0.185000X0.135000X0.185000X-0.135000X0.185000X0*%
%ADD20FreePoly0,180.000000*%
%ADD21RoundRect,0.050000X0.350000X0.050000X-0.350000X0.050000X-0.350000X-0.050000X0.350000X-0.050000X0*%
%ADD22RoundRect,0.050000X0.050000X0.350000X-0.050000X0.350000X-0.050000X-0.350000X0.050000X-0.350000X0*%
%ADD23RoundRect,0.135000X0.185000X-0.135000X0.185000X0.135000X-0.185000X0.135000X-0.185000X-0.135000X0*%
%ADD24RoundRect,0.250000X-0.262500X-0.450000X0.262500X-0.450000X0.262500X0.450000X-0.262500X0.450000X0*%
%ADD25RoundRect,0.250000X-0.312500X-0.625000X0.312500X-0.625000X0.312500X0.625000X-0.312500X0.625000X0*%
%ADD26RoundRect,0.250000X0.475000X-0.250000X0.475000X0.250000X-0.475000X0.250000X-0.475000X-0.250000X0*%
%ADD27R,2.500000X1.000000*%
%ADD28RoundRect,0.130000X-0.130000X-0.275000X0.130000X-0.275000X0.130000X0.275000X-0.130000X0.275000X0*%
%ADD29RoundRect,0.075000X-0.300000X-0.075000X0.300000X-0.075000X0.300000X0.075000X-0.300000X0.075000X0*%
%ADD30R,2.300000X2.500000*%
%ADD31RoundRect,0.250000X0.450000X-0.262500X0.450000X0.262500X-0.450000X0.262500X-0.450000X-0.262500X0*%
%ADD32RoundRect,0.250000X0.262500X0.450000X-0.262500X0.450000X-0.262500X-0.450000X0.262500X-0.450000X0*%
%ADD33R,0.900000X1.100000*%
G04 APERTURE END LIST*
D10*
%TO.C,C10*%
X116810000Y-45600000D03*
X115790000Y-45600000D03*
%TD*%
D11*
%TO.C,FB1*%
X91737500Y-76000000D03*
X93862500Y-76000000D03*
%TD*%
D12*
%TO.C,C1*%
X104300000Y-88387500D03*
X104300000Y-90212500D03*
%TD*%
D10*
%TO.C,C14*%
X116810000Y-46900000D03*
X115790000Y-46900000D03*
%TD*%
D13*
%TO.C,C19*%
X95800000Y-76050000D03*
X95800000Y-77950000D03*
%TD*%
D14*
%TO.C,L2*%
X117900000Y-40190000D03*
X117900000Y-41210000D03*
%TD*%
D15*
%TO.C,D3*%
X103200000Y-38200000D03*
X103200000Y-39600000D03*
%TD*%
D16*
%TO.C,D4*%
X87875000Y-78037500D03*
X85975000Y-78037500D03*
X86925000Y-79912500D03*
%TD*%
D17*
%TO.C,FB3*%
X104300000Y-84437500D03*
X104300000Y-86562500D03*
%TD*%
D12*
%TO.C,R2*%
X80200000Y-48087500D03*
X80200000Y-49912500D03*
%TD*%
D18*
%TO.C,Q1*%
X105725000Y-45637500D03*
X107625000Y-45637500D03*
X106675000Y-43762500D03*
%TD*%
D19*
%TO.C,C12*%
X119990000Y-46200000D03*
X121010000Y-46200000D03*
%TD*%
D13*
%TO.C,C22*%
X101400000Y-88400000D03*
X101400000Y-90300000D03*
%TD*%
D10*
%TO.C,C8*%
X116810000Y-44200000D03*
X115790000Y-44200000D03*
%TD*%
D20*
%TO.C,U2*%
X119476667Y-49998333D03*
X119476667Y-51265000D03*
X118210000Y-51265000D03*
X116943333Y-49998333D03*
X116943333Y-51265000D03*
X116943333Y-52531667D03*
X119476667Y-52531667D03*
X118210000Y-52531667D03*
X118210000Y-49998333D03*
D21*
X121160000Y-53465000D03*
X121160000Y-53065000D03*
X121160000Y-52665000D03*
X121160000Y-52265000D03*
X121160000Y-51865000D03*
X121160000Y-51465000D03*
X121160000Y-51065000D03*
X121160000Y-50665000D03*
X121160000Y-50265000D03*
X121160000Y-49865000D03*
X121160000Y-49465000D03*
X121160000Y-49065000D03*
D22*
X120410000Y-48315000D03*
X120010000Y-48315000D03*
X119610000Y-48315000D03*
X119210000Y-48315000D03*
X118810000Y-48315000D03*
X118410000Y-48315000D03*
X118010000Y-48315000D03*
X117610000Y-48315000D03*
X117210000Y-48315000D03*
X116810000Y-48315000D03*
X116410000Y-48315000D03*
X116010000Y-48315000D03*
D21*
X115260000Y-49065000D03*
X115260000Y-49465000D03*
X115260000Y-49865000D03*
X115260000Y-50265000D03*
X115260000Y-50665000D03*
X115260000Y-51065000D03*
X115260000Y-51465000D03*
X115260000Y-51865000D03*
X115260000Y-52265000D03*
X115260000Y-52665000D03*
X115260000Y-53065000D03*
X115260000Y-53465000D03*
D22*
X116010000Y-54215000D03*
X116410000Y-54215000D03*
X116810000Y-54215000D03*
X117210000Y-54215000D03*
X117610000Y-54215000D03*
X118010000Y-54215000D03*
X118410000Y-54215000D03*
X118810000Y-54215000D03*
X119210000Y-54215000D03*
X119610000Y-54215000D03*
X120010000Y-54215000D03*
X120410000Y-54215000D03*
%TD*%
D23*
%TO.C,C9*%
X122200000Y-47110000D03*
X122200000Y-46090000D03*
%TD*%
D19*
%TO.C,L6*%
X115790000Y-56100000D03*
X116810000Y-56100000D03*
%TD*%
D14*
%TO.C,L4*%
X117900000Y-42390000D03*
X117900000Y-43410000D03*
%TD*%
D24*
%TO.C,R5*%
X105762500Y-49600000D03*
X107587500Y-49600000D03*
%TD*%
D18*
%TO.C,D5*%
X85975000Y-83912500D03*
X87875000Y-83912500D03*
X86925000Y-82037500D03*
%TD*%
D25*
%TO.C,C15*%
X118537500Y-56000000D03*
X121462500Y-56000000D03*
%TD*%
D24*
%TO.C,R3*%
X99387500Y-95000000D03*
X101212500Y-95000000D03*
%TD*%
D26*
%TO.C,C18*%
X95800000Y-73950000D03*
X95800000Y-72050000D03*
%TD*%
D27*
%TO.C,U3*%
X98664450Y-71405900D03*
X98664450Y-73945900D03*
X98616750Y-78975100D03*
X109335550Y-78949700D03*
X109383250Y-71380500D03*
%TD*%
D23*
%TO.C,C6*%
X116600000Y-42410000D03*
X116600000Y-41390000D03*
%TD*%
D14*
%TO.C,C3*%
X117900000Y-38090000D03*
X117900000Y-39110000D03*
%TD*%
D10*
%TO.C,C4*%
X116710000Y-39100000D03*
X115690000Y-39100000D03*
%TD*%
D28*
%TO.C,U1*%
X84485000Y-48665000D03*
X85135000Y-48665000D03*
X84485000Y-49665000D03*
X85135000Y-49665000D03*
D29*
X83560000Y-48515000D03*
X83560000Y-49165000D03*
X83560000Y-49815000D03*
X86060000Y-49815000D03*
X86060000Y-49165000D03*
X86060000Y-48515000D03*
%TD*%
D30*
%TO.C,D1*%
X91800000Y-83150000D03*
X91800000Y-78850000D03*
%TD*%
D23*
%TO.C,C5*%
X121500000Y-44710000D03*
X121500000Y-43690000D03*
%TD*%
D11*
%TO.C,FB2*%
X91737500Y-86000000D03*
X93862500Y-86000000D03*
%TD*%
D23*
%TO.C,C7*%
X123300000Y-47110000D03*
X123300000Y-46090000D03*
%TD*%
D31*
%TO.C,R1*%
X88800000Y-50512500D03*
X88800000Y-48687500D03*
%TD*%
D32*
%TO.C,C16*%
X113612500Y-54900000D03*
X111787500Y-54900000D03*
%TD*%
%TO.C,C2*%
X85412500Y-52300000D03*
X83587500Y-52300000D03*
%TD*%
D26*
%TO.C,R4*%
X97200000Y-83450000D03*
X97200000Y-81550000D03*
%TD*%
D24*
%TO.C,R6*%
X109662500Y-45700000D03*
X111487500Y-45700000D03*
%TD*%
D14*
%TO.C,L1*%
X120200000Y-43690000D03*
X120200000Y-44710000D03*
%TD*%
D13*
%TO.C,D2*%
X97200000Y-85450000D03*
X97200000Y-87350000D03*
%TD*%
D23*
%TO.C,C13*%
X119100000Y-44710000D03*
X119100000Y-43690000D03*
%TD*%
D33*
%TO.C,Y1*%
X124350000Y-50450000D03*
X124350000Y-48750000D03*
X123050000Y-48750000D03*
X123050000Y-50450000D03*
%TD*%
D14*
%TO.C,L3*%
X124500000Y-46090000D03*
X124500000Y-47110000D03*
%TD*%
%TO.C,L5*%
X117900000Y-44590000D03*
X117900000Y-45610000D03*
%TD*%
D26*
%TO.C,C21*%
X104400000Y-82750000D03*
X104400000Y-80850000D03*
%TD*%
%TO.C,C20*%
X106600000Y-82750000D03*
X106600000Y-80850000D03*
%TD*%
M02*
