%TF.GenerationSoftware,KiCad,Pcbnew,(6.0.7)*%
%TF.CreationDate,2022-10-02T00:57:54+02:00*%
%TF.ProjectId,sensor_modul,73656e73-6f72-45f6-9d6f-64756c2e6b69,rev?*%
%TF.SameCoordinates,Original*%
%TF.FileFunction,Copper,L2,Inr*%
%TF.FilePolarity,Positive*%
%FSLAX46Y46*%
G04 Gerber Fmt 4.6, Leading zero omitted, Abs format (unit mm)*
G04 Created by KiCad (PCBNEW (6.0.7)) date 2022-10-02 00:57:54*
%MOMM*%
%LPD*%
G01*
G04 APERTURE LIST*
G04 Aperture macros list*
%AMRoundRect*
0 Rectangle with rounded corners*
0 $1 Rounding radius*
0 $2 $3 $4 $5 $6 $7 $8 $9 X,Y pos of 4 corners*
0 Add a 4 corners polygon primitive as box body*
4,1,4,$2,$3,$4,$5,$6,$7,$8,$9,$2,$3,0*
0 Add four circle primitives for the rounded corners*
1,1,$1+$1,$2,$3*
1,1,$1+$1,$4,$5*
1,1,$1+$1,$6,$7*
1,1,$1+$1,$8,$9*
0 Add four rect primitives between the rounded corners*
20,1,$1+$1,$2,$3,$4,$5,0*
20,1,$1+$1,$4,$5,$6,$7,0*
20,1,$1+$1,$6,$7,$8,$9,0*
20,1,$1+$1,$8,$9,$2,$3,0*%
G04 Aperture macros list end*
%TA.AperFunction,ComponentPad*%
%ADD10C,2.500000*%
%TD*%
%TA.AperFunction,ComponentPad*%
%ADD11R,3.500000X3.500000*%
%TD*%
%TA.AperFunction,ComponentPad*%
%ADD12RoundRect,0.750000X-0.750000X-1.000000X0.750000X-1.000000X0.750000X1.000000X-0.750000X1.000000X0*%
%TD*%
%TA.AperFunction,ComponentPad*%
%ADD13RoundRect,0.875000X-0.875000X-0.875000X0.875000X-0.875000X0.875000X0.875000X-0.875000X0.875000X0*%
%TD*%
%TA.AperFunction,ComponentPad*%
%ADD14R,1.700000X1.700000*%
%TD*%
%TA.AperFunction,ComponentPad*%
%ADD15O,1.700000X1.700000*%
%TD*%
%TA.AperFunction,ComponentPad*%
%ADD16C,0.500000*%
%TD*%
%TA.AperFunction,ViaPad*%
%ADD17C,2.200000*%
%TD*%
%TA.AperFunction,ViaPad*%
%ADD18C,0.400000*%
%TD*%
%TA.AperFunction,ViaPad*%
%ADD19C,0.800000*%
%TD*%
G04 APERTURE END LIST*
D10*
%TO.N,GND*%
%TO.C,J2*%
X115360000Y-35040000D03*
X115360000Y-29960000D03*
X120440000Y-29960000D03*
X120440000Y-35040000D03*
%TD*%
D11*
%TO.N,Net-(D4-Pad1)*%
%TO.C,J3*%
X76800000Y-81242500D03*
D12*
%TO.N,Net-(D5-Pad2)*%
X70800000Y-81242500D03*
D13*
%TO.N,N/C*%
X73800000Y-85942500D03*
%TD*%
D14*
%TO.N,/EFR32/Temp_sense*%
%TO.C,TH1*%
X104625000Y-95000000D03*
D15*
%TO.N,GND*%
X107165000Y-95000000D03*
%TD*%
D14*
%TO.N,/EFR32/SPI_CS1*%
%TO.C,J1*%
X116900000Y-82450000D03*
D15*
%TO.N,GND*%
X116900000Y-79910000D03*
%TO.N,/EFR32/SPI_CLK*%
X116900000Y-77370000D03*
%TO.N,/EFR32/SPI_MOSI*%
X116900000Y-74830000D03*
%TO.N,/EFR32/SPI_MISO*%
X116900000Y-72290000D03*
%TO.N,+3V3*%
X116900000Y-69750000D03*
%TD*%
D14*
%TO.N,/EFR32/SPI_CS2*%
%TO.C,J4*%
X112250000Y-91300000D03*
D15*
%TO.N,GND*%
X114790000Y-91300000D03*
%TO.N,/EFR32/SPI_CLK*%
X117330000Y-91300000D03*
%TO.N,/EFR32/SPI_MOSI*%
X119870000Y-91300000D03*
%TO.N,/EFR32/SPI_MISO*%
X122410000Y-91300000D03*
%TO.N,+3V3*%
X124950000Y-91300000D03*
%TD*%
D16*
%TO.N,N/C*%
%TO.C,U2*%
X120110000Y-50631667D03*
X118843333Y-49365000D03*
X117576667Y-51898333D03*
X117576667Y-50631667D03*
X118843333Y-53165000D03*
X116310000Y-50631667D03*
X118843333Y-50631667D03*
X116310000Y-49365000D03*
X116310000Y-51898333D03*
X116310000Y-53165000D03*
X120110000Y-51898333D03*
X117576667Y-53165000D03*
X118843333Y-51898333D03*
X120110000Y-49365000D03*
X120110000Y-53165000D03*
X117576667Y-49365000D03*
%TD*%
D14*
%TO.N,+3V3*%
%TO.C,J7*%
X107000000Y-55675000D03*
D15*
%TO.N,/EFR32/SWDIO*%
X107000000Y-58215000D03*
%TO.N,/EFR32/SWCLK*%
X107000000Y-60755000D03*
%TO.N,/EFR32/RESET*%
X107000000Y-63295000D03*
%TO.N,GND*%
X107000000Y-65835000D03*
%TD*%
D14*
%TO.N,Net-(D3-Pad2)*%
%TO.C,J6*%
X106600000Y-40375000D03*
D15*
%TO.N,+3V3*%
X106600000Y-37835000D03*
%TD*%
D14*
%TO.N,/EFR32/SPI_CS3*%
%TO.C,J5*%
X125000000Y-82650000D03*
D15*
%TO.N,GND*%
X125000000Y-80110000D03*
%TO.N,/EFR32/SPI_CLK*%
X125000000Y-77570000D03*
%TO.N,/EFR32/SPI_MOSI*%
X125000000Y-75030000D03*
%TO.N,/EFR32/SPI_MISO*%
X125000000Y-72490000D03*
%TO.N,+3V3*%
X125000000Y-69950000D03*
%TD*%
D14*
%TO.N,Net-(D4-Pad2)*%
%TO.C,J8*%
X82700000Y-81225000D03*
D15*
%TO.N,Net-(D5-Pad1)*%
X82700000Y-83765000D03*
%TD*%
D17*
%TO.N,*%
X68000000Y-39000000D03*
X74000000Y-33000000D03*
X74000000Y-39000000D03*
X68000000Y-51000000D03*
X74000000Y-51000000D03*
X68000000Y-45000000D03*
X86000000Y-33000000D03*
X92000000Y-39000000D03*
X74000000Y-45000000D03*
X80000000Y-33000000D03*
X86000000Y-39000000D03*
X80000000Y-39000000D03*
D18*
%TO.N,/EFR32/SPI_CS1*%
X113036532Y-52038612D03*
%TO.N,+3V3*%
X115900000Y-55200000D03*
D19*
X99300000Y-88500000D03*
X99300000Y-86900000D03*
X78300000Y-48000000D03*
X88800000Y-52300000D03*
X102300000Y-86900000D03*
D18*
X119600000Y-56000000D03*
D19*
X100700000Y-86900000D03*
%TO.N,GND*%
X129500000Y-55500000D03*
X110000000Y-46000000D03*
X63600000Y-58200000D03*
D18*
X119200000Y-39900000D03*
D19*
X129500000Y-49500000D03*
X63600000Y-76300000D03*
X73660000Y-63500000D03*
X86100000Y-46300000D03*
D18*
X119200000Y-41800000D03*
D19*
X129500000Y-65500000D03*
X75000000Y-60000000D03*
X129500000Y-93500000D03*
X117500000Y-98000000D03*
X125500000Y-41500000D03*
X129500000Y-47500000D03*
X73500000Y-98000000D03*
X88900000Y-63500000D03*
X127500000Y-35500000D03*
X87500000Y-98000000D03*
X78740000Y-71120000D03*
X129500000Y-37500000D03*
X106000000Y-31900000D03*
X70000000Y-67620000D03*
X129500000Y-77500000D03*
X63600000Y-72300000D03*
X125500000Y-37500000D03*
X127500000Y-49500000D03*
X110000000Y-42000000D03*
X127500000Y-47500000D03*
X109500000Y-98000000D03*
X110000000Y-44000000D03*
X129500000Y-53500000D03*
X123500000Y-39500000D03*
X103500000Y-98000000D03*
X63600000Y-78300000D03*
X127500000Y-39500000D03*
X69465514Y-97941378D03*
X63600000Y-88300000D03*
X129500000Y-79500000D03*
X85000000Y-60000000D03*
X129500000Y-63500000D03*
X123500000Y-98000000D03*
X112000000Y-30000000D03*
D18*
X84800000Y-49900000D03*
D19*
X125500000Y-39500000D03*
X63600000Y-74300000D03*
D18*
X121200000Y-42400000D03*
D19*
X125500000Y-43500000D03*
X73660000Y-71120000D03*
X80000000Y-60000000D03*
X112000000Y-46000000D03*
X129500000Y-81500000D03*
X113500000Y-98000000D03*
X63600000Y-86300000D03*
X66200000Y-63500000D03*
X63600000Y-62200000D03*
X112000000Y-34000000D03*
X121500000Y-98000000D03*
X114000000Y-39000000D03*
X129500000Y-75500000D03*
X123500000Y-33500000D03*
X129500000Y-41500000D03*
X63600000Y-80300000D03*
X129500000Y-61500000D03*
X85000000Y-67620000D03*
X108000000Y-30000000D03*
X125500000Y-98000000D03*
X79500000Y-98000000D03*
X108000000Y-34000000D03*
X123500000Y-31500000D03*
X110000000Y-32000000D03*
X83820000Y-71120000D03*
X127500000Y-41500000D03*
X95500000Y-98000000D03*
X127500000Y-33500000D03*
X110000000Y-30000000D03*
D18*
X116616388Y-55209988D03*
D19*
X90000000Y-67620000D03*
X108000000Y-31900000D03*
X78740000Y-63500000D03*
X63600000Y-82300000D03*
X89500000Y-98000000D03*
X127500000Y-53500000D03*
X129500000Y-33500000D03*
X82600000Y-46300000D03*
X112000000Y-36000000D03*
X125500000Y-31500000D03*
X129500000Y-29500000D03*
X77500000Y-98000000D03*
X129500000Y-59500000D03*
X129500000Y-73500000D03*
X112000000Y-44000000D03*
X127500000Y-29500000D03*
X129500000Y-89500000D03*
X129500000Y-67500000D03*
X88300000Y-46300000D03*
X129500000Y-35500000D03*
X129500000Y-57500000D03*
X67486214Y-97894252D03*
X123500000Y-35500000D03*
X63600000Y-64200000D03*
D18*
X121200000Y-40800000D03*
D19*
X129500000Y-95500000D03*
X110000000Y-38000000D03*
X110000000Y-34000000D03*
X110000000Y-40000000D03*
X127500000Y-51500000D03*
X80000000Y-67620000D03*
X115500000Y-98000000D03*
X123500000Y-29500000D03*
X85500000Y-98000000D03*
X129500000Y-43500000D03*
X97500000Y-98000000D03*
X119500000Y-98000000D03*
X129500000Y-31500000D03*
X84400000Y-46300000D03*
X81500000Y-98000000D03*
X75000000Y-67620000D03*
X129500000Y-85500000D03*
X81600000Y-51500000D03*
X129500000Y-91500000D03*
X107500000Y-98000000D03*
X99500000Y-98000000D03*
X106000000Y-30000000D03*
X112000000Y-42000000D03*
D18*
X121200000Y-39200000D03*
D19*
X114000000Y-43000000D03*
X114000000Y-45000000D03*
X63600000Y-60200000D03*
D18*
X117000000Y-38000000D03*
D19*
X127500000Y-31500000D03*
X129500000Y-69500000D03*
X129500000Y-97500000D03*
X91500000Y-98000000D03*
X105500000Y-98000000D03*
D18*
X120600000Y-37800000D03*
D19*
X75500000Y-98000000D03*
X125500000Y-29500000D03*
X127500000Y-43500000D03*
X127500000Y-98000000D03*
X63600000Y-90300000D03*
X114000000Y-41000000D03*
X129500000Y-83500000D03*
X87100000Y-51100000D03*
X123500000Y-43500000D03*
X93500000Y-98000000D03*
X110000000Y-36000000D03*
X70000000Y-60000000D03*
X129500000Y-71500000D03*
X63600000Y-84300000D03*
X129500000Y-51500000D03*
X71500000Y-98000000D03*
X112000000Y-40000000D03*
X63600000Y-92300000D03*
X127500000Y-37500000D03*
X101500000Y-98000000D03*
X112000000Y-32000000D03*
X106000000Y-34000000D03*
X125500000Y-35500000D03*
X88900000Y-71120000D03*
D18*
X84800000Y-48400000D03*
D19*
X90000000Y-60000000D03*
X127500000Y-45500000D03*
X83820000Y-63500000D03*
X123500000Y-37500000D03*
X129500000Y-39500000D03*
X112000000Y-38000000D03*
X111500000Y-98000000D03*
X83500000Y-98000000D03*
X125500000Y-33500000D03*
X93980000Y-63500000D03*
X129500000Y-87500000D03*
X80700000Y-46300000D03*
X123500000Y-41500000D03*
X129500000Y-45500000D03*
D18*
%TO.N,VDCDC*%
X117400500Y-46900000D03*
X117500000Y-55200000D03*
X124300000Y-45100000D03*
%TO.N,/EFR32/SPI_CLK*%
X113467447Y-52455403D03*
%TO.N,/EFR32/SPI_MOSI*%
X113820904Y-52939625D03*
%TO.N,/EFR32/SPI_MISO*%
X114300000Y-53300000D03*
%TO.N,/EFR32/SPI_CS2*%
X112088752Y-51304351D03*
%TO.N,/EFR32/SPI_CS3*%
X112558478Y-51676856D03*
%TO.N,/EFR32/RESET*%
X121300000Y-48200000D03*
D19*
X122000000Y-60700000D03*
D18*
%TO.N,/EFR32/SWDIO*%
X112500000Y-48500000D03*
%TO.N,/EFR32/SWCLK*%
X113000000Y-49100000D03*
%TD*%
%TA.AperFunction,Conductor*%
%TO.N,GND*%
G36*
X130603026Y-28365352D02*
G01*
X130720474Y-28380497D01*
X130736273Y-28384690D01*
X130841943Y-28428191D01*
X130856114Y-28436336D01*
X130889572Y-28461919D01*
X130946898Y-28505753D01*
X130958470Y-28517291D01*
X131028155Y-28607880D01*
X131036337Y-28622022D01*
X131080145Y-28727570D01*
X131084383Y-28743356D01*
X131098963Y-28853893D01*
X131099500Y-28862066D01*
X131099500Y-98566105D01*
X131098965Y-98574263D01*
X131084440Y-98684583D01*
X131080217Y-98700344D01*
X131036558Y-98805740D01*
X131028403Y-98819865D01*
X130963469Y-98904480D01*
X130958951Y-98910368D01*
X130947415Y-98921903D01*
X130890127Y-98965857D01*
X130863108Y-98986587D01*
X130825063Y-98999500D01*
X64867205Y-98999500D01*
X64843315Y-98994754D01*
X64839962Y-98993367D01*
X64825851Y-98985233D01*
X64735431Y-98915986D01*
X64723899Y-98904480D01*
X64654445Y-98814218D01*
X64646278Y-98800124D01*
X64602507Y-98694976D01*
X64598261Y-98679252D01*
X64582602Y-98562282D01*
X64582049Y-98554138D01*
X64580126Y-97746196D01*
X64598326Y-97701959D01*
X64627045Y-97686954D01*
X64626692Y-97685635D01*
X64843859Y-97627446D01*
X64843863Y-97627444D01*
X64846496Y-97626739D01*
X64938797Y-97583698D01*
X65050260Y-97531722D01*
X65050263Y-97531720D01*
X65052734Y-97530568D01*
X65239139Y-97400047D01*
X65400047Y-97239139D01*
X65530568Y-97052734D01*
X65626739Y-96846496D01*
X65685635Y-96626692D01*
X65705468Y-96400000D01*
X65699624Y-96333204D01*
X65685873Y-96176026D01*
X65685873Y-96176024D01*
X65685635Y-96173308D01*
X65684929Y-96170672D01*
X65627446Y-95956141D01*
X65627444Y-95956137D01*
X65626739Y-95953504D01*
X65587683Y-95869748D01*
X103574500Y-95869748D01*
X103586133Y-95928231D01*
X103630448Y-95994552D01*
X103635562Y-95997969D01*
X103691653Y-96035449D01*
X103691655Y-96035450D01*
X103696769Y-96038867D01*
X103702803Y-96040067D01*
X103702805Y-96040068D01*
X103752239Y-96049901D01*
X103752242Y-96049901D01*
X103755252Y-96050500D01*
X105494748Y-96050500D01*
X105497758Y-96049901D01*
X105497761Y-96049901D01*
X105547195Y-96040068D01*
X105547197Y-96040067D01*
X105553231Y-96038867D01*
X105558345Y-96035450D01*
X105558347Y-96035449D01*
X105614438Y-95997969D01*
X105619552Y-95994552D01*
X105663867Y-95928231D01*
X105675500Y-95869748D01*
X105675500Y-95262051D01*
X105831924Y-95262051D01*
X105864139Y-95404994D01*
X105865664Y-95409861D01*
X105947747Y-95612008D01*
X105950057Y-95616582D01*
X106064051Y-95802602D01*
X106067072Y-95806731D01*
X106209917Y-95971635D01*
X106213580Y-95975222D01*
X106381437Y-96114580D01*
X106385631Y-96117517D01*
X106573999Y-96227590D01*
X106578615Y-96229802D01*
X106782442Y-96307635D01*
X106787343Y-96309059D01*
X106898817Y-96331738D01*
X106908158Y-96329923D01*
X106911000Y-96325709D01*
X106911000Y-96324201D01*
X107419000Y-96324201D01*
X107422641Y-96332991D01*
X107428495Y-96335416D01*
X107445762Y-96333204D01*
X107450772Y-96332139D01*
X107659749Y-96269443D01*
X107664499Y-96267581D01*
X107860436Y-96171592D01*
X107864824Y-96168976D01*
X108042449Y-96042278D01*
X108046352Y-96038980D01*
X108200897Y-95884973D01*
X108204210Y-95881080D01*
X108331522Y-95703906D01*
X108334161Y-95699515D01*
X108430825Y-95503930D01*
X108432710Y-95499170D01*
X108496136Y-95290413D01*
X108497215Y-95285420D01*
X108499728Y-95266326D01*
X108497266Y-95257135D01*
X108491835Y-95254000D01*
X107431431Y-95254000D01*
X107422641Y-95257641D01*
X107419000Y-95266431D01*
X107419000Y-96324201D01*
X106911000Y-96324201D01*
X106911000Y-95266431D01*
X106907359Y-95257641D01*
X106898569Y-95254000D01*
X105842541Y-95254000D01*
X105833751Y-95257641D01*
X105831924Y-95262051D01*
X105675500Y-95262051D01*
X105675500Y-94736924D01*
X105828628Y-94736924D01*
X105830347Y-94742767D01*
X105836274Y-94746000D01*
X106898569Y-94746000D01*
X106907359Y-94742359D01*
X106911000Y-94733569D01*
X107419000Y-94733569D01*
X107422641Y-94742359D01*
X107431431Y-94746000D01*
X108489028Y-94746000D01*
X108497818Y-94742359D01*
X108499515Y-94738261D01*
X108455580Y-94563350D01*
X108453932Y-94558510D01*
X108366937Y-94358435D01*
X108364514Y-94353917D01*
X108246013Y-94170741D01*
X108242889Y-94166684D01*
X108096057Y-94005318D01*
X108092314Y-94001827D01*
X107921091Y-93866605D01*
X107916834Y-93863777D01*
X107725831Y-93758337D01*
X107721166Y-93756240D01*
X107515503Y-93683411D01*
X107510555Y-93682103D01*
X107431239Y-93667975D01*
X107421947Y-93670018D01*
X107419000Y-93674626D01*
X107419000Y-94733569D01*
X106911000Y-94733569D01*
X106911000Y-93677418D01*
X106907359Y-93668628D01*
X106901922Y-93666376D01*
X106851745Y-93674055D01*
X106846766Y-93675241D01*
X106639394Y-93743020D01*
X106634669Y-93745006D01*
X106441153Y-93845744D01*
X106436819Y-93848474D01*
X106262348Y-93979471D01*
X106258527Y-93982863D01*
X106107793Y-94140598D01*
X106104572Y-94144575D01*
X105981629Y-94324802D01*
X105979096Y-94329261D01*
X105887240Y-94527149D01*
X105885473Y-94531950D01*
X105828628Y-94736924D01*
X105675500Y-94736924D01*
X105675500Y-94130252D01*
X105663867Y-94071769D01*
X105619552Y-94005448D01*
X105585752Y-93982863D01*
X105558347Y-93964551D01*
X105558345Y-93964550D01*
X105553231Y-93961133D01*
X105547197Y-93959933D01*
X105547195Y-93959932D01*
X105497761Y-93950099D01*
X105497758Y-93950099D01*
X105494748Y-93949500D01*
X103755252Y-93949500D01*
X103752242Y-93950099D01*
X103752239Y-93950099D01*
X103702805Y-93959932D01*
X103702803Y-93959933D01*
X103696769Y-93961133D01*
X103691655Y-93964550D01*
X103691653Y-93964551D01*
X103664248Y-93982863D01*
X103630448Y-94005448D01*
X103586133Y-94071769D01*
X103574500Y-94130252D01*
X103574500Y-95869748D01*
X65587683Y-95869748D01*
X65530568Y-95747266D01*
X65400047Y-95560861D01*
X65239139Y-95399953D01*
X65052734Y-95269432D01*
X65050263Y-95268280D01*
X65050260Y-95268278D01*
X64938797Y-95216302D01*
X64846496Y-95173261D01*
X64843863Y-95172556D01*
X64843859Y-95172554D01*
X64629334Y-95115073D01*
X64629335Y-95115073D01*
X64626692Y-95114365D01*
X64625131Y-95114228D01*
X64585013Y-95088665D01*
X64573713Y-95052970D01*
X64572975Y-94742767D01*
X64566849Y-92169748D01*
X111199500Y-92169748D01*
X111200099Y-92172758D01*
X111200099Y-92172761D01*
X111203779Y-92191258D01*
X111211133Y-92228231D01*
X111255448Y-92294552D01*
X111260562Y-92297969D01*
X111316653Y-92335449D01*
X111316655Y-92335450D01*
X111321769Y-92338867D01*
X111327803Y-92340067D01*
X111327805Y-92340068D01*
X111377239Y-92349901D01*
X111377242Y-92349901D01*
X111380252Y-92350500D01*
X113119748Y-92350500D01*
X113122758Y-92349901D01*
X113122761Y-92349901D01*
X113172195Y-92340068D01*
X113172197Y-92340067D01*
X113178231Y-92338867D01*
X113183345Y-92335450D01*
X113183347Y-92335449D01*
X113239438Y-92297969D01*
X113244552Y-92294552D01*
X113288867Y-92228231D01*
X113296222Y-92191258D01*
X113299901Y-92172761D01*
X113299901Y-92172758D01*
X113300500Y-92169748D01*
X113300500Y-91562051D01*
X113456924Y-91562051D01*
X113489139Y-91704994D01*
X113490664Y-91709861D01*
X113572747Y-91912008D01*
X113575057Y-91916582D01*
X113689051Y-92102602D01*
X113692072Y-92106731D01*
X113834917Y-92271635D01*
X113838580Y-92275222D01*
X114006437Y-92414580D01*
X114010631Y-92417517D01*
X114198999Y-92527590D01*
X114203615Y-92529802D01*
X114407442Y-92607635D01*
X114412343Y-92609059D01*
X114523817Y-92631738D01*
X114533158Y-92629923D01*
X114536000Y-92625709D01*
X114536000Y-92624201D01*
X115044000Y-92624201D01*
X115047641Y-92632991D01*
X115053495Y-92635416D01*
X115070762Y-92633204D01*
X115075772Y-92632139D01*
X115284749Y-92569443D01*
X115289499Y-92567581D01*
X115485436Y-92471592D01*
X115489824Y-92468976D01*
X115667449Y-92342278D01*
X115671352Y-92338980D01*
X115825897Y-92184973D01*
X115829210Y-92181080D01*
X115956522Y-92003906D01*
X115959161Y-91999515D01*
X116055825Y-91803930D01*
X116057710Y-91799170D01*
X116121136Y-91590413D01*
X116122215Y-91585420D01*
X116124728Y-91566326D01*
X116122266Y-91557135D01*
X116116835Y-91554000D01*
X115056431Y-91554000D01*
X115047641Y-91557641D01*
X115044000Y-91566431D01*
X115044000Y-92624201D01*
X114536000Y-92624201D01*
X114536000Y-91566431D01*
X114532359Y-91557641D01*
X114523569Y-91554000D01*
X113467541Y-91554000D01*
X113458751Y-91557641D01*
X113456924Y-91562051D01*
X113300500Y-91562051D01*
X113300500Y-91285262D01*
X116274520Y-91285262D01*
X116291759Y-91490553D01*
X116348544Y-91688586D01*
X116442712Y-91871818D01*
X116444603Y-91874204D01*
X116444605Y-91874207D01*
X116473598Y-91910787D01*
X116570677Y-92033270D01*
X116573007Y-92035253D01*
X116656994Y-92106731D01*
X116727564Y-92166791D01*
X116907398Y-92267297D01*
X116910302Y-92268241D01*
X116910303Y-92268241D01*
X117100416Y-92330013D01*
X117100421Y-92330014D01*
X117103329Y-92330959D01*
X117106370Y-92331322D01*
X117106372Y-92331322D01*
X117175344Y-92339546D01*
X117307894Y-92355351D01*
X117310936Y-92355117D01*
X117310939Y-92355117D01*
X117510249Y-92339781D01*
X117510251Y-92339781D01*
X117513300Y-92339546D01*
X117711725Y-92284145D01*
X117714448Y-92282770D01*
X117714452Y-92282768D01*
X117892890Y-92192632D01*
X117895610Y-92191258D01*
X117898008Y-92189385D01*
X117898012Y-92189382D01*
X118009085Y-92102602D01*
X118057951Y-92064424D01*
X118086910Y-92030875D01*
X118113978Y-91999515D01*
X118192564Y-91908472D01*
X118294323Y-91729344D01*
X118359351Y-91533863D01*
X118364452Y-91493489D01*
X118384951Y-91331216D01*
X118384951Y-91331215D01*
X118385171Y-91329474D01*
X118385583Y-91300000D01*
X118385414Y-91298280D01*
X118385414Y-91298271D01*
X118384138Y-91285262D01*
X118814520Y-91285262D01*
X118831759Y-91490553D01*
X118888544Y-91688586D01*
X118982712Y-91871818D01*
X118984603Y-91874204D01*
X118984605Y-91874207D01*
X119013598Y-91910787D01*
X119110677Y-92033270D01*
X119113007Y-92035253D01*
X119196994Y-92106731D01*
X119267564Y-92166791D01*
X119447398Y-92267297D01*
X119450302Y-92268241D01*
X119450303Y-92268241D01*
X119640416Y-92330013D01*
X119640421Y-92330014D01*
X119643329Y-92330959D01*
X119646370Y-92331322D01*
X119646372Y-92331322D01*
X119715344Y-92339546D01*
X119847894Y-92355351D01*
X119850936Y-92355117D01*
X119850939Y-92355117D01*
X120050249Y-92339781D01*
X120050251Y-92339781D01*
X120053300Y-92339546D01*
X120251725Y-92284145D01*
X120254448Y-92282770D01*
X120254452Y-92282768D01*
X120432890Y-92192632D01*
X120435610Y-92191258D01*
X120438008Y-92189385D01*
X120438012Y-92189382D01*
X120549085Y-92102602D01*
X120597951Y-92064424D01*
X120626910Y-92030875D01*
X120653978Y-91999515D01*
X120732564Y-91908472D01*
X120834323Y-91729344D01*
X120899351Y-91533863D01*
X120904452Y-91493489D01*
X120924951Y-91331216D01*
X120924951Y-91331215D01*
X120925171Y-91329474D01*
X120925583Y-91300000D01*
X120925414Y-91298280D01*
X120925414Y-91298271D01*
X120924138Y-91285262D01*
X121354520Y-91285262D01*
X121371759Y-91490553D01*
X121428544Y-91688586D01*
X121522712Y-91871818D01*
X121524603Y-91874204D01*
X121524605Y-91874207D01*
X121553598Y-91910787D01*
X121650677Y-92033270D01*
X121653007Y-92035253D01*
X121736994Y-92106731D01*
X121807564Y-92166791D01*
X121987398Y-92267297D01*
X121990302Y-92268241D01*
X121990303Y-92268241D01*
X122180416Y-92330013D01*
X122180421Y-92330014D01*
X122183329Y-92330959D01*
X122186370Y-92331322D01*
X122186372Y-92331322D01*
X122255344Y-92339546D01*
X122387894Y-92355351D01*
X122390936Y-92355117D01*
X122390939Y-92355117D01*
X122590249Y-92339781D01*
X122590251Y-92339781D01*
X122593300Y-92339546D01*
X122791725Y-92284145D01*
X122794448Y-92282770D01*
X122794452Y-92282768D01*
X122972890Y-92192632D01*
X122975610Y-92191258D01*
X122978008Y-92189385D01*
X122978012Y-92189382D01*
X123089085Y-92102602D01*
X123137951Y-92064424D01*
X123166910Y-92030875D01*
X123193978Y-91999515D01*
X123272564Y-91908472D01*
X123374323Y-91729344D01*
X123439351Y-91533863D01*
X123444452Y-91493489D01*
X123464951Y-91331216D01*
X123464951Y-91331215D01*
X123465171Y-91329474D01*
X123465583Y-91300000D01*
X123465414Y-91298280D01*
X123465414Y-91298271D01*
X123464138Y-91285262D01*
X123894520Y-91285262D01*
X123911759Y-91490553D01*
X123968544Y-91688586D01*
X124062712Y-91871818D01*
X124064603Y-91874204D01*
X124064605Y-91874207D01*
X124093598Y-91910787D01*
X124190677Y-92033270D01*
X124193007Y-92035253D01*
X124276994Y-92106731D01*
X124347564Y-92166791D01*
X124527398Y-92267297D01*
X124530302Y-92268241D01*
X124530303Y-92268241D01*
X124720416Y-92330013D01*
X124720421Y-92330014D01*
X124723329Y-92330959D01*
X124726370Y-92331322D01*
X124726372Y-92331322D01*
X124795344Y-92339546D01*
X124927894Y-92355351D01*
X124930936Y-92355117D01*
X124930939Y-92355117D01*
X125130249Y-92339781D01*
X125130251Y-92339781D01*
X125133300Y-92339546D01*
X125331725Y-92284145D01*
X125334448Y-92282770D01*
X125334452Y-92282768D01*
X125512890Y-92192632D01*
X125515610Y-92191258D01*
X125518008Y-92189385D01*
X125518012Y-92189382D01*
X125629085Y-92102602D01*
X125677951Y-92064424D01*
X125706910Y-92030875D01*
X125733978Y-91999515D01*
X125812564Y-91908472D01*
X125914323Y-91729344D01*
X125979351Y-91533863D01*
X125984452Y-91493489D01*
X126004951Y-91331216D01*
X126004951Y-91331215D01*
X126005171Y-91329474D01*
X126005583Y-91300000D01*
X126005414Y-91298280D01*
X126005414Y-91298271D01*
X125985778Y-91098010D01*
X125985480Y-91094970D01*
X125925935Y-90897749D01*
X125829218Y-90715849D01*
X125699011Y-90556200D01*
X125540275Y-90424882D01*
X125359055Y-90326897D01*
X125289764Y-90305448D01*
X125165169Y-90266879D01*
X125165166Y-90266878D01*
X125162254Y-90265977D01*
X125159221Y-90265658D01*
X125159220Y-90265658D01*
X125104739Y-90259932D01*
X124957369Y-90244443D01*
X124954336Y-90244719D01*
X124954332Y-90244719D01*
X124841436Y-90254993D01*
X124752203Y-90263114D01*
X124749270Y-90263977D01*
X124749266Y-90263978D01*
X124619974Y-90302031D01*
X124554572Y-90321280D01*
X124372002Y-90416726D01*
X124211447Y-90545815D01*
X124079024Y-90703630D01*
X123979776Y-90884162D01*
X123917484Y-91080532D01*
X123917143Y-91083570D01*
X123917143Y-91083571D01*
X123915524Y-91098010D01*
X123894520Y-91285262D01*
X123464138Y-91285262D01*
X123445778Y-91098010D01*
X123445480Y-91094970D01*
X123385935Y-90897749D01*
X123289218Y-90715849D01*
X123159011Y-90556200D01*
X123000275Y-90424882D01*
X122819055Y-90326897D01*
X122749764Y-90305448D01*
X122625169Y-90266879D01*
X122625166Y-90266878D01*
X122622254Y-90265977D01*
X122619221Y-90265658D01*
X122619220Y-90265658D01*
X122564739Y-90259932D01*
X122417369Y-90244443D01*
X122414336Y-90244719D01*
X122414332Y-90244719D01*
X122301436Y-90254993D01*
X122212203Y-90263114D01*
X122209270Y-90263977D01*
X122209266Y-90263978D01*
X122079974Y-90302031D01*
X122014572Y-90321280D01*
X121832002Y-90416726D01*
X121671447Y-90545815D01*
X121539024Y-90703630D01*
X121439776Y-90884162D01*
X121377484Y-91080532D01*
X121377143Y-91083570D01*
X121377143Y-91083571D01*
X121375524Y-91098010D01*
X121354520Y-91285262D01*
X120924138Y-91285262D01*
X120905778Y-91098010D01*
X120905480Y-91094970D01*
X120845935Y-90897749D01*
X120749218Y-90715849D01*
X120619011Y-90556200D01*
X120460275Y-90424882D01*
X120279055Y-90326897D01*
X120209764Y-90305448D01*
X120085169Y-90266879D01*
X120085166Y-90266878D01*
X120082254Y-90265977D01*
X120079221Y-90265658D01*
X120079220Y-90265658D01*
X120024739Y-90259932D01*
X119877369Y-90244443D01*
X119874336Y-90244719D01*
X119874332Y-90244719D01*
X119761436Y-90254993D01*
X119672203Y-90263114D01*
X119669270Y-90263977D01*
X119669266Y-90263978D01*
X119539974Y-90302031D01*
X119474572Y-90321280D01*
X119292002Y-90416726D01*
X119131447Y-90545815D01*
X118999024Y-90703630D01*
X118899776Y-90884162D01*
X118837484Y-91080532D01*
X118837143Y-91083570D01*
X118837143Y-91083571D01*
X118835524Y-91098010D01*
X118814520Y-91285262D01*
X118384138Y-91285262D01*
X118365778Y-91098010D01*
X118365480Y-91094970D01*
X118305935Y-90897749D01*
X118209218Y-90715849D01*
X118079011Y-90556200D01*
X117920275Y-90424882D01*
X117739055Y-90326897D01*
X117669764Y-90305448D01*
X117545169Y-90266879D01*
X117545166Y-90266878D01*
X117542254Y-90265977D01*
X117539221Y-90265658D01*
X117539220Y-90265658D01*
X117484739Y-90259932D01*
X117337369Y-90244443D01*
X117334336Y-90244719D01*
X117334332Y-90244719D01*
X117221436Y-90254993D01*
X117132203Y-90263114D01*
X117129270Y-90263977D01*
X117129266Y-90263978D01*
X116999974Y-90302031D01*
X116934572Y-90321280D01*
X116752002Y-90416726D01*
X116591447Y-90545815D01*
X116459024Y-90703630D01*
X116359776Y-90884162D01*
X116297484Y-91080532D01*
X116297143Y-91083570D01*
X116297143Y-91083571D01*
X116295524Y-91098010D01*
X116274520Y-91285262D01*
X113300500Y-91285262D01*
X113300500Y-91036924D01*
X113453628Y-91036924D01*
X113455347Y-91042767D01*
X113461274Y-91046000D01*
X114523569Y-91046000D01*
X114532359Y-91042359D01*
X114536000Y-91033569D01*
X115044000Y-91033569D01*
X115047641Y-91042359D01*
X115056431Y-91046000D01*
X116114028Y-91046000D01*
X116122818Y-91042359D01*
X116124515Y-91038261D01*
X116080580Y-90863350D01*
X116078932Y-90858510D01*
X115991937Y-90658435D01*
X115989514Y-90653917D01*
X115871013Y-90470741D01*
X115867889Y-90466684D01*
X115721057Y-90305318D01*
X115717314Y-90301827D01*
X115546091Y-90166605D01*
X115541834Y-90163777D01*
X115350831Y-90058337D01*
X115346166Y-90056240D01*
X115140503Y-89983411D01*
X115135555Y-89982103D01*
X115056239Y-89967975D01*
X115046947Y-89970018D01*
X115044000Y-89974626D01*
X115044000Y-91033569D01*
X114536000Y-91033569D01*
X114536000Y-89977418D01*
X114532359Y-89968628D01*
X114526922Y-89966376D01*
X114476745Y-89974055D01*
X114471766Y-89975241D01*
X114264394Y-90043020D01*
X114259669Y-90045006D01*
X114066153Y-90145744D01*
X114061819Y-90148474D01*
X113887348Y-90279471D01*
X113883527Y-90282863D01*
X113732793Y-90440598D01*
X113729572Y-90444575D01*
X113606629Y-90624802D01*
X113604096Y-90629261D01*
X113512240Y-90827149D01*
X113510473Y-90831950D01*
X113453628Y-91036924D01*
X113300500Y-91036924D01*
X113300500Y-90430252D01*
X113299432Y-90424882D01*
X113290068Y-90377805D01*
X113290067Y-90377803D01*
X113288867Y-90371769D01*
X113244552Y-90305448D01*
X113210752Y-90282863D01*
X113183347Y-90264551D01*
X113183345Y-90264550D01*
X113178231Y-90261133D01*
X113172197Y-90259933D01*
X113172195Y-90259932D01*
X113122761Y-90250099D01*
X113122758Y-90250099D01*
X113119748Y-90249500D01*
X111380252Y-90249500D01*
X111377242Y-90250099D01*
X111377239Y-90250099D01*
X111327805Y-90259932D01*
X111327803Y-90259933D01*
X111321769Y-90261133D01*
X111316655Y-90264550D01*
X111316653Y-90264551D01*
X111289248Y-90282863D01*
X111255448Y-90305448D01*
X111211133Y-90371769D01*
X111209933Y-90377803D01*
X111209932Y-90377805D01*
X111200568Y-90424882D01*
X111199500Y-90430252D01*
X111199500Y-92169748D01*
X64566849Y-92169748D01*
X64558111Y-88500000D01*
X98694318Y-88500000D01*
X98714956Y-88656762D01*
X98775464Y-88802841D01*
X98871718Y-88928282D01*
X98997159Y-89024536D01*
X99000942Y-89026103D01*
X99139452Y-89083476D01*
X99139453Y-89083476D01*
X99143238Y-89085044D01*
X99147300Y-89085579D01*
X99147301Y-89085579D01*
X99295936Y-89105147D01*
X99300000Y-89105682D01*
X99304064Y-89105147D01*
X99452699Y-89085579D01*
X99452700Y-89085579D01*
X99456762Y-89085044D01*
X99460547Y-89083476D01*
X99460548Y-89083476D01*
X99599058Y-89026103D01*
X99602841Y-89024536D01*
X99728282Y-88928282D01*
X99824536Y-88802841D01*
X99885044Y-88656762D01*
X99905682Y-88500000D01*
X99885044Y-88343238D01*
X99824536Y-88197159D01*
X99728282Y-88071718D01*
X99602841Y-87975464D01*
X99599058Y-87973897D01*
X99460548Y-87916524D01*
X99460547Y-87916524D01*
X99456762Y-87914956D01*
X99452700Y-87914421D01*
X99452699Y-87914421D01*
X99304064Y-87894853D01*
X99300000Y-87894318D01*
X99295936Y-87894853D01*
X99147301Y-87914421D01*
X99147300Y-87914421D01*
X99143238Y-87914956D01*
X99139453Y-87916524D01*
X99139452Y-87916524D01*
X99000942Y-87973897D01*
X98997159Y-87975464D01*
X98871718Y-88071718D01*
X98775464Y-88197159D01*
X98714956Y-88343238D01*
X98694318Y-88500000D01*
X64558111Y-88500000D01*
X64554301Y-86899842D01*
X71849500Y-86899842D01*
X71852433Y-86947295D01*
X71896327Y-87147771D01*
X71977338Y-87336330D01*
X71979009Y-87338794D01*
X71979011Y-87338797D01*
X72090876Y-87503710D01*
X72090880Y-87503714D01*
X72092544Y-87506168D01*
X72237786Y-87651157D01*
X72240250Y-87652822D01*
X72404012Y-87763489D01*
X72407825Y-87766066D01*
X72410562Y-87767236D01*
X72410567Y-87767239D01*
X72593781Y-87845575D01*
X72593783Y-87845576D01*
X72596525Y-87846748D01*
X72599436Y-87847380D01*
X72599439Y-87847381D01*
X72777874Y-87886123D01*
X72797077Y-87890292D01*
X72842658Y-87893000D01*
X74757342Y-87893000D01*
X74767813Y-87892353D01*
X74802390Y-87890216D01*
X74802395Y-87890215D01*
X74804795Y-87890067D01*
X75005271Y-87846173D01*
X75193830Y-87765162D01*
X75196294Y-87763491D01*
X75196297Y-87763489D01*
X75361210Y-87651624D01*
X75361214Y-87651620D01*
X75363668Y-87649956D01*
X75508657Y-87504714D01*
X75564523Y-87422045D01*
X75621897Y-87337145D01*
X75621898Y-87337144D01*
X75623566Y-87334675D01*
X75624736Y-87331938D01*
X75624739Y-87331933D01*
X75703075Y-87148719D01*
X75703076Y-87148717D01*
X75704248Y-87145975D01*
X75747792Y-86945423D01*
X75750491Y-86900000D01*
X98694318Y-86900000D01*
X98714956Y-87056762D01*
X98716524Y-87060547D01*
X98716524Y-87060548D01*
X98773897Y-87199058D01*
X98775464Y-87202841D01*
X98871718Y-87328282D01*
X98997159Y-87424536D01*
X99000942Y-87426103D01*
X99139452Y-87483476D01*
X99139453Y-87483476D01*
X99143238Y-87485044D01*
X99147300Y-87485579D01*
X99147301Y-87485579D01*
X99295936Y-87505147D01*
X99300000Y-87505682D01*
X99304064Y-87505147D01*
X99452699Y-87485579D01*
X99452700Y-87485579D01*
X99456762Y-87485044D01*
X99460547Y-87483476D01*
X99460548Y-87483476D01*
X99599058Y-87426103D01*
X99602841Y-87424536D01*
X99728282Y-87328282D01*
X99824536Y-87202841D01*
X99826103Y-87199058D01*
X99883476Y-87060548D01*
X99883476Y-87060547D01*
X99885044Y-87056762D01*
X99905682Y-86900000D01*
X100094318Y-86900000D01*
X100114956Y-87056762D01*
X100116524Y-87060547D01*
X100116524Y-87060548D01*
X100173897Y-87199058D01*
X100175464Y-87202841D01*
X100271718Y-87328282D01*
X100397159Y-87424536D01*
X100400942Y-87426103D01*
X100539452Y-87483476D01*
X100539453Y-87483476D01*
X100543238Y-87485044D01*
X100547300Y-87485579D01*
X100547301Y-87485579D01*
X100695936Y-87505147D01*
X100700000Y-87505682D01*
X100704064Y-87505147D01*
X100852699Y-87485579D01*
X100852700Y-87485579D01*
X100856762Y-87485044D01*
X100860547Y-87483476D01*
X100860548Y-87483476D01*
X100999058Y-87426103D01*
X101002841Y-87424536D01*
X101128282Y-87328282D01*
X101224536Y-87202841D01*
X101226103Y-87199058D01*
X101283476Y-87060548D01*
X101283476Y-87060547D01*
X101285044Y-87056762D01*
X101305682Y-86900000D01*
X101694318Y-86900000D01*
X101714956Y-87056762D01*
X101716524Y-87060547D01*
X101716524Y-87060548D01*
X101773897Y-87199058D01*
X101775464Y-87202841D01*
X101871718Y-87328282D01*
X101997159Y-87424536D01*
X102000942Y-87426103D01*
X102139452Y-87483476D01*
X102139453Y-87483476D01*
X102143238Y-87485044D01*
X102147300Y-87485579D01*
X102147301Y-87485579D01*
X102295936Y-87505147D01*
X102300000Y-87505682D01*
X102304064Y-87505147D01*
X102452699Y-87485579D01*
X102452700Y-87485579D01*
X102456762Y-87485044D01*
X102460547Y-87483476D01*
X102460548Y-87483476D01*
X102599058Y-87426103D01*
X102602841Y-87424536D01*
X102728282Y-87328282D01*
X102824536Y-87202841D01*
X102826103Y-87199058D01*
X102883476Y-87060548D01*
X102883476Y-87060547D01*
X102885044Y-87056762D01*
X102905682Y-86900000D01*
X102885044Y-86743238D01*
X102824536Y-86597159D01*
X102728282Y-86471718D01*
X102602841Y-86375464D01*
X102599058Y-86373897D01*
X102460548Y-86316524D01*
X102460547Y-86316524D01*
X102456762Y-86314956D01*
X102452700Y-86314421D01*
X102452699Y-86314421D01*
X102304064Y-86294853D01*
X102300000Y-86294318D01*
X102295936Y-86294853D01*
X102147301Y-86314421D01*
X102147300Y-86314421D01*
X102143238Y-86314956D01*
X102139453Y-86316524D01*
X102139452Y-86316524D01*
X102000942Y-86373897D01*
X101997159Y-86375464D01*
X101871718Y-86471718D01*
X101775464Y-86597159D01*
X101714956Y-86743238D01*
X101694318Y-86900000D01*
X101305682Y-86900000D01*
X101285044Y-86743238D01*
X101224536Y-86597159D01*
X101128282Y-86471718D01*
X101002841Y-86375464D01*
X100999058Y-86373897D01*
X100860548Y-86316524D01*
X100860547Y-86316524D01*
X100856762Y-86314956D01*
X100852700Y-86314421D01*
X100852699Y-86314421D01*
X100704064Y-86294853D01*
X100700000Y-86294318D01*
X100695936Y-86294853D01*
X100547301Y-86314421D01*
X100547300Y-86314421D01*
X100543238Y-86314956D01*
X100539453Y-86316524D01*
X100539452Y-86316524D01*
X100400942Y-86373897D01*
X100397159Y-86375464D01*
X100271718Y-86471718D01*
X100175464Y-86597159D01*
X100114956Y-86743238D01*
X100094318Y-86900000D01*
X99905682Y-86900000D01*
X99885044Y-86743238D01*
X99824536Y-86597159D01*
X99728282Y-86471718D01*
X99602841Y-86375464D01*
X99599058Y-86373897D01*
X99460548Y-86316524D01*
X99460547Y-86316524D01*
X99456762Y-86314956D01*
X99452700Y-86314421D01*
X99452699Y-86314421D01*
X99304064Y-86294853D01*
X99300000Y-86294318D01*
X99295936Y-86294853D01*
X99147301Y-86314421D01*
X99147300Y-86314421D01*
X99143238Y-86314956D01*
X99139453Y-86316524D01*
X99139452Y-86316524D01*
X99000942Y-86373897D01*
X98997159Y-86375464D01*
X98871718Y-86471718D01*
X98775464Y-86597159D01*
X98714956Y-86743238D01*
X98694318Y-86900000D01*
X75750491Y-86900000D01*
X75750500Y-86899842D01*
X75750500Y-84985158D01*
X75747567Y-84937705D01*
X75703673Y-84737229D01*
X75622662Y-84548670D01*
X75620989Y-84546203D01*
X75509124Y-84381290D01*
X75509120Y-84381286D01*
X75507456Y-84378832D01*
X75362214Y-84233843D01*
X75243452Y-84153586D01*
X75194645Y-84120603D01*
X75194644Y-84120602D01*
X75192175Y-84118934D01*
X75189438Y-84117764D01*
X75189433Y-84117761D01*
X75006219Y-84039425D01*
X75006217Y-84039424D01*
X75003475Y-84038252D01*
X75000564Y-84037620D01*
X75000561Y-84037619D01*
X74805281Y-83995220D01*
X74802923Y-83994708D01*
X74757342Y-83992000D01*
X72842658Y-83992000D01*
X72832187Y-83992647D01*
X72797610Y-83994784D01*
X72797605Y-83994785D01*
X72795205Y-83994933D01*
X72594729Y-84038827D01*
X72406170Y-84119838D01*
X72403706Y-84121509D01*
X72403703Y-84121511D01*
X72238790Y-84233376D01*
X72238786Y-84233380D01*
X72236332Y-84235044D01*
X72091343Y-84380286D01*
X72089678Y-84382750D01*
X71979220Y-84546203D01*
X71976434Y-84550325D01*
X71975264Y-84553062D01*
X71975261Y-84553067D01*
X71898225Y-84733241D01*
X71895752Y-84739025D01*
X71895120Y-84741936D01*
X71895119Y-84741939D01*
X71881705Y-84803723D01*
X71852208Y-84939577D01*
X71849500Y-84985158D01*
X71849500Y-86899842D01*
X64554301Y-86899842D01*
X64546802Y-83750262D01*
X81644520Y-83750262D01*
X81661759Y-83955553D01*
X81718544Y-84153586D01*
X81812712Y-84336818D01*
X81814603Y-84339204D01*
X81814605Y-84339207D01*
X81845498Y-84378184D01*
X81940677Y-84498270D01*
X81943007Y-84500253D01*
X82001842Y-84550325D01*
X82097564Y-84631791D01*
X82277398Y-84732297D01*
X82280302Y-84733241D01*
X82280303Y-84733241D01*
X82470416Y-84795013D01*
X82470421Y-84795014D01*
X82473329Y-84795959D01*
X82476370Y-84796322D01*
X82476372Y-84796322D01*
X82538442Y-84803723D01*
X82677894Y-84820351D01*
X82680936Y-84820117D01*
X82680939Y-84820117D01*
X82880249Y-84804781D01*
X82880251Y-84804781D01*
X82883300Y-84804546D01*
X83081725Y-84749145D01*
X83084448Y-84747770D01*
X83084452Y-84747768D01*
X83262890Y-84657632D01*
X83265610Y-84656258D01*
X83268008Y-84654385D01*
X83268012Y-84654382D01*
X83397689Y-84553067D01*
X83427951Y-84529424D01*
X83456910Y-84495875D01*
X83480980Y-84467989D01*
X83562564Y-84373472D01*
X83641202Y-84235044D01*
X83662811Y-84197006D01*
X83662812Y-84197004D01*
X83664323Y-84194344D01*
X83729351Y-83998863D01*
X83729783Y-83995448D01*
X83754951Y-83796216D01*
X83754951Y-83796215D01*
X83755171Y-83794474D01*
X83755583Y-83765000D01*
X83755414Y-83763280D01*
X83755414Y-83763271D01*
X83735778Y-83563010D01*
X83735480Y-83559970D01*
X83723336Y-83519748D01*
X123949500Y-83519748D01*
X123950099Y-83522758D01*
X123950099Y-83522761D01*
X123957501Y-83559970D01*
X123961133Y-83578231D01*
X124005448Y-83644552D01*
X124010562Y-83647969D01*
X124066653Y-83685449D01*
X124066655Y-83685450D01*
X124071769Y-83688867D01*
X124077803Y-83690067D01*
X124077805Y-83690068D01*
X124127239Y-83699901D01*
X124127242Y-83699901D01*
X124130252Y-83700500D01*
X125869748Y-83700500D01*
X125872758Y-83699901D01*
X125872761Y-83699901D01*
X125922195Y-83690068D01*
X125922197Y-83690067D01*
X125928231Y-83688867D01*
X125933345Y-83685450D01*
X125933347Y-83685449D01*
X125989438Y-83647969D01*
X125994552Y-83644552D01*
X126038867Y-83578231D01*
X126042500Y-83559970D01*
X126049901Y-83522761D01*
X126049901Y-83522758D01*
X126050500Y-83519748D01*
X126050500Y-81780252D01*
X126038867Y-81721769D01*
X125994552Y-81655448D01*
X125977680Y-81644174D01*
X125933347Y-81614551D01*
X125933345Y-81614550D01*
X125928231Y-81611133D01*
X125922197Y-81609933D01*
X125922195Y-81609932D01*
X125872761Y-81600099D01*
X125872758Y-81600099D01*
X125869748Y-81599500D01*
X124130252Y-81599500D01*
X124127242Y-81600099D01*
X124127239Y-81600099D01*
X124077805Y-81609932D01*
X124077803Y-81609933D01*
X124071769Y-81611133D01*
X124066655Y-81614550D01*
X124066653Y-81614551D01*
X124022320Y-81644174D01*
X124005448Y-81655448D01*
X123961133Y-81721769D01*
X123949500Y-81780252D01*
X123949500Y-83519748D01*
X83723336Y-83519748D01*
X83675935Y-83362749D01*
X83653071Y-83319748D01*
X115849500Y-83319748D01*
X115850099Y-83322758D01*
X115850099Y-83322761D01*
X115858636Y-83365677D01*
X115861133Y-83378231D01*
X115905448Y-83444552D01*
X115910562Y-83447969D01*
X115966653Y-83485449D01*
X115966655Y-83485450D01*
X115971769Y-83488867D01*
X115977803Y-83490067D01*
X115977805Y-83490068D01*
X116027239Y-83499901D01*
X116027242Y-83499901D01*
X116030252Y-83500500D01*
X117769748Y-83500500D01*
X117772758Y-83499901D01*
X117772761Y-83499901D01*
X117822195Y-83490068D01*
X117822197Y-83490067D01*
X117828231Y-83488867D01*
X117833345Y-83485450D01*
X117833347Y-83485449D01*
X117889438Y-83447969D01*
X117894552Y-83444552D01*
X117938867Y-83378231D01*
X117941365Y-83365677D01*
X117949901Y-83322761D01*
X117949901Y-83322758D01*
X117950500Y-83319748D01*
X117950500Y-81580252D01*
X117938867Y-81521769D01*
X117894552Y-81455448D01*
X117837962Y-81417635D01*
X117833347Y-81414551D01*
X117833345Y-81414550D01*
X117828231Y-81411133D01*
X117822197Y-81409933D01*
X117822195Y-81409932D01*
X117772761Y-81400099D01*
X117772758Y-81400099D01*
X117769748Y-81399500D01*
X116030252Y-81399500D01*
X116027242Y-81400099D01*
X116027239Y-81400099D01*
X115977805Y-81409932D01*
X115977803Y-81409933D01*
X115971769Y-81411133D01*
X115966655Y-81414550D01*
X115966653Y-81414551D01*
X115962038Y-81417635D01*
X115905448Y-81455448D01*
X115861133Y-81521769D01*
X115849500Y-81580252D01*
X115849500Y-83319748D01*
X83653071Y-83319748D01*
X83585614Y-83192878D01*
X83580653Y-83183547D01*
X83580651Y-83183544D01*
X83579218Y-83180849D01*
X83449011Y-83021200D01*
X83290275Y-82889882D01*
X83109055Y-82791897D01*
X83024171Y-82765621D01*
X82915169Y-82731879D01*
X82915166Y-82731878D01*
X82912254Y-82730977D01*
X82909221Y-82730658D01*
X82909220Y-82730658D01*
X82856660Y-82725134D01*
X82707369Y-82709443D01*
X82704336Y-82709719D01*
X82704332Y-82709719D01*
X82591436Y-82719993D01*
X82502203Y-82728114D01*
X82499270Y-82728977D01*
X82499266Y-82728978D01*
X82374765Y-82765621D01*
X82304572Y-82786280D01*
X82122002Y-82881726D01*
X81961447Y-83010815D01*
X81829024Y-83168630D01*
X81729776Y-83349162D01*
X81667484Y-83545532D01*
X81667143Y-83548570D01*
X81667143Y-83548571D01*
X81650102Y-83700500D01*
X81644520Y-83750262D01*
X64546802Y-83750262D01*
X64543343Y-82297424D01*
X69099500Y-82297424D01*
X69109698Y-82411687D01*
X69162923Y-82597306D01*
X69252385Y-82768430D01*
X69374429Y-82918071D01*
X69524070Y-83040115D01*
X69695194Y-83129577D01*
X69698233Y-83130448D01*
X69698237Y-83130450D01*
X69823207Y-83166284D01*
X69880813Y-83182802D01*
X69883771Y-83183066D01*
X69993705Y-83192878D01*
X69993713Y-83192878D01*
X69995076Y-83193000D01*
X71604924Y-83193000D01*
X71606287Y-83192878D01*
X71606295Y-83192878D01*
X71716229Y-83183066D01*
X71719187Y-83182802D01*
X71776793Y-83166284D01*
X71901763Y-83130450D01*
X71901767Y-83130448D01*
X71904806Y-83129577D01*
X72075930Y-83040115D01*
X72110098Y-83012248D01*
X74849500Y-83012248D01*
X74850099Y-83015258D01*
X74850099Y-83015261D01*
X74851281Y-83021200D01*
X74861133Y-83070731D01*
X74905448Y-83137052D01*
X74910562Y-83140469D01*
X74966653Y-83177949D01*
X74966655Y-83177950D01*
X74971769Y-83181367D01*
X74977803Y-83182567D01*
X74977805Y-83182568D01*
X75027239Y-83192401D01*
X75027242Y-83192401D01*
X75030252Y-83193000D01*
X78569748Y-83193000D01*
X78572758Y-83192401D01*
X78572761Y-83192401D01*
X78622195Y-83182568D01*
X78622197Y-83182567D01*
X78628231Y-83181367D01*
X78633345Y-83177950D01*
X78633347Y-83177949D01*
X78689438Y-83140469D01*
X78694552Y-83137052D01*
X78738867Y-83070731D01*
X78748720Y-83021200D01*
X78749901Y-83015261D01*
X78749901Y-83015258D01*
X78750500Y-83012248D01*
X78750500Y-82094748D01*
X81649500Y-82094748D01*
X81661133Y-82153231D01*
X81705448Y-82219552D01*
X81710562Y-82222969D01*
X81766653Y-82260449D01*
X81766655Y-82260450D01*
X81771769Y-82263867D01*
X81777803Y-82265067D01*
X81777805Y-82265068D01*
X81827239Y-82274901D01*
X81827242Y-82274901D01*
X81830252Y-82275500D01*
X83569748Y-82275500D01*
X83572758Y-82274901D01*
X83572761Y-82274901D01*
X83622195Y-82265068D01*
X83622197Y-82265067D01*
X83628231Y-82263867D01*
X83633345Y-82260450D01*
X83633347Y-82260449D01*
X83689438Y-82222969D01*
X83694552Y-82219552D01*
X83738867Y-82153231D01*
X83750500Y-82094748D01*
X83750500Y-80355252D01*
X83749901Y-80352239D01*
X83740068Y-80302805D01*
X83740067Y-80302803D01*
X83738867Y-80296769D01*
X83694552Y-80230448D01*
X83677680Y-80219174D01*
X83633347Y-80189551D01*
X83633345Y-80189550D01*
X83628231Y-80186133D01*
X83622197Y-80184933D01*
X83622195Y-80184932D01*
X83572761Y-80175099D01*
X83572758Y-80175099D01*
X83569748Y-80174500D01*
X81830252Y-80174500D01*
X81827242Y-80175099D01*
X81827239Y-80175099D01*
X81777805Y-80184932D01*
X81777803Y-80184933D01*
X81771769Y-80186133D01*
X81766655Y-80189550D01*
X81766653Y-80189551D01*
X81722320Y-80219174D01*
X81705448Y-80230448D01*
X81661133Y-80296769D01*
X81659933Y-80302803D01*
X81659932Y-80302805D01*
X81650099Y-80352239D01*
X81649500Y-80355252D01*
X81649500Y-82094748D01*
X78750500Y-82094748D01*
X78750500Y-80172051D01*
X115566924Y-80172051D01*
X115599139Y-80314994D01*
X115600664Y-80319861D01*
X115682747Y-80522008D01*
X115685057Y-80526582D01*
X115799051Y-80712602D01*
X115802072Y-80716731D01*
X115944917Y-80881635D01*
X115948580Y-80885222D01*
X116116437Y-81024580D01*
X116120631Y-81027517D01*
X116308999Y-81137590D01*
X116313615Y-81139802D01*
X116517442Y-81217635D01*
X116522343Y-81219059D01*
X116633817Y-81241738D01*
X116643158Y-81239923D01*
X116646000Y-81235709D01*
X116646000Y-81234201D01*
X117154000Y-81234201D01*
X117157641Y-81242991D01*
X117163495Y-81245416D01*
X117180762Y-81243204D01*
X117185772Y-81242139D01*
X117394749Y-81179443D01*
X117399499Y-81177581D01*
X117595436Y-81081592D01*
X117599824Y-81078976D01*
X117777449Y-80952278D01*
X117781352Y-80948980D01*
X117935897Y-80794973D01*
X117939210Y-80791080D01*
X118066522Y-80613906D01*
X118069161Y-80609515D01*
X118165825Y-80413930D01*
X118167710Y-80409170D01*
X118178988Y-80372051D01*
X123666924Y-80372051D01*
X123699139Y-80514994D01*
X123700664Y-80519861D01*
X123782747Y-80722008D01*
X123785057Y-80726582D01*
X123899051Y-80912602D01*
X123902072Y-80916731D01*
X124044917Y-81081635D01*
X124048580Y-81085222D01*
X124216437Y-81224580D01*
X124220631Y-81227517D01*
X124408999Y-81337590D01*
X124413615Y-81339802D01*
X124617442Y-81417635D01*
X124622343Y-81419059D01*
X124733817Y-81441738D01*
X124743158Y-81439923D01*
X124746000Y-81435709D01*
X124746000Y-81434201D01*
X125254000Y-81434201D01*
X125257641Y-81442991D01*
X125263495Y-81445416D01*
X125280762Y-81443204D01*
X125285772Y-81442139D01*
X125494749Y-81379443D01*
X125499499Y-81377581D01*
X125695436Y-81281592D01*
X125699824Y-81278976D01*
X125877449Y-81152278D01*
X125881352Y-81148980D01*
X126035897Y-80994973D01*
X126039210Y-80991080D01*
X126166522Y-80813906D01*
X126169161Y-80809515D01*
X126265825Y-80613930D01*
X126267710Y-80609170D01*
X126331136Y-80400413D01*
X126332215Y-80395420D01*
X126334728Y-80376326D01*
X126332266Y-80367135D01*
X126326835Y-80364000D01*
X125266431Y-80364000D01*
X125257641Y-80367641D01*
X125254000Y-80376431D01*
X125254000Y-81434201D01*
X124746000Y-81434201D01*
X124746000Y-80376431D01*
X124742359Y-80367641D01*
X124733569Y-80364000D01*
X123677541Y-80364000D01*
X123668751Y-80367641D01*
X123666924Y-80372051D01*
X118178988Y-80372051D01*
X118231136Y-80200413D01*
X118232215Y-80195420D01*
X118234728Y-80176326D01*
X118232266Y-80167135D01*
X118226835Y-80164000D01*
X117166431Y-80164000D01*
X117157641Y-80167641D01*
X117154000Y-80176431D01*
X117154000Y-81234201D01*
X116646000Y-81234201D01*
X116646000Y-80176431D01*
X116642359Y-80167641D01*
X116633569Y-80164000D01*
X115577541Y-80164000D01*
X115568751Y-80167641D01*
X115566924Y-80172051D01*
X78750500Y-80172051D01*
X78750500Y-79846924D01*
X123663628Y-79846924D01*
X123665347Y-79852767D01*
X123671274Y-79856000D01*
X124733569Y-79856000D01*
X124742359Y-79852359D01*
X124746000Y-79843569D01*
X125254000Y-79843569D01*
X125257641Y-79852359D01*
X125266431Y-79856000D01*
X126324028Y-79856000D01*
X126332818Y-79852359D01*
X126334515Y-79848261D01*
X126290580Y-79673350D01*
X126288932Y-79668510D01*
X126201937Y-79468435D01*
X126199514Y-79463917D01*
X126081013Y-79280741D01*
X126077889Y-79276684D01*
X125931057Y-79115318D01*
X125927314Y-79111827D01*
X125756091Y-78976605D01*
X125751834Y-78973777D01*
X125560831Y-78868337D01*
X125556166Y-78866240D01*
X125350503Y-78793411D01*
X125345555Y-78792103D01*
X125266239Y-78777975D01*
X125256947Y-78780018D01*
X125254000Y-78784626D01*
X125254000Y-79843569D01*
X124746000Y-79843569D01*
X124746000Y-78787418D01*
X124742359Y-78778628D01*
X124736922Y-78776376D01*
X124686745Y-78784055D01*
X124681766Y-78785241D01*
X124474394Y-78853020D01*
X124469669Y-78855006D01*
X124276153Y-78955744D01*
X124271819Y-78958474D01*
X124097348Y-79089471D01*
X124093527Y-79092863D01*
X123942793Y-79250598D01*
X123939572Y-79254575D01*
X123816629Y-79434802D01*
X123814096Y-79439261D01*
X123722240Y-79637149D01*
X123720473Y-79641950D01*
X123663628Y-79846924D01*
X78750500Y-79846924D01*
X78750500Y-79646924D01*
X115563628Y-79646924D01*
X115565347Y-79652767D01*
X115571274Y-79656000D01*
X116633569Y-79656000D01*
X116642359Y-79652359D01*
X116646000Y-79643569D01*
X117154000Y-79643569D01*
X117157641Y-79652359D01*
X117166431Y-79656000D01*
X118224028Y-79656000D01*
X118232818Y-79652359D01*
X118234515Y-79648261D01*
X118190580Y-79473350D01*
X118188932Y-79468510D01*
X118101937Y-79268435D01*
X118099514Y-79263917D01*
X117981013Y-79080741D01*
X117977889Y-79076684D01*
X117831057Y-78915318D01*
X117827314Y-78911827D01*
X117656091Y-78776605D01*
X117651834Y-78773777D01*
X117460831Y-78668337D01*
X117456166Y-78666240D01*
X117250503Y-78593411D01*
X117245555Y-78592103D01*
X117166239Y-78577975D01*
X117156947Y-78580018D01*
X117154000Y-78584626D01*
X117154000Y-79643569D01*
X116646000Y-79643569D01*
X116646000Y-78587418D01*
X116642359Y-78578628D01*
X116636922Y-78576376D01*
X116586745Y-78584055D01*
X116581766Y-78585241D01*
X116374394Y-78653020D01*
X116369669Y-78655006D01*
X116176153Y-78755744D01*
X116171819Y-78758474D01*
X115997348Y-78889471D01*
X115993527Y-78892863D01*
X115842793Y-79050598D01*
X115839572Y-79054575D01*
X115716629Y-79234802D01*
X115714096Y-79239261D01*
X115622240Y-79437149D01*
X115620473Y-79441950D01*
X115563628Y-79646924D01*
X78750500Y-79646924D01*
X78750500Y-79472752D01*
X78749901Y-79469739D01*
X78740068Y-79420305D01*
X78740067Y-79420303D01*
X78738867Y-79414269D01*
X78694552Y-79347948D01*
X78677680Y-79336674D01*
X78633347Y-79307051D01*
X78633345Y-79307050D01*
X78628231Y-79303633D01*
X78622197Y-79302433D01*
X78622195Y-79302432D01*
X78572761Y-79292599D01*
X78572758Y-79292599D01*
X78569748Y-79292000D01*
X75030252Y-79292000D01*
X75027242Y-79292599D01*
X75027239Y-79292599D01*
X74977805Y-79302432D01*
X74977803Y-79302433D01*
X74971769Y-79303633D01*
X74966655Y-79307050D01*
X74966653Y-79307051D01*
X74922320Y-79336674D01*
X74905448Y-79347948D01*
X74861133Y-79414269D01*
X74859933Y-79420303D01*
X74859932Y-79420305D01*
X74850099Y-79469739D01*
X74849500Y-79472752D01*
X74849500Y-83012248D01*
X72110098Y-83012248D01*
X72225571Y-82918071D01*
X72347615Y-82768430D01*
X72437077Y-82597306D01*
X72490302Y-82411687D01*
X72500500Y-82297424D01*
X72500500Y-80187576D01*
X72500372Y-80186133D01*
X72490566Y-80076271D01*
X72490302Y-80073313D01*
X72437077Y-79887694D01*
X72347615Y-79716570D01*
X72225571Y-79566929D01*
X72075930Y-79444885D01*
X71904806Y-79355423D01*
X71901767Y-79354552D01*
X71901763Y-79354550D01*
X71743981Y-79309307D01*
X71719187Y-79302198D01*
X71715563Y-79301875D01*
X71606295Y-79292122D01*
X71606287Y-79292122D01*
X71604924Y-79292000D01*
X69995076Y-79292000D01*
X69993713Y-79292122D01*
X69993705Y-79292122D01*
X69884437Y-79301875D01*
X69880813Y-79302198D01*
X69856019Y-79309307D01*
X69698237Y-79354550D01*
X69698233Y-79354552D01*
X69695194Y-79355423D01*
X69524070Y-79444885D01*
X69374429Y-79566929D01*
X69252385Y-79716570D01*
X69162923Y-79887694D01*
X69109698Y-80073313D01*
X69109434Y-80076271D01*
X69099629Y-80186133D01*
X69099500Y-80187576D01*
X69099500Y-82297424D01*
X64543343Y-82297424D01*
X64531576Y-77355262D01*
X115844520Y-77355262D01*
X115845758Y-77370000D01*
X115861315Y-77555262D01*
X115861759Y-77560553D01*
X115918544Y-77758586D01*
X116012712Y-77941818D01*
X116014603Y-77944204D01*
X116014605Y-77944207D01*
X116043598Y-77980787D01*
X116140677Y-78103270D01*
X116297564Y-78236791D01*
X116477398Y-78337297D01*
X116480302Y-78338241D01*
X116480303Y-78338241D01*
X116670416Y-78400013D01*
X116670421Y-78400014D01*
X116673329Y-78400959D01*
X116676370Y-78401322D01*
X116676372Y-78401322D01*
X116738442Y-78408723D01*
X116877894Y-78425351D01*
X116880936Y-78425117D01*
X116880939Y-78425117D01*
X117080249Y-78409781D01*
X117080251Y-78409781D01*
X117083300Y-78409546D01*
X117281725Y-78354145D01*
X117284448Y-78352770D01*
X117284452Y-78352768D01*
X117462890Y-78262632D01*
X117465610Y-78261258D01*
X117468008Y-78259385D01*
X117468012Y-78259382D01*
X117615429Y-78144207D01*
X117627951Y-78134424D01*
X117656910Y-78100875D01*
X117742250Y-78002006D01*
X117762564Y-77978472D01*
X117864323Y-77799344D01*
X117929351Y-77603863D01*
X117929906Y-77599474D01*
X117935491Y-77555262D01*
X123944520Y-77555262D01*
X123961759Y-77760553D01*
X124018544Y-77958586D01*
X124112712Y-78141818D01*
X124114603Y-78144204D01*
X124114605Y-78144207D01*
X124189167Y-78238281D01*
X124240677Y-78303270D01*
X124397564Y-78436791D01*
X124577398Y-78537297D01*
X124580302Y-78538241D01*
X124580303Y-78538241D01*
X124770416Y-78600013D01*
X124770421Y-78600014D01*
X124773329Y-78600959D01*
X124776370Y-78601322D01*
X124776372Y-78601322D01*
X124838442Y-78608723D01*
X124977894Y-78625351D01*
X124980936Y-78625117D01*
X124980939Y-78625117D01*
X125180249Y-78609781D01*
X125180251Y-78609781D01*
X125183300Y-78609546D01*
X125381725Y-78554145D01*
X125384448Y-78552770D01*
X125384452Y-78552768D01*
X125562890Y-78462632D01*
X125565610Y-78461258D01*
X125568008Y-78459385D01*
X125568012Y-78459382D01*
X125702709Y-78354145D01*
X125727951Y-78334424D01*
X125756910Y-78300875D01*
X125792725Y-78259382D01*
X125862564Y-78178472D01*
X125964323Y-77999344D01*
X126029351Y-77803863D01*
X126030289Y-77796442D01*
X126054951Y-77601216D01*
X126054951Y-77601215D01*
X126055171Y-77599474D01*
X126055583Y-77570000D01*
X126055414Y-77568280D01*
X126055414Y-77568271D01*
X126035778Y-77368010D01*
X126035480Y-77364970D01*
X125975935Y-77167749D01*
X125879218Y-76985849D01*
X125749011Y-76826200D01*
X125590275Y-76694882D01*
X125409055Y-76596897D01*
X125354143Y-76579899D01*
X125215169Y-76536879D01*
X125215166Y-76536878D01*
X125212254Y-76535977D01*
X125209221Y-76535658D01*
X125209220Y-76535658D01*
X125156660Y-76530134D01*
X125007369Y-76514443D01*
X125004336Y-76514719D01*
X125004332Y-76514719D01*
X124891436Y-76524993D01*
X124802203Y-76533114D01*
X124799270Y-76533977D01*
X124799266Y-76533978D01*
X124649005Y-76578203D01*
X124604572Y-76591280D01*
X124422002Y-76686726D01*
X124261447Y-76815815D01*
X124129024Y-76973630D01*
X124068446Y-77083822D01*
X124031772Y-77150532D01*
X124029776Y-77154162D01*
X123967484Y-77350532D01*
X123967143Y-77353570D01*
X123967143Y-77353571D01*
X123965524Y-77368010D01*
X123944520Y-77555262D01*
X117935491Y-77555262D01*
X117954951Y-77401216D01*
X117954951Y-77401215D01*
X117955171Y-77399474D01*
X117955583Y-77370000D01*
X117955414Y-77368280D01*
X117955414Y-77368271D01*
X117935778Y-77168010D01*
X117935480Y-77164970D01*
X117875935Y-76967749D01*
X117831033Y-76883301D01*
X117780653Y-76788547D01*
X117780651Y-76788544D01*
X117779218Y-76785849D01*
X117649011Y-76626200D01*
X117490275Y-76494882D01*
X117309055Y-76396897D01*
X117254143Y-76379899D01*
X117115169Y-76336879D01*
X117115166Y-76336878D01*
X117112254Y-76335977D01*
X117109221Y-76335658D01*
X117109220Y-76335658D01*
X117056660Y-76330134D01*
X116907369Y-76314443D01*
X116904336Y-76314719D01*
X116904332Y-76314719D01*
X116791436Y-76324993D01*
X116702203Y-76333114D01*
X116699270Y-76333977D01*
X116699266Y-76333978D01*
X116549005Y-76378203D01*
X116504572Y-76391280D01*
X116322002Y-76486726D01*
X116161447Y-76615815D01*
X116029024Y-76773630D01*
X115929776Y-76954162D01*
X115867484Y-77150532D01*
X115867143Y-77153570D01*
X115867143Y-77153571D01*
X115845051Y-77350532D01*
X115844520Y-77355262D01*
X64531576Y-77355262D01*
X64530662Y-76971284D01*
X64525529Y-74815262D01*
X115844520Y-74815262D01*
X115845758Y-74830000D01*
X115861315Y-75015262D01*
X115861759Y-75020553D01*
X115918544Y-75218586D01*
X116012712Y-75401818D01*
X116014603Y-75404204D01*
X116014605Y-75404207D01*
X116043598Y-75440787D01*
X116140677Y-75563270D01*
X116297564Y-75696791D01*
X116477398Y-75797297D01*
X116480302Y-75798241D01*
X116480303Y-75798241D01*
X116670416Y-75860013D01*
X116670421Y-75860014D01*
X116673329Y-75860959D01*
X116676370Y-75861322D01*
X116676372Y-75861322D01*
X116738442Y-75868723D01*
X116877894Y-75885351D01*
X116880936Y-75885117D01*
X116880939Y-75885117D01*
X117080249Y-75869781D01*
X117080251Y-75869781D01*
X117083300Y-75869546D01*
X117281725Y-75814145D01*
X117284448Y-75812770D01*
X117284452Y-75812768D01*
X117462890Y-75722632D01*
X117465610Y-75721258D01*
X117468008Y-75719385D01*
X117468012Y-75719382D01*
X117615429Y-75604207D01*
X117627951Y-75594424D01*
X117656910Y-75560875D01*
X117742250Y-75462006D01*
X117762564Y-75438472D01*
X117864323Y-75259344D01*
X117929351Y-75063863D01*
X117929906Y-75059474D01*
X117935491Y-75015262D01*
X123944520Y-75015262D01*
X123961759Y-75220553D01*
X124018544Y-75418586D01*
X124112712Y-75601818D01*
X124114603Y-75604204D01*
X124114605Y-75604207D01*
X124189167Y-75698281D01*
X124240677Y-75763270D01*
X124397564Y-75896791D01*
X124577398Y-75997297D01*
X124580302Y-75998241D01*
X124580303Y-75998241D01*
X124770416Y-76060013D01*
X124770421Y-76060014D01*
X124773329Y-76060959D01*
X124776370Y-76061322D01*
X124776372Y-76061322D01*
X124838442Y-76068723D01*
X124977894Y-76085351D01*
X124980936Y-76085117D01*
X124980939Y-76085117D01*
X125180249Y-76069781D01*
X125180251Y-76069781D01*
X125183300Y-76069546D01*
X125381725Y-76014145D01*
X125384448Y-76012770D01*
X125384452Y-76012768D01*
X125562890Y-75922632D01*
X125565610Y-75921258D01*
X125568008Y-75919385D01*
X125568012Y-75919382D01*
X125702709Y-75814145D01*
X125727951Y-75794424D01*
X125756910Y-75760875D01*
X125792725Y-75719382D01*
X125862564Y-75638472D01*
X125964323Y-75459344D01*
X126029351Y-75263863D01*
X126030289Y-75256442D01*
X126054951Y-75061216D01*
X126054951Y-75061215D01*
X126055171Y-75059474D01*
X126055583Y-75030000D01*
X126055414Y-75028280D01*
X126055414Y-75028271D01*
X126035778Y-74828010D01*
X126035480Y-74824970D01*
X125975935Y-74627749D01*
X125879218Y-74445849D01*
X125749011Y-74286200D01*
X125590275Y-74154882D01*
X125409055Y-74056897D01*
X125354143Y-74039899D01*
X125215169Y-73996879D01*
X125215166Y-73996878D01*
X125212254Y-73995977D01*
X125209221Y-73995658D01*
X125209220Y-73995658D01*
X125156660Y-73990134D01*
X125007369Y-73974443D01*
X125004336Y-73974719D01*
X125004332Y-73974719D01*
X124891436Y-73984993D01*
X124802203Y-73993114D01*
X124799270Y-73993977D01*
X124799266Y-73993978D01*
X124649005Y-74038203D01*
X124604572Y-74051280D01*
X124422002Y-74146726D01*
X124261447Y-74275815D01*
X124129024Y-74433630D01*
X124068446Y-74543822D01*
X124031772Y-74610532D01*
X124029776Y-74614162D01*
X123967484Y-74810532D01*
X123967143Y-74813570D01*
X123967143Y-74813571D01*
X123965524Y-74828010D01*
X123944520Y-75015262D01*
X117935491Y-75015262D01*
X117954951Y-74861216D01*
X117954951Y-74861215D01*
X117955171Y-74859474D01*
X117955583Y-74830000D01*
X117955414Y-74828280D01*
X117955414Y-74828271D01*
X117935778Y-74628010D01*
X117935480Y-74624970D01*
X117875935Y-74427749D01*
X117831033Y-74343301D01*
X117780653Y-74248547D01*
X117780651Y-74248544D01*
X117779218Y-74245849D01*
X117649011Y-74086200D01*
X117490275Y-73954882D01*
X117309055Y-73856897D01*
X117254143Y-73839899D01*
X117115169Y-73796879D01*
X117115166Y-73796878D01*
X117112254Y-73795977D01*
X117109221Y-73795658D01*
X117109220Y-73795658D01*
X117056660Y-73790134D01*
X116907369Y-73774443D01*
X116904336Y-73774719D01*
X116904332Y-73774719D01*
X116791436Y-73784993D01*
X116702203Y-73793114D01*
X116699270Y-73793977D01*
X116699266Y-73793978D01*
X116549005Y-73838203D01*
X116504572Y-73851280D01*
X116322002Y-73946726D01*
X116161447Y-74075815D01*
X116029024Y-74233630D01*
X115929776Y-74414162D01*
X115867484Y-74610532D01*
X115867143Y-74613570D01*
X115867143Y-74613571D01*
X115845051Y-74810532D01*
X115844520Y-74815262D01*
X64525529Y-74815262D01*
X64519481Y-72275262D01*
X115844520Y-72275262D01*
X115845758Y-72290000D01*
X115861315Y-72475262D01*
X115861759Y-72480553D01*
X115918544Y-72678586D01*
X116012712Y-72861818D01*
X116014603Y-72864204D01*
X116014605Y-72864207D01*
X116043598Y-72900787D01*
X116140677Y-73023270D01*
X116297564Y-73156791D01*
X116477398Y-73257297D01*
X116480302Y-73258241D01*
X116480303Y-73258241D01*
X116670416Y-73320013D01*
X116670421Y-73320014D01*
X116673329Y-73320959D01*
X116676370Y-73321322D01*
X116676372Y-73321322D01*
X116738442Y-73328723D01*
X116877894Y-73345351D01*
X116880936Y-73345117D01*
X116880939Y-73345117D01*
X117080249Y-73329781D01*
X117080251Y-73329781D01*
X117083300Y-73329546D01*
X117281725Y-73274145D01*
X117284448Y-73272770D01*
X117284452Y-73272768D01*
X117462890Y-73182632D01*
X117465610Y-73181258D01*
X117468008Y-73179385D01*
X117468012Y-73179382D01*
X117615429Y-73064207D01*
X117627951Y-73054424D01*
X117656910Y-73020875D01*
X117742250Y-72922006D01*
X117762564Y-72898472D01*
X117864323Y-72719344D01*
X117929351Y-72523863D01*
X117929906Y-72519474D01*
X117935491Y-72475262D01*
X123944520Y-72475262D01*
X123961759Y-72680553D01*
X124018544Y-72878586D01*
X124112712Y-73061818D01*
X124114603Y-73064204D01*
X124114605Y-73064207D01*
X124189167Y-73158281D01*
X124240677Y-73223270D01*
X124397564Y-73356791D01*
X124577398Y-73457297D01*
X124580302Y-73458241D01*
X124580303Y-73458241D01*
X124770416Y-73520013D01*
X124770421Y-73520014D01*
X124773329Y-73520959D01*
X124776370Y-73521322D01*
X124776372Y-73521322D01*
X124838442Y-73528723D01*
X124977894Y-73545351D01*
X124980936Y-73545117D01*
X124980939Y-73545117D01*
X125180249Y-73529781D01*
X125180251Y-73529781D01*
X125183300Y-73529546D01*
X125381725Y-73474145D01*
X125384448Y-73472770D01*
X125384452Y-73472768D01*
X125562890Y-73382632D01*
X125565610Y-73381258D01*
X125568008Y-73379385D01*
X125568012Y-73379382D01*
X125702709Y-73274145D01*
X125727951Y-73254424D01*
X125756910Y-73220875D01*
X125792725Y-73179382D01*
X125862564Y-73098472D01*
X125964323Y-72919344D01*
X126029351Y-72723863D01*
X126030289Y-72716442D01*
X126054951Y-72521216D01*
X126054951Y-72521215D01*
X126055171Y-72519474D01*
X126055583Y-72490000D01*
X126055414Y-72488280D01*
X126055414Y-72488271D01*
X126035778Y-72288010D01*
X126035480Y-72284970D01*
X125975935Y-72087749D01*
X125879218Y-71905849D01*
X125749011Y-71746200D01*
X125590275Y-71614882D01*
X125409055Y-71516897D01*
X125354143Y-71499899D01*
X125215169Y-71456879D01*
X125215166Y-71456878D01*
X125212254Y-71455977D01*
X125209221Y-71455658D01*
X125209220Y-71455658D01*
X125156660Y-71450134D01*
X125007369Y-71434443D01*
X125004336Y-71434719D01*
X125004332Y-71434719D01*
X124891436Y-71444993D01*
X124802203Y-71453114D01*
X124799270Y-71453977D01*
X124799266Y-71453978D01*
X124649005Y-71498203D01*
X124604572Y-71511280D01*
X124422002Y-71606726D01*
X124261447Y-71735815D01*
X124129024Y-71893630D01*
X124068446Y-72003822D01*
X124031772Y-72070532D01*
X124029776Y-72074162D01*
X123967484Y-72270532D01*
X123967143Y-72273570D01*
X123967143Y-72273571D01*
X123965524Y-72288010D01*
X123944520Y-72475262D01*
X117935491Y-72475262D01*
X117954951Y-72321216D01*
X117954951Y-72321215D01*
X117955171Y-72319474D01*
X117955583Y-72290000D01*
X117955414Y-72288280D01*
X117955414Y-72288271D01*
X117935778Y-72088010D01*
X117935480Y-72084970D01*
X117875935Y-71887749D01*
X117831033Y-71803301D01*
X117780653Y-71708547D01*
X117780651Y-71708544D01*
X117779218Y-71705849D01*
X117649011Y-71546200D01*
X117490275Y-71414882D01*
X117309055Y-71316897D01*
X117254143Y-71299899D01*
X117115169Y-71256879D01*
X117115166Y-71256878D01*
X117112254Y-71255977D01*
X117109221Y-71255658D01*
X117109220Y-71255658D01*
X117056660Y-71250134D01*
X116907369Y-71234443D01*
X116904336Y-71234719D01*
X116904332Y-71234719D01*
X116791436Y-71244993D01*
X116702203Y-71253114D01*
X116699270Y-71253977D01*
X116699266Y-71253978D01*
X116549005Y-71298203D01*
X116504572Y-71311280D01*
X116322002Y-71406726D01*
X116161447Y-71535815D01*
X116029024Y-71693630D01*
X115929776Y-71874162D01*
X115867484Y-72070532D01*
X115867143Y-72073570D01*
X115867143Y-72073571D01*
X115845051Y-72270532D01*
X115844520Y-72275262D01*
X64519481Y-72275262D01*
X64513433Y-69735262D01*
X115844520Y-69735262D01*
X115845758Y-69750000D01*
X115861315Y-69935262D01*
X115861759Y-69940553D01*
X115918544Y-70138586D01*
X116012712Y-70321818D01*
X116014603Y-70324204D01*
X116014605Y-70324207D01*
X116043598Y-70360787D01*
X116140677Y-70483270D01*
X116297564Y-70616791D01*
X116477398Y-70717297D01*
X116480302Y-70718241D01*
X116480303Y-70718241D01*
X116670416Y-70780013D01*
X116670421Y-70780014D01*
X116673329Y-70780959D01*
X116676370Y-70781322D01*
X116676372Y-70781322D01*
X116738442Y-70788723D01*
X116877894Y-70805351D01*
X116880936Y-70805117D01*
X116880939Y-70805117D01*
X117080249Y-70789781D01*
X117080251Y-70789781D01*
X117083300Y-70789546D01*
X117281725Y-70734145D01*
X117284448Y-70732770D01*
X117284452Y-70732768D01*
X117462890Y-70642632D01*
X117465610Y-70641258D01*
X117468008Y-70639385D01*
X117468012Y-70639382D01*
X117615429Y-70524207D01*
X117627951Y-70514424D01*
X117656910Y-70480875D01*
X117742250Y-70382006D01*
X117762564Y-70358472D01*
X117864323Y-70179344D01*
X117929351Y-69983863D01*
X117929906Y-69979474D01*
X117935491Y-69935262D01*
X123944520Y-69935262D01*
X123961759Y-70140553D01*
X124018544Y-70338586D01*
X124112712Y-70521818D01*
X124114603Y-70524204D01*
X124114605Y-70524207D01*
X124189167Y-70618281D01*
X124240677Y-70683270D01*
X124397564Y-70816791D01*
X124577398Y-70917297D01*
X124580302Y-70918241D01*
X124580303Y-70918241D01*
X124770416Y-70980013D01*
X124770421Y-70980014D01*
X124773329Y-70980959D01*
X124776370Y-70981322D01*
X124776372Y-70981322D01*
X124838442Y-70988723D01*
X124977894Y-71005351D01*
X124980936Y-71005117D01*
X124980939Y-71005117D01*
X125180249Y-70989781D01*
X125180251Y-70989781D01*
X125183300Y-70989546D01*
X125381725Y-70934145D01*
X125384448Y-70932770D01*
X125384452Y-70932768D01*
X125562890Y-70842632D01*
X125565610Y-70841258D01*
X125568008Y-70839385D01*
X125568012Y-70839382D01*
X125702709Y-70734145D01*
X125727951Y-70714424D01*
X125756910Y-70680875D01*
X125792725Y-70639382D01*
X125862564Y-70558472D01*
X125964323Y-70379344D01*
X126029351Y-70183863D01*
X126030289Y-70176442D01*
X126054951Y-69981216D01*
X126054951Y-69981215D01*
X126055171Y-69979474D01*
X126055583Y-69950000D01*
X126055414Y-69948280D01*
X126055414Y-69948271D01*
X126035778Y-69748010D01*
X126035480Y-69744970D01*
X125975935Y-69547749D01*
X125879218Y-69365849D01*
X125749011Y-69206200D01*
X125590275Y-69074882D01*
X125409055Y-68976897D01*
X125354143Y-68959899D01*
X125215169Y-68916879D01*
X125215166Y-68916878D01*
X125212254Y-68915977D01*
X125209221Y-68915658D01*
X125209220Y-68915658D01*
X125156660Y-68910134D01*
X125007369Y-68894443D01*
X125004336Y-68894719D01*
X125004332Y-68894719D01*
X124891436Y-68904993D01*
X124802203Y-68913114D01*
X124799270Y-68913977D01*
X124799266Y-68913978D01*
X124649005Y-68958203D01*
X124604572Y-68971280D01*
X124422002Y-69066726D01*
X124261447Y-69195815D01*
X124129024Y-69353630D01*
X124068446Y-69463822D01*
X124031772Y-69530532D01*
X124029776Y-69534162D01*
X123967484Y-69730532D01*
X123967143Y-69733570D01*
X123967143Y-69733571D01*
X123965524Y-69748010D01*
X123944520Y-69935262D01*
X117935491Y-69935262D01*
X117954951Y-69781216D01*
X117954951Y-69781215D01*
X117955171Y-69779474D01*
X117955583Y-69750000D01*
X117955414Y-69748280D01*
X117955414Y-69748271D01*
X117935778Y-69548010D01*
X117935480Y-69544970D01*
X117875935Y-69347749D01*
X117831033Y-69263301D01*
X117780653Y-69168547D01*
X117780651Y-69168544D01*
X117779218Y-69165849D01*
X117649011Y-69006200D01*
X117490275Y-68874882D01*
X117309055Y-68776897D01*
X117254143Y-68759899D01*
X117115169Y-68716879D01*
X117115166Y-68716878D01*
X117112254Y-68715977D01*
X117109221Y-68715658D01*
X117109220Y-68715658D01*
X117056660Y-68710134D01*
X116907369Y-68694443D01*
X116904336Y-68694719D01*
X116904332Y-68694719D01*
X116791436Y-68704993D01*
X116702203Y-68713114D01*
X116699270Y-68713977D01*
X116699266Y-68713978D01*
X116549005Y-68758203D01*
X116504572Y-68771280D01*
X116322002Y-68866726D01*
X116161447Y-68995815D01*
X116029024Y-69153630D01*
X115929776Y-69334162D01*
X115867484Y-69530532D01*
X115867143Y-69533570D01*
X115867143Y-69533571D01*
X115845051Y-69730532D01*
X115844520Y-69735262D01*
X64513433Y-69735262D01*
X64505254Y-66300000D01*
X65694532Y-66300000D01*
X65694770Y-66302720D01*
X65707394Y-66447008D01*
X65714365Y-66526692D01*
X65715070Y-66529325D01*
X65715071Y-66529328D01*
X65717638Y-66538906D01*
X65773261Y-66746496D01*
X65869432Y-66952734D01*
X65999953Y-67139139D01*
X66160861Y-67300047D01*
X66347266Y-67430568D01*
X66349737Y-67431720D01*
X66349740Y-67431722D01*
X66461203Y-67483698D01*
X66553504Y-67526739D01*
X66556137Y-67527444D01*
X66556141Y-67527446D01*
X66770672Y-67584929D01*
X66770675Y-67584930D01*
X66773308Y-67585635D01*
X66776024Y-67585873D01*
X66776026Y-67585873D01*
X66941864Y-67600382D01*
X66941870Y-67600382D01*
X66943216Y-67600500D01*
X67056784Y-67600500D01*
X67058130Y-67600382D01*
X67058136Y-67600382D01*
X67223974Y-67585873D01*
X67223976Y-67585873D01*
X67226692Y-67585635D01*
X67229325Y-67584930D01*
X67229328Y-67584929D01*
X67443859Y-67527446D01*
X67443863Y-67527444D01*
X67446496Y-67526739D01*
X67538797Y-67483698D01*
X67650260Y-67431722D01*
X67650263Y-67431720D01*
X67652734Y-67430568D01*
X67839139Y-67300047D01*
X68000047Y-67139139D01*
X68130568Y-66952734D01*
X68226739Y-66746496D01*
X68282363Y-66538906D01*
X68284929Y-66529328D01*
X68284930Y-66529325D01*
X68285635Y-66526692D01*
X68292607Y-66447008D01*
X68305230Y-66302720D01*
X68305468Y-66300000D01*
X68289757Y-66120420D01*
X68287712Y-66097051D01*
X105666924Y-66097051D01*
X105699139Y-66239994D01*
X105700664Y-66244861D01*
X105782747Y-66447008D01*
X105785057Y-66451582D01*
X105899051Y-66637602D01*
X105902072Y-66641731D01*
X106044917Y-66806635D01*
X106048580Y-66810222D01*
X106216437Y-66949580D01*
X106220631Y-66952517D01*
X106408999Y-67062590D01*
X106413615Y-67064802D01*
X106617442Y-67142635D01*
X106622343Y-67144059D01*
X106733817Y-67166738D01*
X106743158Y-67164923D01*
X106746000Y-67160709D01*
X106746000Y-67159201D01*
X107254000Y-67159201D01*
X107257641Y-67167991D01*
X107263495Y-67170416D01*
X107280762Y-67168204D01*
X107285772Y-67167139D01*
X107494749Y-67104443D01*
X107499499Y-67102581D01*
X107695436Y-67006592D01*
X107699824Y-67003976D01*
X107877449Y-66877278D01*
X107881352Y-66873980D01*
X108035897Y-66719973D01*
X108039210Y-66716080D01*
X108166522Y-66538906D01*
X108169161Y-66534515D01*
X108265825Y-66338930D01*
X108267710Y-66334170D01*
X108331136Y-66125413D01*
X108332215Y-66120420D01*
X108334728Y-66101326D01*
X108332266Y-66092135D01*
X108326835Y-66089000D01*
X107266431Y-66089000D01*
X107257641Y-66092641D01*
X107254000Y-66101431D01*
X107254000Y-67159201D01*
X106746000Y-67159201D01*
X106746000Y-66101431D01*
X106742359Y-66092641D01*
X106733569Y-66089000D01*
X105677541Y-66089000D01*
X105668751Y-66092641D01*
X105666924Y-66097051D01*
X68287712Y-66097051D01*
X68285873Y-66076026D01*
X68285873Y-66076024D01*
X68285635Y-66073308D01*
X68226739Y-65853504D01*
X68167627Y-65726739D01*
X68131722Y-65649740D01*
X68131720Y-65649737D01*
X68130568Y-65647266D01*
X68077813Y-65571924D01*
X105663628Y-65571924D01*
X105665347Y-65577767D01*
X105671274Y-65581000D01*
X106733569Y-65581000D01*
X106742359Y-65577359D01*
X106746000Y-65568569D01*
X107254000Y-65568569D01*
X107257641Y-65577359D01*
X107266431Y-65581000D01*
X108324028Y-65581000D01*
X108332818Y-65577359D01*
X108334515Y-65573261D01*
X108290580Y-65398350D01*
X108288932Y-65393510D01*
X108201937Y-65193435D01*
X108199514Y-65188917D01*
X108081013Y-65005741D01*
X108077889Y-65001684D01*
X107931057Y-64840318D01*
X107927314Y-64836827D01*
X107756091Y-64701605D01*
X107751834Y-64698777D01*
X107560831Y-64593337D01*
X107556166Y-64591240D01*
X107350503Y-64518411D01*
X107345555Y-64517103D01*
X107266239Y-64502975D01*
X107256947Y-64505018D01*
X107254000Y-64509626D01*
X107254000Y-65568569D01*
X106746000Y-65568569D01*
X106746000Y-64512418D01*
X106742359Y-64503628D01*
X106736922Y-64501376D01*
X106686745Y-64509055D01*
X106681766Y-64510241D01*
X106474394Y-64578020D01*
X106469669Y-64580006D01*
X106276153Y-64680744D01*
X106271819Y-64683474D01*
X106097348Y-64814471D01*
X106093527Y-64817863D01*
X105942793Y-64975598D01*
X105939572Y-64979575D01*
X105816629Y-65159802D01*
X105814096Y-65164261D01*
X105722240Y-65362149D01*
X105720473Y-65366950D01*
X105663628Y-65571924D01*
X68077813Y-65571924D01*
X68000047Y-65460861D01*
X67839139Y-65299953D01*
X67652734Y-65169432D01*
X67650263Y-65168280D01*
X67650260Y-65168278D01*
X67538797Y-65116302D01*
X67446496Y-65073261D01*
X67443863Y-65072556D01*
X67443859Y-65072554D01*
X67229328Y-65015071D01*
X67229325Y-65015070D01*
X67226692Y-65014365D01*
X67223976Y-65014127D01*
X67223974Y-65014127D01*
X67058136Y-64999618D01*
X67058130Y-64999618D01*
X67056784Y-64999500D01*
X66943216Y-64999500D01*
X66941870Y-64999618D01*
X66941864Y-64999618D01*
X66776026Y-65014127D01*
X66776024Y-65014127D01*
X66773308Y-65014365D01*
X66770675Y-65015070D01*
X66770672Y-65015071D01*
X66556141Y-65072554D01*
X66556137Y-65072556D01*
X66553504Y-65073261D01*
X66461203Y-65116302D01*
X66349740Y-65168278D01*
X66349737Y-65168280D01*
X66347266Y-65169432D01*
X66160861Y-65299953D01*
X65999953Y-65460861D01*
X65869432Y-65647266D01*
X65868280Y-65649737D01*
X65868278Y-65649740D01*
X65832373Y-65726739D01*
X65773261Y-65853504D01*
X65714365Y-66073308D01*
X65714127Y-66076024D01*
X65714127Y-66076026D01*
X65710243Y-66120420D01*
X65694532Y-66300000D01*
X64505254Y-66300000D01*
X64500968Y-64500000D01*
X122594532Y-64500000D01*
X122614365Y-64726692D01*
X122615070Y-64729325D01*
X122615071Y-64729328D01*
X122644811Y-64840318D01*
X122673261Y-64946496D01*
X122674414Y-64948968D01*
X122732911Y-65074414D01*
X122769432Y-65152734D01*
X122899953Y-65339139D01*
X123060861Y-65500047D01*
X123247266Y-65630568D01*
X123249737Y-65631720D01*
X123249740Y-65631722D01*
X123288380Y-65649740D01*
X123453504Y-65726739D01*
X123456137Y-65727444D01*
X123456141Y-65727446D01*
X123670672Y-65784929D01*
X123670675Y-65784930D01*
X123673308Y-65785635D01*
X123676024Y-65785873D01*
X123676026Y-65785873D01*
X123841864Y-65800382D01*
X123841870Y-65800382D01*
X123843216Y-65800500D01*
X123956784Y-65800500D01*
X123958130Y-65800382D01*
X123958136Y-65800382D01*
X124123974Y-65785873D01*
X124123976Y-65785873D01*
X124126692Y-65785635D01*
X124129325Y-65784930D01*
X124129328Y-65784929D01*
X124343859Y-65727446D01*
X124343863Y-65727444D01*
X124346496Y-65726739D01*
X124511620Y-65649740D01*
X124550260Y-65631722D01*
X124550263Y-65631720D01*
X124552734Y-65630568D01*
X124739139Y-65500047D01*
X124900047Y-65339139D01*
X125030568Y-65152734D01*
X125067090Y-65074414D01*
X125125586Y-64948968D01*
X125126739Y-64946496D01*
X125155190Y-64840318D01*
X125184929Y-64729328D01*
X125184930Y-64729325D01*
X125185635Y-64726692D01*
X125205468Y-64500000D01*
X125202722Y-64468616D01*
X125185873Y-64276026D01*
X125185873Y-64276024D01*
X125185635Y-64273308D01*
X125182685Y-64262297D01*
X125127446Y-64056141D01*
X125127444Y-64056137D01*
X125126739Y-64053504D01*
X125057857Y-63905787D01*
X125031722Y-63849740D01*
X125031720Y-63849737D01*
X125030568Y-63847266D01*
X124900047Y-63660861D01*
X124739139Y-63499953D01*
X124552734Y-63369432D01*
X124550263Y-63368280D01*
X124550260Y-63368278D01*
X124389407Y-63293271D01*
X124346496Y-63273261D01*
X124343863Y-63272556D01*
X124343859Y-63272554D01*
X124129328Y-63215071D01*
X124129325Y-63215070D01*
X124126692Y-63214365D01*
X124123976Y-63214127D01*
X124123974Y-63214127D01*
X123958136Y-63199618D01*
X123958130Y-63199618D01*
X123956784Y-63199500D01*
X123843216Y-63199500D01*
X123841870Y-63199618D01*
X123841864Y-63199618D01*
X123676026Y-63214127D01*
X123676024Y-63214127D01*
X123673308Y-63214365D01*
X123670675Y-63215070D01*
X123670672Y-63215071D01*
X123456141Y-63272554D01*
X123456137Y-63272556D01*
X123453504Y-63273261D01*
X123410593Y-63293271D01*
X123249740Y-63368278D01*
X123249737Y-63368280D01*
X123247266Y-63369432D01*
X123060861Y-63499953D01*
X122899953Y-63660861D01*
X122769432Y-63847266D01*
X122768280Y-63849737D01*
X122768278Y-63849740D01*
X122742143Y-63905787D01*
X122673261Y-64053504D01*
X122672556Y-64056137D01*
X122672554Y-64056141D01*
X122617315Y-64262297D01*
X122614365Y-64273308D01*
X122614127Y-64276024D01*
X122614127Y-64276026D01*
X122597278Y-64468616D01*
X122594532Y-64500000D01*
X64500968Y-64500000D01*
X64498064Y-63280262D01*
X105944520Y-63280262D01*
X105945758Y-63295000D01*
X105952140Y-63370999D01*
X105961759Y-63485553D01*
X106018544Y-63683586D01*
X106112712Y-63866818D01*
X106114603Y-63869204D01*
X106114605Y-63869207D01*
X106143598Y-63905787D01*
X106240677Y-64028270D01*
X106397564Y-64161791D01*
X106577398Y-64262297D01*
X106580302Y-64263241D01*
X106580303Y-64263241D01*
X106770416Y-64325013D01*
X106770421Y-64325014D01*
X106773329Y-64325959D01*
X106776370Y-64326322D01*
X106776372Y-64326322D01*
X106838442Y-64333723D01*
X106977894Y-64350351D01*
X106980936Y-64350117D01*
X106980939Y-64350117D01*
X107180249Y-64334781D01*
X107180251Y-64334781D01*
X107183300Y-64334546D01*
X107381725Y-64279145D01*
X107384448Y-64277770D01*
X107384452Y-64277768D01*
X107562890Y-64187632D01*
X107565610Y-64186258D01*
X107568008Y-64184385D01*
X107568012Y-64184382D01*
X107653014Y-64117971D01*
X107727951Y-64059424D01*
X107756910Y-64025875D01*
X107780980Y-63997989D01*
X107862564Y-63903472D01*
X107964323Y-63724344D01*
X108029351Y-63528863D01*
X108034452Y-63488489D01*
X108054951Y-63326216D01*
X108054951Y-63326215D01*
X108055171Y-63324474D01*
X108055583Y-63295000D01*
X108055414Y-63293280D01*
X108055414Y-63293271D01*
X108035778Y-63093010D01*
X108035480Y-63089970D01*
X107975935Y-62892749D01*
X107879218Y-62710849D01*
X107749011Y-62551200D01*
X107590275Y-62419882D01*
X107409055Y-62321897D01*
X107354143Y-62304899D01*
X107215169Y-62261879D01*
X107215166Y-62261878D01*
X107212254Y-62260977D01*
X107209221Y-62260658D01*
X107209220Y-62260658D01*
X107156660Y-62255134D01*
X107007369Y-62239443D01*
X107004336Y-62239719D01*
X107004332Y-62239719D01*
X106891436Y-62249993D01*
X106802203Y-62258114D01*
X106799270Y-62258977D01*
X106799266Y-62258978D01*
X106649005Y-62303203D01*
X106604572Y-62316280D01*
X106422002Y-62411726D01*
X106261447Y-62540815D01*
X106129024Y-62698630D01*
X106029776Y-62879162D01*
X105967484Y-63075532D01*
X105967143Y-63078570D01*
X105967143Y-63078571D01*
X105945385Y-63272554D01*
X105944520Y-63280262D01*
X64498064Y-63280262D01*
X64492017Y-60740262D01*
X105944520Y-60740262D01*
X105961759Y-60945553D01*
X106018544Y-61143586D01*
X106112712Y-61326818D01*
X106114603Y-61329204D01*
X106114605Y-61329207D01*
X106143598Y-61365787D01*
X106240677Y-61488270D01*
X106397564Y-61621791D01*
X106577398Y-61722297D01*
X106580302Y-61723241D01*
X106580303Y-61723241D01*
X106770416Y-61785013D01*
X106770421Y-61785014D01*
X106773329Y-61785959D01*
X106776370Y-61786322D01*
X106776372Y-61786322D01*
X106838442Y-61793723D01*
X106977894Y-61810351D01*
X106980936Y-61810117D01*
X106980939Y-61810117D01*
X107180249Y-61794781D01*
X107180251Y-61794781D01*
X107183300Y-61794546D01*
X107381725Y-61739145D01*
X107384448Y-61737770D01*
X107384452Y-61737768D01*
X107562890Y-61647632D01*
X107565610Y-61646258D01*
X107568008Y-61644385D01*
X107568012Y-61644382D01*
X107653014Y-61577971D01*
X107727951Y-61519424D01*
X107756910Y-61485875D01*
X107780980Y-61457989D01*
X107862564Y-61363472D01*
X107964323Y-61184344D01*
X108029351Y-60988863D01*
X108034452Y-60948489D01*
X108054951Y-60786216D01*
X108054951Y-60786215D01*
X108055171Y-60784474D01*
X108055583Y-60755000D01*
X108055414Y-60753280D01*
X108055414Y-60753271D01*
X108050191Y-60700000D01*
X121394318Y-60700000D01*
X121414956Y-60856762D01*
X121475464Y-61002841D01*
X121571718Y-61128282D01*
X121697159Y-61224536D01*
X121700942Y-61226103D01*
X121839452Y-61283476D01*
X121839453Y-61283476D01*
X121843238Y-61285044D01*
X121847300Y-61285579D01*
X121847301Y-61285579D01*
X121995936Y-61305147D01*
X122000000Y-61305682D01*
X122004064Y-61305147D01*
X122152699Y-61285579D01*
X122152700Y-61285579D01*
X122156762Y-61285044D01*
X122160547Y-61283476D01*
X122160548Y-61283476D01*
X122299058Y-61226103D01*
X122302841Y-61224536D01*
X122428282Y-61128282D01*
X122524536Y-61002841D01*
X122585044Y-60856762D01*
X122605682Y-60700000D01*
X122585044Y-60543238D01*
X122524536Y-60397159D01*
X122428282Y-60271718D01*
X122302841Y-60175464D01*
X122298213Y-60173547D01*
X122160548Y-60116524D01*
X122160547Y-60116524D01*
X122156762Y-60114956D01*
X122152700Y-60114421D01*
X122152699Y-60114421D01*
X122004064Y-60094853D01*
X122000000Y-60094318D01*
X121995936Y-60094853D01*
X121847301Y-60114421D01*
X121847300Y-60114421D01*
X121843238Y-60114956D01*
X121839453Y-60116524D01*
X121839452Y-60116524D01*
X121701787Y-60173547D01*
X121697159Y-60175464D01*
X121571718Y-60271718D01*
X121475464Y-60397159D01*
X121414956Y-60543238D01*
X121394318Y-60700000D01*
X108050191Y-60700000D01*
X108035778Y-60553010D01*
X108035480Y-60549970D01*
X107975935Y-60352749D01*
X107931033Y-60268301D01*
X107880653Y-60173547D01*
X107880651Y-60173544D01*
X107879218Y-60170849D01*
X107749011Y-60011200D01*
X107590275Y-59879882D01*
X107409055Y-59781897D01*
X107354143Y-59764899D01*
X107215169Y-59721879D01*
X107215166Y-59721878D01*
X107212254Y-59720977D01*
X107209221Y-59720658D01*
X107209220Y-59720658D01*
X107156660Y-59715134D01*
X107007369Y-59699443D01*
X107004336Y-59699719D01*
X107004332Y-59699719D01*
X106891436Y-59709993D01*
X106802203Y-59718114D01*
X106799270Y-59718977D01*
X106799266Y-59718978D01*
X106649005Y-59763203D01*
X106604572Y-59776280D01*
X106422002Y-59871726D01*
X106261447Y-60000815D01*
X106129024Y-60158630D01*
X106029776Y-60339162D01*
X105967484Y-60535532D01*
X105967143Y-60538570D01*
X105967143Y-60538571D01*
X105965524Y-60553010D01*
X105944520Y-60740262D01*
X64492017Y-60740262D01*
X64485970Y-58200262D01*
X105944520Y-58200262D01*
X105961759Y-58405553D01*
X106018544Y-58603586D01*
X106112712Y-58786818D01*
X106114603Y-58789204D01*
X106114605Y-58789207D01*
X106143598Y-58825787D01*
X106240677Y-58948270D01*
X106397564Y-59081791D01*
X106577398Y-59182297D01*
X106580302Y-59183241D01*
X106580303Y-59183241D01*
X106770416Y-59245013D01*
X106770421Y-59245014D01*
X106773329Y-59245959D01*
X106776370Y-59246322D01*
X106776372Y-59246322D01*
X106838442Y-59253723D01*
X106977894Y-59270351D01*
X106980936Y-59270117D01*
X106980939Y-59270117D01*
X107180249Y-59254781D01*
X107180251Y-59254781D01*
X107183300Y-59254546D01*
X107381725Y-59199145D01*
X107384448Y-59197770D01*
X107384452Y-59197768D01*
X107562890Y-59107632D01*
X107565610Y-59106258D01*
X107568008Y-59104385D01*
X107568012Y-59104382D01*
X107653014Y-59037971D01*
X107727951Y-58979424D01*
X107756910Y-58945875D01*
X107780980Y-58917989D01*
X107862564Y-58823472D01*
X107964323Y-58644344D01*
X108029351Y-58448863D01*
X108034452Y-58408489D01*
X108054951Y-58246216D01*
X108054951Y-58246215D01*
X108055171Y-58244474D01*
X108055583Y-58215000D01*
X108055414Y-58213280D01*
X108055414Y-58213271D01*
X108035778Y-58013010D01*
X108035480Y-58009970D01*
X107975935Y-57812749D01*
X107879218Y-57630849D01*
X107749011Y-57471200D01*
X107590275Y-57339882D01*
X107409055Y-57241897D01*
X107263283Y-57196773D01*
X107215169Y-57181879D01*
X107215166Y-57181878D01*
X107212254Y-57180977D01*
X107209221Y-57180658D01*
X107209220Y-57180658D01*
X107156660Y-57175134D01*
X107007369Y-57159443D01*
X107004336Y-57159719D01*
X107004332Y-57159719D01*
X106891436Y-57169993D01*
X106802203Y-57178114D01*
X106799270Y-57178977D01*
X106799266Y-57178978D01*
X106649005Y-57223203D01*
X106604572Y-57236280D01*
X106422002Y-57331726D01*
X106261447Y-57460815D01*
X106129024Y-57618630D01*
X106029776Y-57799162D01*
X105967484Y-57995532D01*
X105967143Y-57998570D01*
X105967143Y-57998571D01*
X105965524Y-58013010D01*
X105944520Y-58200262D01*
X64485970Y-58200262D01*
X64484443Y-57559066D01*
X64484956Y-57550928D01*
X64500027Y-57433998D01*
X64504191Y-57418265D01*
X64525784Y-57365631D01*
X64547378Y-57312995D01*
X64555462Y-57298873D01*
X64597707Y-57243354D01*
X64624363Y-57208323D01*
X64635811Y-57196773D01*
X64725760Y-57127076D01*
X64739808Y-57118870D01*
X64767212Y-57107345D01*
X64844698Y-57074759D01*
X64860389Y-57070459D01*
X64911791Y-57063374D01*
X64977188Y-57054361D01*
X64985322Y-57053777D01*
X78635716Y-56966539D01*
X79130954Y-56963374D01*
X79134954Y-56468152D01*
X79134955Y-56468144D01*
X79168624Y-52300000D01*
X88194318Y-52300000D01*
X88194853Y-52304064D01*
X88213290Y-52444104D01*
X88214956Y-52456762D01*
X88275464Y-52602841D01*
X88371718Y-52728282D01*
X88497159Y-52824536D01*
X88500942Y-52826103D01*
X88639452Y-52883476D01*
X88639453Y-52883476D01*
X88643238Y-52885044D01*
X88647300Y-52885579D01*
X88647301Y-52885579D01*
X88795936Y-52905147D01*
X88800000Y-52905682D01*
X88804064Y-52905147D01*
X88952699Y-52885579D01*
X88952700Y-52885579D01*
X88956762Y-52885044D01*
X88960547Y-52883476D01*
X88960548Y-52883476D01*
X89099058Y-52826103D01*
X89102841Y-52824536D01*
X89228282Y-52728282D01*
X89324536Y-52602841D01*
X89385044Y-52456762D01*
X89386711Y-52444104D01*
X89405147Y-52304064D01*
X89405682Y-52300000D01*
X89396544Y-52230588D01*
X89385579Y-52147301D01*
X89385579Y-52147300D01*
X89385044Y-52143238D01*
X89380354Y-52131914D01*
X89326103Y-52000942D01*
X89324536Y-51997159D01*
X89228282Y-51871718D01*
X89102841Y-51775464D01*
X89081289Y-51766537D01*
X88960548Y-51716524D01*
X88960547Y-51716524D01*
X88956762Y-51714956D01*
X88952700Y-51714421D01*
X88952699Y-51714421D01*
X88804064Y-51694853D01*
X88800000Y-51694318D01*
X88795936Y-51694853D01*
X88647301Y-51714421D01*
X88647300Y-51714421D01*
X88643238Y-51714956D01*
X88639453Y-51716524D01*
X88639452Y-51716524D01*
X88518711Y-51766537D01*
X88497159Y-51775464D01*
X88371718Y-51871718D01*
X88275464Y-51997159D01*
X88273897Y-52000942D01*
X88219647Y-52131914D01*
X88214956Y-52143238D01*
X88214421Y-52147300D01*
X88214421Y-52147301D01*
X88203456Y-52230588D01*
X88194318Y-52300000D01*
X79168624Y-52300000D01*
X79213217Y-46779553D01*
X79217228Y-46282982D01*
X79217823Y-46274871D01*
X79234038Y-46158388D01*
X79238345Y-46142736D01*
X79282419Y-46038141D01*
X79290613Y-46024126D01*
X79360136Y-45934412D01*
X79371662Y-45922981D01*
X79461943Y-45854199D01*
X79476023Y-45846122D01*
X79580977Y-45802911D01*
X79596658Y-45798734D01*
X79646582Y-45792202D01*
X79713280Y-45783477D01*
X79721396Y-45782949D01*
X83310297Y-45783488D01*
X86773810Y-45784009D01*
X89411907Y-45784405D01*
X89420098Y-45784947D01*
X89482043Y-45793157D01*
X89537922Y-45800564D01*
X89553761Y-45804835D01*
X89631444Y-45837224D01*
X89659628Y-45848975D01*
X89673809Y-45857220D01*
X89764538Y-45927384D01*
X89776087Y-45939037D01*
X89845433Y-46030395D01*
X89853551Y-46044651D01*
X89896735Y-46150907D01*
X89900863Y-46166785D01*
X89915419Y-46284742D01*
X89915888Y-46292942D01*
X89820402Y-57084602D01*
X92395451Y-57076771D01*
X96298428Y-57064901D01*
X96298431Y-57064901D01*
X96800405Y-57063374D01*
X96796880Y-56559356D01*
X96796881Y-56559346D01*
X96796779Y-56544748D01*
X105949500Y-56544748D01*
X105950099Y-56547758D01*
X105950099Y-56547761D01*
X105952406Y-56559356D01*
X105961133Y-56603231D01*
X106005448Y-56669552D01*
X106010562Y-56672969D01*
X106066653Y-56710449D01*
X106066655Y-56710450D01*
X106071769Y-56713867D01*
X106077803Y-56715067D01*
X106077805Y-56715068D01*
X106127239Y-56724901D01*
X106127242Y-56724901D01*
X106130252Y-56725500D01*
X107869748Y-56725500D01*
X107872758Y-56724901D01*
X107872761Y-56724901D01*
X107922195Y-56715068D01*
X107922197Y-56715067D01*
X107928231Y-56713867D01*
X107933345Y-56710450D01*
X107933347Y-56710449D01*
X107989438Y-56672969D01*
X107994552Y-56669552D01*
X108038867Y-56603231D01*
X108047595Y-56559356D01*
X108049901Y-56547761D01*
X108049901Y-56547758D01*
X108050500Y-56544748D01*
X108050500Y-56000000D01*
X119194508Y-56000000D01*
X119214354Y-56125304D01*
X119271950Y-56238342D01*
X119361658Y-56328050D01*
X119474696Y-56385646D01*
X119600000Y-56405492D01*
X119725304Y-56385646D01*
X119838342Y-56328050D01*
X119928050Y-56238342D01*
X119985646Y-56125304D01*
X120005492Y-56000000D01*
X119985646Y-55874696D01*
X119928050Y-55761658D01*
X119838342Y-55671950D01*
X119725304Y-55614354D01*
X119600000Y-55594508D01*
X119474696Y-55614354D01*
X119361658Y-55671950D01*
X119271950Y-55761658D01*
X119214354Y-55874696D01*
X119194508Y-56000000D01*
X108050500Y-56000000D01*
X108050500Y-55200000D01*
X115494508Y-55200000D01*
X115514354Y-55325304D01*
X115571950Y-55438342D01*
X115661658Y-55528050D01*
X115774696Y-55585646D01*
X115900000Y-55605492D01*
X116025304Y-55585646D01*
X116138342Y-55528050D01*
X116228050Y-55438342D01*
X116285646Y-55325304D01*
X116305492Y-55200000D01*
X117094508Y-55200000D01*
X117114354Y-55325304D01*
X117171950Y-55438342D01*
X117261658Y-55528050D01*
X117374696Y-55585646D01*
X117500000Y-55605492D01*
X117625304Y-55585646D01*
X117738342Y-55528050D01*
X117828050Y-55438342D01*
X117885646Y-55325304D01*
X117905492Y-55200000D01*
X117885646Y-55074696D01*
X117828050Y-54961658D01*
X117738342Y-54871950D01*
X117625304Y-54814354D01*
X117500000Y-54794508D01*
X117374696Y-54814354D01*
X117261658Y-54871950D01*
X117171950Y-54961658D01*
X117114354Y-55074696D01*
X117094508Y-55200000D01*
X116305492Y-55200000D01*
X116285646Y-55074696D01*
X116228050Y-54961658D01*
X116138342Y-54871950D01*
X116025304Y-54814354D01*
X115900000Y-54794508D01*
X115774696Y-54814354D01*
X115661658Y-54871950D01*
X115571950Y-54961658D01*
X115514354Y-55074696D01*
X115494508Y-55200000D01*
X108050500Y-55200000D01*
X108050500Y-54805252D01*
X108038867Y-54746769D01*
X107994552Y-54680448D01*
X107977680Y-54669174D01*
X107933347Y-54639551D01*
X107933345Y-54639550D01*
X107928231Y-54636133D01*
X107922197Y-54634933D01*
X107922195Y-54634932D01*
X107872761Y-54625099D01*
X107872758Y-54625099D01*
X107869748Y-54624500D01*
X106130252Y-54624500D01*
X106127242Y-54625099D01*
X106127239Y-54625099D01*
X106077805Y-54634932D01*
X106077803Y-54634933D01*
X106071769Y-54636133D01*
X106066655Y-54639550D01*
X106066653Y-54639551D01*
X106022320Y-54669174D01*
X106005448Y-54680448D01*
X105961133Y-54746769D01*
X105949500Y-54805252D01*
X105949500Y-56544748D01*
X96796779Y-56544748D01*
X96760133Y-51304351D01*
X111683260Y-51304351D01*
X111703106Y-51429655D01*
X111760702Y-51542693D01*
X111850410Y-51632401D01*
X111963448Y-51689997D01*
X112088752Y-51709843D01*
X112093607Y-51709074D01*
X112093609Y-51709074D01*
X112094777Y-51708889D01*
X112095548Y-51709074D01*
X112098529Y-51709074D01*
X112098529Y-51709790D01*
X112141291Y-51720054D01*
X112166288Y-51760842D01*
X112172832Y-51802160D01*
X112230428Y-51915198D01*
X112320136Y-52004906D01*
X112433174Y-52062502D01*
X112495826Y-52072425D01*
X112553621Y-52081579D01*
X112553623Y-52081579D01*
X112558478Y-52082348D01*
X112574291Y-52079843D01*
X112620803Y-52091008D01*
X112645799Y-52131796D01*
X112650886Y-52163916D01*
X112708482Y-52276954D01*
X112798190Y-52366662D01*
X112911228Y-52424258D01*
X112986401Y-52436164D01*
X113015923Y-52440840D01*
X113056710Y-52465834D01*
X113067877Y-52492794D01*
X113081801Y-52580707D01*
X113139397Y-52693745D01*
X113229105Y-52783453D01*
X113342143Y-52841049D01*
X113346999Y-52841818D01*
X113347005Y-52841820D01*
X113367120Y-52845006D01*
X113407906Y-52870000D01*
X113419072Y-52916514D01*
X113416181Y-52934765D01*
X113416181Y-52934770D01*
X113415412Y-52939625D01*
X113435258Y-53064929D01*
X113492854Y-53177967D01*
X113582562Y-53267675D01*
X113695600Y-53325271D01*
X113820904Y-53345117D01*
X113825759Y-53344348D01*
X113825761Y-53344348D01*
X113837948Y-53342418D01*
X113884462Y-53353586D01*
X113909455Y-53394372D01*
X113914354Y-53425304D01*
X113971950Y-53538342D01*
X114061658Y-53628050D01*
X114174696Y-53685646D01*
X114300000Y-53705492D01*
X114425304Y-53685646D01*
X114538342Y-53628050D01*
X114628050Y-53538342D01*
X114685646Y-53425304D01*
X114705492Y-53300000D01*
X114685646Y-53174696D01*
X114677873Y-53159440D01*
X115854901Y-53159440D01*
X115871633Y-53287394D01*
X115873426Y-53291469D01*
X115897032Y-53345117D01*
X115923605Y-53405510D01*
X116006639Y-53504291D01*
X116010344Y-53506757D01*
X116010346Y-53506759D01*
X116051215Y-53533963D01*
X116114060Y-53575796D01*
X116237233Y-53614278D01*
X116241683Y-53614360D01*
X116241686Y-53614360D01*
X116361809Y-53616562D01*
X116361812Y-53616562D01*
X116366255Y-53616643D01*
X116370546Y-53615473D01*
X116370547Y-53615473D01*
X116428505Y-53599672D01*
X116490755Y-53582700D01*
X116600724Y-53515179D01*
X116687322Y-53419507D01*
X116743588Y-53303375D01*
X116764997Y-53176120D01*
X116765133Y-53165000D01*
X116764337Y-53159440D01*
X117121568Y-53159440D01*
X117138300Y-53287394D01*
X117140093Y-53291469D01*
X117163699Y-53345117D01*
X117190272Y-53405510D01*
X117273306Y-53504291D01*
X117277011Y-53506757D01*
X117277013Y-53506759D01*
X117317882Y-53533963D01*
X117380727Y-53575796D01*
X117503900Y-53614278D01*
X117508350Y-53614360D01*
X117508353Y-53614360D01*
X117628476Y-53616562D01*
X117628479Y-53616562D01*
X117632922Y-53616643D01*
X117637213Y-53615473D01*
X117637214Y-53615473D01*
X117695172Y-53599672D01*
X117757422Y-53582700D01*
X117867391Y-53515179D01*
X117953989Y-53419507D01*
X118010255Y-53303375D01*
X118031664Y-53176120D01*
X118031800Y-53165000D01*
X118031004Y-53159440D01*
X118388234Y-53159440D01*
X118404966Y-53287394D01*
X118406759Y-53291469D01*
X118430365Y-53345117D01*
X118456938Y-53405510D01*
X118539972Y-53504291D01*
X118543677Y-53506757D01*
X118543679Y-53506759D01*
X118584548Y-53533963D01*
X118647393Y-53575796D01*
X118770566Y-53614278D01*
X118775016Y-53614360D01*
X118775019Y-53614360D01*
X118895142Y-53616562D01*
X118895145Y-53616562D01*
X118899588Y-53616643D01*
X118903879Y-53615473D01*
X118903880Y-53615473D01*
X118961838Y-53599672D01*
X119024088Y-53582700D01*
X119134057Y-53515179D01*
X119220655Y-53419507D01*
X119276921Y-53303375D01*
X119298330Y-53176120D01*
X119298466Y-53165000D01*
X119297670Y-53159440D01*
X119654901Y-53159440D01*
X119671633Y-53287394D01*
X119673426Y-53291469D01*
X119697032Y-53345117D01*
X119723605Y-53405510D01*
X119806639Y-53504291D01*
X119810344Y-53506757D01*
X119810346Y-53506759D01*
X119851215Y-53533963D01*
X119914060Y-53575796D01*
X120037233Y-53614278D01*
X120041683Y-53614360D01*
X120041686Y-53614360D01*
X120161809Y-53616562D01*
X120161812Y-53616562D01*
X120166255Y-53616643D01*
X120170546Y-53615473D01*
X120170547Y-53615473D01*
X120228505Y-53599672D01*
X120290755Y-53582700D01*
X120400724Y-53515179D01*
X120487322Y-53419507D01*
X120543588Y-53303375D01*
X120564997Y-53176120D01*
X120565133Y-53165000D01*
X120546839Y-53037259D01*
X120504655Y-52944480D01*
X120495272Y-52923843D01*
X120495271Y-52923841D01*
X120493428Y-52919788D01*
X120471646Y-52894508D01*
X120450528Y-52870000D01*
X120409193Y-52822028D01*
X120300906Y-52751841D01*
X120296641Y-52750566D01*
X120296638Y-52750564D01*
X120181541Y-52716142D01*
X120181538Y-52716142D01*
X120177273Y-52714866D01*
X120113721Y-52714478D01*
X120052684Y-52714105D01*
X120052683Y-52714105D01*
X120048231Y-52714078D01*
X119924155Y-52749539D01*
X119815019Y-52818399D01*
X119812076Y-52821731D01*
X119812074Y-52821733D01*
X119737933Y-52905682D01*
X119729596Y-52915122D01*
X119674754Y-53031932D01*
X119654901Y-53159440D01*
X119297670Y-53159440D01*
X119280172Y-53037259D01*
X119237988Y-52944480D01*
X119228605Y-52923843D01*
X119228604Y-52923841D01*
X119226761Y-52919788D01*
X119204979Y-52894508D01*
X119183861Y-52870000D01*
X119142526Y-52822028D01*
X119034239Y-52751841D01*
X119029974Y-52750566D01*
X119029971Y-52750564D01*
X118914874Y-52716142D01*
X118914871Y-52716142D01*
X118910606Y-52714866D01*
X118847054Y-52714478D01*
X118786017Y-52714105D01*
X118786016Y-52714105D01*
X118781564Y-52714078D01*
X118657488Y-52749539D01*
X118548352Y-52818399D01*
X118545409Y-52821731D01*
X118545407Y-52821733D01*
X118471266Y-52905682D01*
X118462929Y-52915122D01*
X118408087Y-53031932D01*
X118388234Y-53159440D01*
X118031004Y-53159440D01*
X118013506Y-53037259D01*
X117971322Y-52944480D01*
X117961939Y-52923843D01*
X117961938Y-52923841D01*
X117960095Y-52919788D01*
X117938313Y-52894508D01*
X117917195Y-52870000D01*
X117875860Y-52822028D01*
X117767573Y-52751841D01*
X117763308Y-52750566D01*
X117763305Y-52750564D01*
X117648208Y-52716142D01*
X117648205Y-52716142D01*
X117643940Y-52714866D01*
X117580388Y-52714478D01*
X117519351Y-52714105D01*
X117519350Y-52714105D01*
X117514898Y-52714078D01*
X117390822Y-52749539D01*
X117281686Y-52818399D01*
X117278743Y-52821731D01*
X117278741Y-52821733D01*
X117204600Y-52905682D01*
X117196263Y-52915122D01*
X117141421Y-53031932D01*
X117121568Y-53159440D01*
X116764337Y-53159440D01*
X116746839Y-53037259D01*
X116704655Y-52944480D01*
X116695272Y-52923843D01*
X116695271Y-52923841D01*
X116693428Y-52919788D01*
X116671646Y-52894508D01*
X116650528Y-52870000D01*
X116609193Y-52822028D01*
X116500906Y-52751841D01*
X116496641Y-52750566D01*
X116496638Y-52750564D01*
X116381541Y-52716142D01*
X116381538Y-52716142D01*
X116377273Y-52714866D01*
X116313721Y-52714478D01*
X116252684Y-52714105D01*
X116252683Y-52714105D01*
X116248231Y-52714078D01*
X116124155Y-52749539D01*
X116015019Y-52818399D01*
X116012076Y-52821731D01*
X116012074Y-52821733D01*
X115937933Y-52905682D01*
X115929596Y-52915122D01*
X115874754Y-53031932D01*
X115854901Y-53159440D01*
X114677873Y-53159440D01*
X114628050Y-53061658D01*
X114538342Y-52971950D01*
X114425304Y-52914354D01*
X114300000Y-52894508D01*
X114295145Y-52895277D01*
X114295143Y-52895277D01*
X114282956Y-52897207D01*
X114236442Y-52886039D01*
X114211449Y-52845253D01*
X114210783Y-52841049D01*
X114206550Y-52814321D01*
X114148954Y-52701283D01*
X114059246Y-52611575D01*
X113946208Y-52553979D01*
X113941352Y-52553210D01*
X113941346Y-52553208D01*
X113921231Y-52550022D01*
X113880445Y-52525028D01*
X113869279Y-52478514D01*
X113872170Y-52460263D01*
X113872170Y-52460258D01*
X113872939Y-52455403D01*
X113853093Y-52330099D01*
X113795497Y-52217061D01*
X113705789Y-52127353D01*
X113592751Y-52069757D01*
X113517578Y-52057851D01*
X113488056Y-52053175D01*
X113447269Y-52028181D01*
X113436102Y-52001221D01*
X113422947Y-51918165D01*
X113422178Y-51913308D01*
X113411715Y-51892773D01*
X115854901Y-51892773D01*
X115871633Y-52020727D01*
X115873426Y-52024802D01*
X115917568Y-52125122D01*
X115923605Y-52138843D01*
X116006639Y-52237624D01*
X116010344Y-52240090D01*
X116010346Y-52240092D01*
X116059145Y-52272575D01*
X116114060Y-52309129D01*
X116237233Y-52347611D01*
X116241683Y-52347693D01*
X116241686Y-52347693D01*
X116361809Y-52349895D01*
X116361812Y-52349895D01*
X116366255Y-52349976D01*
X116370546Y-52348806D01*
X116370547Y-52348806D01*
X116455235Y-52325717D01*
X116490755Y-52316033D01*
X116600724Y-52248512D01*
X116687322Y-52152840D01*
X116743588Y-52036708D01*
X116748939Y-52004906D01*
X116762042Y-51927016D01*
X116764997Y-51909453D01*
X116765133Y-51898333D01*
X116764337Y-51892773D01*
X117121568Y-51892773D01*
X117138300Y-52020727D01*
X117140093Y-52024802D01*
X117184235Y-52125122D01*
X117190272Y-52138843D01*
X117273306Y-52237624D01*
X117277011Y-52240090D01*
X117277013Y-52240092D01*
X117325812Y-52272575D01*
X117380727Y-52309129D01*
X117503900Y-52347611D01*
X117508350Y-52347693D01*
X117508353Y-52347693D01*
X117628476Y-52349895D01*
X117628479Y-52349895D01*
X117632922Y-52349976D01*
X117637213Y-52348806D01*
X117637214Y-52348806D01*
X117721902Y-52325717D01*
X117757422Y-52316033D01*
X117867391Y-52248512D01*
X117953989Y-52152840D01*
X118010255Y-52036708D01*
X118015606Y-52004906D01*
X118028709Y-51927016D01*
X118031664Y-51909453D01*
X118031800Y-51898333D01*
X118031004Y-51892773D01*
X118388234Y-51892773D01*
X118404966Y-52020727D01*
X118406759Y-52024802D01*
X118450901Y-52125122D01*
X118456938Y-52138843D01*
X118539972Y-52237624D01*
X118543677Y-52240090D01*
X118543679Y-52240092D01*
X118592478Y-52272575D01*
X118647393Y-52309129D01*
X118770566Y-52347611D01*
X118775016Y-52347693D01*
X118775019Y-52347693D01*
X118895142Y-52349895D01*
X118895145Y-52349895D01*
X118899588Y-52349976D01*
X118903879Y-52348806D01*
X118903880Y-52348806D01*
X118988568Y-52325717D01*
X119024088Y-52316033D01*
X119134057Y-52248512D01*
X119220655Y-52152840D01*
X119276921Y-52036708D01*
X119282272Y-52004906D01*
X119295375Y-51927016D01*
X119298330Y-51909453D01*
X119298466Y-51898333D01*
X119297670Y-51892773D01*
X119654901Y-51892773D01*
X119671633Y-52020727D01*
X119673426Y-52024802D01*
X119717568Y-52125122D01*
X119723605Y-52138843D01*
X119806639Y-52237624D01*
X119810344Y-52240090D01*
X119810346Y-52240092D01*
X119859145Y-52272575D01*
X119914060Y-52309129D01*
X120037233Y-52347611D01*
X120041683Y-52347693D01*
X120041686Y-52347693D01*
X120161809Y-52349895D01*
X120161812Y-52349895D01*
X120166255Y-52349976D01*
X120170546Y-52348806D01*
X120170547Y-52348806D01*
X120255235Y-52325717D01*
X120290755Y-52316033D01*
X120400724Y-52248512D01*
X120487322Y-52152840D01*
X120543588Y-52036708D01*
X120548939Y-52004906D01*
X120562042Y-51927016D01*
X120564997Y-51909453D01*
X120565133Y-51898333D01*
X120546839Y-51770592D01*
X120515539Y-51701752D01*
X120495272Y-51657176D01*
X120495271Y-51657174D01*
X120493428Y-51653121D01*
X120409193Y-51555361D01*
X120300906Y-51485174D01*
X120296641Y-51483899D01*
X120296638Y-51483897D01*
X120181541Y-51449475D01*
X120181538Y-51449475D01*
X120177273Y-51448199D01*
X120113721Y-51447811D01*
X120052684Y-51447438D01*
X120052683Y-51447438D01*
X120048231Y-51447411D01*
X119924155Y-51482872D01*
X119815019Y-51551732D01*
X119812076Y-51555064D01*
X119812074Y-51555066D01*
X119746845Y-51628924D01*
X119729596Y-51648455D01*
X119674754Y-51765265D01*
X119654901Y-51892773D01*
X119297670Y-51892773D01*
X119280172Y-51770592D01*
X119248872Y-51701752D01*
X119228605Y-51657176D01*
X119228604Y-51657174D01*
X119226761Y-51653121D01*
X119142526Y-51555361D01*
X119034239Y-51485174D01*
X119029974Y-51483899D01*
X119029971Y-51483897D01*
X118914874Y-51449475D01*
X118914871Y-51449475D01*
X118910606Y-51448199D01*
X118847054Y-51447811D01*
X118786017Y-51447438D01*
X118786016Y-51447438D01*
X118781564Y-51447411D01*
X118657488Y-51482872D01*
X118548352Y-51551732D01*
X118545409Y-51555064D01*
X118545407Y-51555066D01*
X118480178Y-51628924D01*
X118462929Y-51648455D01*
X118408087Y-51765265D01*
X118388234Y-51892773D01*
X118031004Y-51892773D01*
X118013506Y-51770592D01*
X117982206Y-51701752D01*
X117961939Y-51657176D01*
X117961938Y-51657174D01*
X117960095Y-51653121D01*
X117875860Y-51555361D01*
X117767573Y-51485174D01*
X117763308Y-51483899D01*
X117763305Y-51483897D01*
X117648208Y-51449475D01*
X117648205Y-51449475D01*
X117643940Y-51448199D01*
X117580388Y-51447811D01*
X117519351Y-51447438D01*
X117519350Y-51447438D01*
X117514898Y-51447411D01*
X117390822Y-51482872D01*
X117281686Y-51551732D01*
X117278743Y-51555064D01*
X117278741Y-51555066D01*
X117213512Y-51628924D01*
X117196263Y-51648455D01*
X117141421Y-51765265D01*
X117121568Y-51892773D01*
X116764337Y-51892773D01*
X116746839Y-51770592D01*
X116715539Y-51701752D01*
X116695272Y-51657176D01*
X116695271Y-51657174D01*
X116693428Y-51653121D01*
X116609193Y-51555361D01*
X116500906Y-51485174D01*
X116496641Y-51483899D01*
X116496638Y-51483897D01*
X116381541Y-51449475D01*
X116381538Y-51449475D01*
X116377273Y-51448199D01*
X116313721Y-51447811D01*
X116252684Y-51447438D01*
X116252683Y-51447438D01*
X116248231Y-51447411D01*
X116124155Y-51482872D01*
X116015019Y-51551732D01*
X116012076Y-51555064D01*
X116012074Y-51555066D01*
X115946845Y-51628924D01*
X115929596Y-51648455D01*
X115874754Y-51765265D01*
X115854901Y-51892773D01*
X113411715Y-51892773D01*
X113364582Y-51800270D01*
X113274874Y-51710562D01*
X113161836Y-51652966D01*
X113099184Y-51643043D01*
X113041389Y-51633889D01*
X113041387Y-51633889D01*
X113036532Y-51633120D01*
X113020719Y-51635625D01*
X112974207Y-51624460D01*
X112949211Y-51583672D01*
X112944893Y-51556408D01*
X112944124Y-51551552D01*
X112886528Y-51438514D01*
X112796820Y-51348806D01*
X112683782Y-51291210D01*
X112558478Y-51271364D01*
X112553623Y-51272133D01*
X112553621Y-51272133D01*
X112552453Y-51272318D01*
X112551682Y-51272133D01*
X112548701Y-51272133D01*
X112548701Y-51271417D01*
X112505939Y-51261153D01*
X112480942Y-51220365D01*
X112475167Y-51183904D01*
X112474398Y-51179047D01*
X112416802Y-51066009D01*
X112327094Y-50976301D01*
X112214056Y-50918705D01*
X112088752Y-50898859D01*
X111963448Y-50918705D01*
X111850410Y-50976301D01*
X111760702Y-51066009D01*
X111703106Y-51179047D01*
X111683260Y-51304351D01*
X96760133Y-51304351D01*
X96755390Y-50626107D01*
X115854901Y-50626107D01*
X115871633Y-50754061D01*
X115923605Y-50872177D01*
X116006639Y-50970958D01*
X116010344Y-50973424D01*
X116010346Y-50973426D01*
X116050268Y-51000000D01*
X116114060Y-51042463D01*
X116237233Y-51080945D01*
X116241683Y-51081027D01*
X116241686Y-51081027D01*
X116361809Y-51083229D01*
X116361812Y-51083229D01*
X116366255Y-51083310D01*
X116370546Y-51082140D01*
X116370547Y-51082140D01*
X116442467Y-51062532D01*
X116490755Y-51049367D01*
X116600724Y-50981846D01*
X116607763Y-50974070D01*
X116684335Y-50889474D01*
X116687322Y-50886174D01*
X116743588Y-50770042D01*
X116747805Y-50744981D01*
X116764597Y-50645163D01*
X116764997Y-50642787D01*
X116765133Y-50631667D01*
X116764337Y-50626107D01*
X117121568Y-50626107D01*
X117138300Y-50754061D01*
X117190272Y-50872177D01*
X117273306Y-50970958D01*
X117277011Y-50973424D01*
X117277013Y-50973426D01*
X117316935Y-51000000D01*
X117380727Y-51042463D01*
X117503900Y-51080945D01*
X117508350Y-51081027D01*
X117508353Y-51081027D01*
X117628476Y-51083229D01*
X117628479Y-51083229D01*
X117632922Y-51083310D01*
X117637213Y-51082140D01*
X117637214Y-51082140D01*
X117709134Y-51062532D01*
X117757422Y-51049367D01*
X117867391Y-50981846D01*
X117874430Y-50974070D01*
X117951002Y-50889474D01*
X117953989Y-50886174D01*
X118010255Y-50770042D01*
X118014472Y-50744981D01*
X118031264Y-50645163D01*
X118031664Y-50642787D01*
X118031800Y-50631667D01*
X118031004Y-50626107D01*
X118388234Y-50626107D01*
X118404966Y-50754061D01*
X118456938Y-50872177D01*
X118539972Y-50970958D01*
X118543677Y-50973424D01*
X118543679Y-50973426D01*
X118583601Y-51000000D01*
X118647393Y-51042463D01*
X118770566Y-51080945D01*
X118775016Y-51081027D01*
X118775019Y-51081027D01*
X118895142Y-51083229D01*
X118895145Y-51083229D01*
X118899588Y-51083310D01*
X118903879Y-51082140D01*
X118903880Y-51082140D01*
X118975800Y-51062532D01*
X119024088Y-51049367D01*
X119134057Y-50981846D01*
X119141096Y-50974070D01*
X119217668Y-50889474D01*
X119220655Y-50886174D01*
X119276921Y-50770042D01*
X119281138Y-50744981D01*
X119297930Y-50645163D01*
X119298330Y-50642787D01*
X119298466Y-50631667D01*
X119297670Y-50626107D01*
X119654901Y-50626107D01*
X119671633Y-50754061D01*
X119723605Y-50872177D01*
X119806639Y-50970958D01*
X119810344Y-50973424D01*
X119810346Y-50973426D01*
X119850268Y-51000000D01*
X119914060Y-51042463D01*
X120037233Y-51080945D01*
X120041683Y-51081027D01*
X120041686Y-51081027D01*
X120161809Y-51083229D01*
X120161812Y-51083229D01*
X120166255Y-51083310D01*
X120170546Y-51082140D01*
X120170547Y-51082140D01*
X120242467Y-51062532D01*
X120290755Y-51049367D01*
X120400724Y-50981846D01*
X120407763Y-50974070D01*
X120484335Y-50889474D01*
X120487322Y-50886174D01*
X120543588Y-50770042D01*
X120547805Y-50744981D01*
X120564597Y-50645163D01*
X120564997Y-50642787D01*
X120565133Y-50631667D01*
X120546839Y-50503926D01*
X120493428Y-50386455D01*
X120409193Y-50288695D01*
X120300906Y-50218508D01*
X120296641Y-50217233D01*
X120296638Y-50217231D01*
X120181541Y-50182809D01*
X120181538Y-50182809D01*
X120177273Y-50181533D01*
X120113721Y-50181145D01*
X120052684Y-50180772D01*
X120052683Y-50180772D01*
X120048231Y-50180745D01*
X119924155Y-50216206D01*
X119815019Y-50285066D01*
X119812076Y-50288398D01*
X119812074Y-50288400D01*
X119808833Y-50292070D01*
X119729596Y-50381789D01*
X119674754Y-50498599D01*
X119654901Y-50626107D01*
X119297670Y-50626107D01*
X119280172Y-50503926D01*
X119226761Y-50386455D01*
X119142526Y-50288695D01*
X119034239Y-50218508D01*
X119029974Y-50217233D01*
X119029971Y-50217231D01*
X118914874Y-50182809D01*
X118914871Y-50182809D01*
X118910606Y-50181533D01*
X118847054Y-50181145D01*
X118786017Y-50180772D01*
X118786016Y-50180772D01*
X118781564Y-50180745D01*
X118657488Y-50216206D01*
X118548352Y-50285066D01*
X118545409Y-50288398D01*
X118545407Y-50288400D01*
X118542166Y-50292070D01*
X118462929Y-50381789D01*
X118408087Y-50498599D01*
X118388234Y-50626107D01*
X118031004Y-50626107D01*
X118013506Y-50503926D01*
X117960095Y-50386455D01*
X117875860Y-50288695D01*
X117767573Y-50218508D01*
X117763308Y-50217233D01*
X117763305Y-50217231D01*
X117648208Y-50182809D01*
X117648205Y-50182809D01*
X117643940Y-50181533D01*
X117580388Y-50181145D01*
X117519351Y-50180772D01*
X117519350Y-50180772D01*
X117514898Y-50180745D01*
X117390822Y-50216206D01*
X117281686Y-50285066D01*
X117278743Y-50288398D01*
X117278741Y-50288400D01*
X117275500Y-50292070D01*
X117196263Y-50381789D01*
X117141421Y-50498599D01*
X117121568Y-50626107D01*
X116764337Y-50626107D01*
X116746839Y-50503926D01*
X116693428Y-50386455D01*
X116609193Y-50288695D01*
X116500906Y-50218508D01*
X116496641Y-50217233D01*
X116496638Y-50217231D01*
X116381541Y-50182809D01*
X116381538Y-50182809D01*
X116377273Y-50181533D01*
X116313721Y-50181145D01*
X116252684Y-50180772D01*
X116252683Y-50180772D01*
X116248231Y-50180745D01*
X116124155Y-50216206D01*
X116015019Y-50285066D01*
X116012076Y-50288398D01*
X116012074Y-50288400D01*
X116008833Y-50292070D01*
X115929596Y-50381789D01*
X115874754Y-50498599D01*
X115854901Y-50626107D01*
X96755390Y-50626107D01*
X96740522Y-48500000D01*
X112094508Y-48500000D01*
X112114354Y-48625304D01*
X112171950Y-48738342D01*
X112261658Y-48828050D01*
X112374696Y-48885646D01*
X112500000Y-48905492D01*
X112504855Y-48904723D01*
X112544381Y-48898463D01*
X112590895Y-48909631D01*
X112615889Y-48950417D01*
X112613983Y-48974637D01*
X112614354Y-48974696D01*
X112594508Y-49100000D01*
X112614354Y-49225304D01*
X112671950Y-49338342D01*
X112761658Y-49428050D01*
X112874696Y-49485646D01*
X113000000Y-49505492D01*
X113125304Y-49485646D01*
X113238342Y-49428050D01*
X113306952Y-49359440D01*
X115854901Y-49359440D01*
X115871633Y-49487394D01*
X115923605Y-49605510D01*
X116006639Y-49704291D01*
X116010344Y-49706757D01*
X116010346Y-49706759D01*
X116091902Y-49761047D01*
X116114060Y-49775796D01*
X116237233Y-49814278D01*
X116241683Y-49814360D01*
X116241686Y-49814360D01*
X116361809Y-49816562D01*
X116361812Y-49816562D01*
X116366255Y-49816643D01*
X116370546Y-49815473D01*
X116370547Y-49815473D01*
X116428505Y-49799672D01*
X116490755Y-49782700D01*
X116600724Y-49715179D01*
X116687322Y-49619507D01*
X116743588Y-49503375D01*
X116745671Y-49490998D01*
X116764597Y-49378496D01*
X116764997Y-49376120D01*
X116765133Y-49365000D01*
X116764337Y-49359440D01*
X117121568Y-49359440D01*
X117138300Y-49487394D01*
X117190272Y-49605510D01*
X117273306Y-49704291D01*
X117277011Y-49706757D01*
X117277013Y-49706759D01*
X117358569Y-49761047D01*
X117380727Y-49775796D01*
X117503900Y-49814278D01*
X117508350Y-49814360D01*
X117508353Y-49814360D01*
X117628476Y-49816562D01*
X117628479Y-49816562D01*
X117632922Y-49816643D01*
X117637213Y-49815473D01*
X117637214Y-49815473D01*
X117695172Y-49799672D01*
X117757422Y-49782700D01*
X117867391Y-49715179D01*
X117953989Y-49619507D01*
X118010255Y-49503375D01*
X118012338Y-49490998D01*
X118031264Y-49378496D01*
X118031664Y-49376120D01*
X118031800Y-49365000D01*
X118031004Y-49359440D01*
X118388234Y-49359440D01*
X118404966Y-49487394D01*
X118456938Y-49605510D01*
X118539972Y-49704291D01*
X118543677Y-49706757D01*
X118543679Y-49706759D01*
X118625235Y-49761047D01*
X118647393Y-49775796D01*
X118770566Y-49814278D01*
X118775016Y-49814360D01*
X118775019Y-49814360D01*
X118895142Y-49816562D01*
X118895145Y-49816562D01*
X118899588Y-49816643D01*
X118903879Y-49815473D01*
X118903880Y-49815473D01*
X118961838Y-49799672D01*
X119024088Y-49782700D01*
X119134057Y-49715179D01*
X119220655Y-49619507D01*
X119276921Y-49503375D01*
X119279004Y-49490998D01*
X119297930Y-49378496D01*
X119298330Y-49376120D01*
X119298466Y-49365000D01*
X119297670Y-49359440D01*
X119654901Y-49359440D01*
X119671633Y-49487394D01*
X119723605Y-49605510D01*
X119806639Y-49704291D01*
X119810344Y-49706757D01*
X119810346Y-49706759D01*
X119891902Y-49761047D01*
X119914060Y-49775796D01*
X120037233Y-49814278D01*
X120041683Y-49814360D01*
X120041686Y-49814360D01*
X120161809Y-49816562D01*
X120161812Y-49816562D01*
X120166255Y-49816643D01*
X120170546Y-49815473D01*
X120170547Y-49815473D01*
X120228505Y-49799672D01*
X120290755Y-49782700D01*
X120400724Y-49715179D01*
X120487322Y-49619507D01*
X120543588Y-49503375D01*
X120545671Y-49490998D01*
X120564597Y-49378496D01*
X120564997Y-49376120D01*
X120565133Y-49365000D01*
X120546839Y-49237259D01*
X120493428Y-49119788D01*
X120409193Y-49022028D01*
X120300906Y-48951841D01*
X120296641Y-48950566D01*
X120296638Y-48950564D01*
X120181541Y-48916142D01*
X120181538Y-48916142D01*
X120177273Y-48914866D01*
X120113721Y-48914478D01*
X120052684Y-48914105D01*
X120052683Y-48914105D01*
X120048231Y-48914078D01*
X119924155Y-48949539D01*
X119815019Y-49018399D01*
X119812076Y-49021731D01*
X119812074Y-49021733D01*
X119732543Y-49111785D01*
X119729596Y-49115122D01*
X119674754Y-49231932D01*
X119654901Y-49359440D01*
X119297670Y-49359440D01*
X119280172Y-49237259D01*
X119226761Y-49119788D01*
X119142526Y-49022028D01*
X119034239Y-48951841D01*
X119029974Y-48950566D01*
X119029971Y-48950564D01*
X118914874Y-48916142D01*
X118914871Y-48916142D01*
X118910606Y-48914866D01*
X118847054Y-48914478D01*
X118786017Y-48914105D01*
X118786016Y-48914105D01*
X118781564Y-48914078D01*
X118657488Y-48949539D01*
X118548352Y-49018399D01*
X118545409Y-49021731D01*
X118545407Y-49021733D01*
X118465876Y-49111785D01*
X118462929Y-49115122D01*
X118408087Y-49231932D01*
X118388234Y-49359440D01*
X118031004Y-49359440D01*
X118013506Y-49237259D01*
X117960095Y-49119788D01*
X117875860Y-49022028D01*
X117767573Y-48951841D01*
X117763308Y-48950566D01*
X117763305Y-48950564D01*
X117648208Y-48916142D01*
X117648205Y-48916142D01*
X117643940Y-48914866D01*
X117580388Y-48914478D01*
X117519351Y-48914105D01*
X117519350Y-48914105D01*
X117514898Y-48914078D01*
X117390822Y-48949539D01*
X117281686Y-49018399D01*
X117278743Y-49021731D01*
X117278741Y-49021733D01*
X117199210Y-49111785D01*
X117196263Y-49115122D01*
X117141421Y-49231932D01*
X117121568Y-49359440D01*
X116764337Y-49359440D01*
X116746839Y-49237259D01*
X116693428Y-49119788D01*
X116609193Y-49022028D01*
X116500906Y-48951841D01*
X116496641Y-48950566D01*
X116496638Y-48950564D01*
X116381541Y-48916142D01*
X116381538Y-48916142D01*
X116377273Y-48914866D01*
X116313721Y-48914478D01*
X116252684Y-48914105D01*
X116252683Y-48914105D01*
X116248231Y-48914078D01*
X116124155Y-48949539D01*
X116015019Y-49018399D01*
X116012076Y-49021731D01*
X116012074Y-49021733D01*
X115932543Y-49111785D01*
X115929596Y-49115122D01*
X115874754Y-49231932D01*
X115854901Y-49359440D01*
X113306952Y-49359440D01*
X113328050Y-49338342D01*
X113385646Y-49225304D01*
X113405492Y-49100000D01*
X113385646Y-48974696D01*
X113328050Y-48861658D01*
X113238342Y-48771950D01*
X113125304Y-48714354D01*
X113000000Y-48694508D01*
X112995145Y-48695277D01*
X112955619Y-48701537D01*
X112909105Y-48690369D01*
X112884111Y-48649583D01*
X112886017Y-48625363D01*
X112885646Y-48625304D01*
X112886392Y-48620591D01*
X112892023Y-48585044D01*
X112904723Y-48504855D01*
X112905492Y-48500000D01*
X112885646Y-48374696D01*
X112828050Y-48261658D01*
X112766392Y-48200000D01*
X120894508Y-48200000D01*
X120914354Y-48325304D01*
X120971950Y-48438342D01*
X121061658Y-48528050D01*
X121174696Y-48585646D01*
X121300000Y-48605492D01*
X121425304Y-48585646D01*
X121538342Y-48528050D01*
X121628050Y-48438342D01*
X121685646Y-48325304D01*
X121705492Y-48200000D01*
X121685646Y-48074696D01*
X121628050Y-47961658D01*
X121538342Y-47871950D01*
X121425304Y-47814354D01*
X121300000Y-47794508D01*
X121174696Y-47814354D01*
X121061658Y-47871950D01*
X120971950Y-47961658D01*
X120914354Y-48074696D01*
X120894508Y-48200000D01*
X112766392Y-48200000D01*
X112738342Y-48171950D01*
X112625304Y-48114354D01*
X112500000Y-48094508D01*
X112374696Y-48114354D01*
X112261658Y-48171950D01*
X112171950Y-48261658D01*
X112114354Y-48374696D01*
X112094508Y-48500000D01*
X96740522Y-48500000D01*
X96729333Y-46900000D01*
X116995008Y-46900000D01*
X117014854Y-47025304D01*
X117072450Y-47138342D01*
X117162158Y-47228050D01*
X117275196Y-47285646D01*
X117400500Y-47305492D01*
X117525804Y-47285646D01*
X117638842Y-47228050D01*
X117728550Y-47138342D01*
X117786146Y-47025304D01*
X117805992Y-46900000D01*
X117786146Y-46774696D01*
X117728550Y-46661658D01*
X117638842Y-46571950D01*
X117525804Y-46514354D01*
X117400500Y-46494508D01*
X117275196Y-46514354D01*
X117162158Y-46571950D01*
X117072450Y-46661658D01*
X117014854Y-46774696D01*
X116995008Y-46900000D01*
X96729333Y-46900000D01*
X96716746Y-45100000D01*
X123894508Y-45100000D01*
X123914354Y-45225304D01*
X123971950Y-45338342D01*
X124061658Y-45428050D01*
X124174696Y-45485646D01*
X124300000Y-45505492D01*
X124425304Y-45485646D01*
X124538342Y-45428050D01*
X124628050Y-45338342D01*
X124685646Y-45225304D01*
X124705492Y-45100000D01*
X124685646Y-44974696D01*
X124628050Y-44861658D01*
X124538342Y-44771950D01*
X124425304Y-44714354D01*
X124300000Y-44694508D01*
X124174696Y-44714354D01*
X124061658Y-44771950D01*
X123971950Y-44861658D01*
X123914354Y-44974696D01*
X123894508Y-45100000D01*
X96716746Y-45100000D01*
X96689786Y-41244748D01*
X105549500Y-41244748D01*
X105561133Y-41303231D01*
X105605448Y-41369552D01*
X105610562Y-41372969D01*
X105666653Y-41410449D01*
X105666655Y-41410450D01*
X105671769Y-41413867D01*
X105677803Y-41415067D01*
X105677805Y-41415068D01*
X105727239Y-41424901D01*
X105727242Y-41424901D01*
X105730252Y-41425500D01*
X107469748Y-41425500D01*
X107472758Y-41424901D01*
X107472761Y-41424901D01*
X107522195Y-41415068D01*
X107522197Y-41415067D01*
X107528231Y-41413867D01*
X107533345Y-41410450D01*
X107533347Y-41410449D01*
X107589438Y-41372969D01*
X107594552Y-41369552D01*
X107638867Y-41303231D01*
X107650500Y-41244748D01*
X107650500Y-39505252D01*
X107649901Y-39502239D01*
X107640068Y-39452805D01*
X107640067Y-39452803D01*
X107638867Y-39446769D01*
X107594552Y-39380448D01*
X107539966Y-39343974D01*
X107533347Y-39339551D01*
X107533345Y-39339550D01*
X107528231Y-39336133D01*
X107522197Y-39334933D01*
X107522195Y-39334932D01*
X107472761Y-39325099D01*
X107472758Y-39325099D01*
X107469748Y-39324500D01*
X105730252Y-39324500D01*
X105727242Y-39325099D01*
X105727239Y-39325099D01*
X105677805Y-39334932D01*
X105677803Y-39334933D01*
X105671769Y-39336133D01*
X105666655Y-39339550D01*
X105666653Y-39339551D01*
X105660034Y-39343974D01*
X105605448Y-39380448D01*
X105561133Y-39446769D01*
X105559933Y-39452803D01*
X105559932Y-39452805D01*
X105550099Y-39502239D01*
X105549500Y-39505252D01*
X105549500Y-41244748D01*
X96689786Y-41244748D01*
X96665839Y-37820262D01*
X105544520Y-37820262D01*
X105545706Y-37834388D01*
X105559454Y-37998099D01*
X105561759Y-38025553D01*
X105618544Y-38223586D01*
X105712712Y-38406818D01*
X105714603Y-38409204D01*
X105714605Y-38409207D01*
X105743598Y-38445787D01*
X105840677Y-38568270D01*
X105997564Y-38701791D01*
X106177398Y-38802297D01*
X106180302Y-38803241D01*
X106180303Y-38803241D01*
X106370416Y-38865013D01*
X106370421Y-38865014D01*
X106373329Y-38865959D01*
X106376370Y-38866322D01*
X106376372Y-38866322D01*
X106438442Y-38873723D01*
X106577894Y-38890351D01*
X106580936Y-38890117D01*
X106580939Y-38890117D01*
X106780249Y-38874781D01*
X106780251Y-38874781D01*
X106783300Y-38874546D01*
X106981725Y-38819145D01*
X106984448Y-38817770D01*
X106984452Y-38817768D01*
X107162890Y-38727632D01*
X107165610Y-38726258D01*
X107168008Y-38724385D01*
X107168012Y-38724382D01*
X107253014Y-38657971D01*
X107327951Y-38599424D01*
X107356910Y-38565875D01*
X107380980Y-38537989D01*
X107462564Y-38443472D01*
X107564323Y-38264344D01*
X107629351Y-38068863D01*
X107634452Y-38028489D01*
X107654951Y-37866216D01*
X107654951Y-37866215D01*
X107655171Y-37864474D01*
X107655583Y-37835000D01*
X107655414Y-37833280D01*
X107655414Y-37833271D01*
X107635778Y-37633010D01*
X107635480Y-37629970D01*
X107575935Y-37432749D01*
X107479218Y-37250849D01*
X107349011Y-37091200D01*
X107190275Y-36959882D01*
X107009055Y-36861897D01*
X106954143Y-36844899D01*
X106815169Y-36801879D01*
X106815166Y-36801878D01*
X106812254Y-36800977D01*
X106809221Y-36800658D01*
X106809220Y-36800658D01*
X106756660Y-36795134D01*
X106607369Y-36779443D01*
X106604336Y-36779719D01*
X106604332Y-36779719D01*
X106491436Y-36789993D01*
X106402203Y-36798114D01*
X106399270Y-36798977D01*
X106399266Y-36798978D01*
X106249005Y-36843203D01*
X106204572Y-36856280D01*
X106022002Y-36951726D01*
X105861447Y-37080815D01*
X105729024Y-37238630D01*
X105688481Y-37312378D01*
X105640142Y-37400307D01*
X105629776Y-37419162D01*
X105567484Y-37615532D01*
X105567143Y-37618570D01*
X105567143Y-37618571D01*
X105565524Y-37633010D01*
X105544520Y-37820262D01*
X96665839Y-37820262D01*
X96621641Y-31500000D01*
X100494532Y-31500000D01*
X100494770Y-31502720D01*
X100507521Y-31648460D01*
X100514365Y-31726692D01*
X100515070Y-31729325D01*
X100515071Y-31729328D01*
X100562089Y-31904800D01*
X100573261Y-31946496D01*
X100669432Y-32152734D01*
X100799953Y-32339139D01*
X100960861Y-32500047D01*
X101147266Y-32630568D01*
X101149737Y-32631720D01*
X101149740Y-32631722D01*
X101261203Y-32683698D01*
X101353504Y-32726739D01*
X101356137Y-32727444D01*
X101356141Y-32727446D01*
X101570672Y-32784929D01*
X101570675Y-32784930D01*
X101573308Y-32785635D01*
X101576024Y-32785873D01*
X101576026Y-32785873D01*
X101741864Y-32800382D01*
X101741870Y-32800382D01*
X101743216Y-32800500D01*
X101856784Y-32800500D01*
X101858130Y-32800382D01*
X101858136Y-32800382D01*
X102023974Y-32785873D01*
X102023976Y-32785873D01*
X102026692Y-32785635D01*
X102029325Y-32784930D01*
X102029328Y-32784929D01*
X102243859Y-32727446D01*
X102243863Y-32727444D01*
X102246496Y-32726739D01*
X102338797Y-32683698D01*
X102450260Y-32631722D01*
X102450263Y-32631720D01*
X102452734Y-32630568D01*
X102571150Y-32547653D01*
X116925660Y-32547653D01*
X116926133Y-32550780D01*
X116926133Y-32550783D01*
X116954668Y-32739466D01*
X116955142Y-32742598D01*
X117023222Y-32927633D01*
X117127117Y-33095200D01*
X117262585Y-33238452D01*
X117265176Y-33240266D01*
X117421500Y-33349727D01*
X117421504Y-33349729D01*
X117424090Y-33351540D01*
X117605037Y-33429842D01*
X117608131Y-33430488D01*
X117608133Y-33430489D01*
X117709651Y-33451697D01*
X117798032Y-33470161D01*
X117804500Y-33470500D01*
X117949275Y-33470500D01*
X117950849Y-33470340D01*
X117950851Y-33470340D01*
X117972463Y-33468145D01*
X118096153Y-33455581D01*
X118099166Y-33454637D01*
X118099170Y-33454636D01*
X118281271Y-33397568D01*
X118281273Y-33397567D01*
X118284292Y-33396621D01*
X118456734Y-33301035D01*
X118606433Y-33172727D01*
X118727275Y-33016939D01*
X118735610Y-33000000D01*
X118812924Y-32842878D01*
X118812925Y-32842875D01*
X118814323Y-32840034D01*
X118864022Y-32649238D01*
X118874340Y-32452347D01*
X118858514Y-32347695D01*
X118845332Y-32260534D01*
X118845331Y-32260531D01*
X118844858Y-32257402D01*
X118829890Y-32216719D01*
X118807962Y-32157122D01*
X118776778Y-32072367D01*
X118672883Y-31904800D01*
X118537415Y-31761548D01*
X118391207Y-31659171D01*
X118378500Y-31650273D01*
X118378496Y-31650271D01*
X118375910Y-31648460D01*
X118194963Y-31570158D01*
X118191869Y-31569512D01*
X118191867Y-31569511D01*
X118090349Y-31548303D01*
X118001968Y-31529839D01*
X117995500Y-31529500D01*
X117850725Y-31529500D01*
X117849151Y-31529660D01*
X117849149Y-31529660D01*
X117827537Y-31531855D01*
X117703847Y-31544419D01*
X117700834Y-31545363D01*
X117700830Y-31545364D01*
X117518729Y-31602432D01*
X117518727Y-31602433D01*
X117515708Y-31603379D01*
X117343266Y-31698965D01*
X117193567Y-31827273D01*
X117072725Y-31983061D01*
X117071327Y-31985902D01*
X116988135Y-32154971D01*
X116985677Y-32159966D01*
X116935978Y-32350762D01*
X116925660Y-32547653D01*
X102571150Y-32547653D01*
X102639139Y-32500047D01*
X102800047Y-32339139D01*
X102930568Y-32152734D01*
X103026739Y-31946496D01*
X103037912Y-31904800D01*
X103084929Y-31729328D01*
X103084930Y-31729325D01*
X103085635Y-31726692D01*
X103092480Y-31648460D01*
X103105230Y-31502720D01*
X103105468Y-31500000D01*
X103095314Y-31383937D01*
X103085873Y-31276026D01*
X103085873Y-31276024D01*
X103085635Y-31273308D01*
X103026739Y-31053504D01*
X102930568Y-30847266D01*
X102800047Y-30660861D01*
X102639139Y-30499953D01*
X102452734Y-30369432D01*
X102450263Y-30368280D01*
X102450260Y-30368278D01*
X102338797Y-30316302D01*
X102246496Y-30273261D01*
X102243863Y-30272556D01*
X102243859Y-30272554D01*
X102029328Y-30215071D01*
X102029325Y-30215070D01*
X102026692Y-30214365D01*
X102023976Y-30214127D01*
X102023974Y-30214127D01*
X101858136Y-30199618D01*
X101858130Y-30199618D01*
X101856784Y-30199500D01*
X101743216Y-30199500D01*
X101741870Y-30199618D01*
X101741864Y-30199618D01*
X101576026Y-30214127D01*
X101576024Y-30214127D01*
X101573308Y-30214365D01*
X101570675Y-30215070D01*
X101570672Y-30215071D01*
X101356141Y-30272554D01*
X101356137Y-30272556D01*
X101353504Y-30273261D01*
X101261203Y-30316302D01*
X101149740Y-30368278D01*
X101149737Y-30368280D01*
X101147266Y-30369432D01*
X100960861Y-30499953D01*
X100799953Y-30660861D01*
X100669432Y-30847266D01*
X100573261Y-31053504D01*
X100514365Y-31273308D01*
X100514127Y-31276024D01*
X100514127Y-31276026D01*
X100504686Y-31383937D01*
X100494532Y-31500000D01*
X96621641Y-31500000D01*
X96603945Y-28969523D01*
X96604425Y-28961340D01*
X96619112Y-28843743D01*
X96623246Y-28827916D01*
X96666380Y-28721998D01*
X96674479Y-28707786D01*
X96743619Y-28616687D01*
X96755129Y-28605063D01*
X96845538Y-28535026D01*
X96859669Y-28526787D01*
X96965153Y-28482608D01*
X96980939Y-28478317D01*
X97020312Y-28473004D01*
X97098386Y-28462468D01*
X97106561Y-28461907D01*
X107517333Y-28431731D01*
X125192869Y-28380497D01*
X130594852Y-28364839D01*
X130603026Y-28365352D01*
G37*
%TD.AperFunction*%
%TD*%
M02*
