%TF.GenerationSoftware,KiCad,Pcbnew,(6.0.7)*%
%TF.CreationDate,2022-10-02T00:57:54+02:00*%
%TF.ProjectId,sensor_modul,73656e73-6f72-45f6-9d6f-64756c2e6b69,rev?*%
%TF.SameCoordinates,Original*%
%TF.FileFunction,Legend,Bot*%
%TF.FilePolarity,Positive*%
%FSLAX46Y46*%
G04 Gerber Fmt 4.6, Leading zero omitted, Abs format (unit mm)*
G04 Created by KiCad (PCBNEW (6.0.7)) date 2022-10-02 00:57:54*
%MOMM*%
%LPD*%
G01*
G04 APERTURE LIST*
%ADD10C,0.150000*%
%ADD11C,0.120000*%
G04 APERTURE END LIST*
D10*
%TO.C,C17*%
X116407142Y-57157142D02*
X116454761Y-57109523D01*
X116502380Y-56966666D01*
X116502380Y-56871428D01*
X116454761Y-56728571D01*
X116359523Y-56633333D01*
X116264285Y-56585714D01*
X116073809Y-56538095D01*
X115930952Y-56538095D01*
X115740476Y-56585714D01*
X115645238Y-56633333D01*
X115550000Y-56728571D01*
X115502380Y-56871428D01*
X115502380Y-56966666D01*
X115550000Y-57109523D01*
X115597619Y-57157142D01*
X116502380Y-58109523D02*
X116502380Y-57538095D01*
X116502380Y-57823809D02*
X115502380Y-57823809D01*
X115645238Y-57728571D01*
X115740476Y-57633333D01*
X115788095Y-57538095D01*
X115502380Y-58442857D02*
X115502380Y-59109523D01*
X116502380Y-58680952D01*
%TO.C,C11*%
X114207142Y-57157142D02*
X114254761Y-57109523D01*
X114302380Y-56966666D01*
X114302380Y-56871428D01*
X114254761Y-56728571D01*
X114159523Y-56633333D01*
X114064285Y-56585714D01*
X113873809Y-56538095D01*
X113730952Y-56538095D01*
X113540476Y-56585714D01*
X113445238Y-56633333D01*
X113350000Y-56728571D01*
X113302380Y-56871428D01*
X113302380Y-56966666D01*
X113350000Y-57109523D01*
X113397619Y-57157142D01*
X114302380Y-58109523D02*
X114302380Y-57538095D01*
X114302380Y-57823809D02*
X113302380Y-57823809D01*
X113445238Y-57728571D01*
X113540476Y-57633333D01*
X113588095Y-57538095D01*
X114302380Y-59061904D02*
X114302380Y-58490476D01*
X114302380Y-58776190D02*
X113302380Y-58776190D01*
X113445238Y-58680952D01*
X113540476Y-58585714D01*
X113588095Y-58490476D01*
D11*
%TO.C,C17*%
X118435000Y-57572936D02*
X118435000Y-58027064D01*
X116965000Y-57572936D02*
X116965000Y-58027064D01*
%TO.C,C11*%
X116235000Y-57572936D02*
X116235000Y-58027064D01*
X114765000Y-57572936D02*
X114765000Y-58027064D01*
%TD*%
M02*
