%TF.GenerationSoftware,KiCad,Pcbnew,(6.0.7)*%
%TF.CreationDate,2022-10-02T00:57:54+02:00*%
%TF.ProjectId,sensor_modul,73656e73-6f72-45f6-9d6f-64756c2e6b69,rev?*%
%TF.SameCoordinates,Original*%
%TF.FileFunction,Copper,L4,Bot*%
%TF.FilePolarity,Positive*%
%FSLAX46Y46*%
G04 Gerber Fmt 4.6, Leading zero omitted, Abs format (unit mm)*
G04 Created by KiCad (PCBNEW (6.0.7)) date 2022-10-02 00:57:54*
%MOMM*%
%LPD*%
G01*
G04 APERTURE LIST*
G04 Aperture macros list*
%AMRoundRect*
0 Rectangle with rounded corners*
0 $1 Rounding radius*
0 $2 $3 $4 $5 $6 $7 $8 $9 X,Y pos of 4 corners*
0 Add a 4 corners polygon primitive as box body*
4,1,4,$2,$3,$4,$5,$6,$7,$8,$9,$2,$3,0*
0 Add four circle primitives for the rounded corners*
1,1,$1+$1,$2,$3*
1,1,$1+$1,$4,$5*
1,1,$1+$1,$6,$7*
1,1,$1+$1,$8,$9*
0 Add four rect primitives between the rounded corners*
20,1,$1+$1,$2,$3,$4,$5,0*
20,1,$1+$1,$4,$5,$6,$7,0*
20,1,$1+$1,$6,$7,$8,$9,0*
20,1,$1+$1,$8,$9,$2,$3,0*%
G04 Aperture macros list end*
%TA.AperFunction,ComponentPad*%
%ADD10RoundRect,0.200100X-0.949900X-0.949900X0.949900X-0.949900X0.949900X0.949900X-0.949900X0.949900X0*%
%TD*%
%TA.AperFunction,ComponentPad*%
%ADD11C,2.500000*%
%TD*%
%TA.AperFunction,ComponentPad*%
%ADD12R,3.500000X3.500000*%
%TD*%
%TA.AperFunction,ComponentPad*%
%ADD13RoundRect,0.750000X-0.750000X-1.000000X0.750000X-1.000000X0.750000X1.000000X-0.750000X1.000000X0*%
%TD*%
%TA.AperFunction,ComponentPad*%
%ADD14RoundRect,0.875000X-0.875000X-0.875000X0.875000X-0.875000X0.875000X0.875000X-0.875000X0.875000X0*%
%TD*%
%TA.AperFunction,ComponentPad*%
%ADD15R,1.700000X1.700000*%
%TD*%
%TA.AperFunction,ComponentPad*%
%ADD16O,1.700000X1.700000*%
%TD*%
%TA.AperFunction,ComponentPad*%
%ADD17C,0.500000*%
%TD*%
%TA.AperFunction,SMDPad,CuDef*%
%ADD18R,4.300000X4.300000*%
%TD*%
%TA.AperFunction,SMDPad,CuDef*%
%ADD19RoundRect,0.250000X-0.450000X0.262500X-0.450000X-0.262500X0.450000X-0.262500X0.450000X0.262500X0*%
%TD*%
%TA.AperFunction,ViaPad*%
%ADD20C,2.200000*%
%TD*%
%TA.AperFunction,ViaPad*%
%ADD21C,0.400000*%
%TD*%
%TA.AperFunction,ViaPad*%
%ADD22C,0.800000*%
%TD*%
%TA.AperFunction,Conductor*%
%ADD23C,0.200000*%
%TD*%
G04 APERTURE END LIST*
D10*
%TO.P,J2,1,In*%
%TO.N,Net-(C3-Pad1)*%
X117900000Y-32500000D03*
D11*
%TO.P,J2,2,Ext*%
%TO.N,GND*%
X115360000Y-35040000D03*
X115360000Y-29960000D03*
X120440000Y-29960000D03*
X120440000Y-35040000D03*
%TD*%
D12*
%TO.P,J3,1*%
%TO.N,Net-(D4-Pad1)*%
X76800000Y-81242500D03*
D13*
%TO.P,J3,2*%
%TO.N,Net-(D5-Pad2)*%
X70800000Y-81242500D03*
D14*
%TO.P,J3,3*%
%TO.N,N/C*%
X73800000Y-85942500D03*
%TD*%
D15*
%TO.P,TH1,1*%
%TO.N,/EFR32/Temp_sense*%
X104625000Y-95000000D03*
D16*
%TO.P,TH1,2*%
%TO.N,GND*%
X107165000Y-95000000D03*
%TD*%
D15*
%TO.P,J1,1,Pin_1*%
%TO.N,/EFR32/SPI_CS1*%
X116900000Y-82450000D03*
D16*
%TO.P,J1,2,Pin_2*%
%TO.N,GND*%
X116900000Y-79910000D03*
%TO.P,J1,3,Pin_3*%
%TO.N,/EFR32/SPI_CLK*%
X116900000Y-77370000D03*
%TO.P,J1,4,Pin_4*%
%TO.N,/EFR32/SPI_MOSI*%
X116900000Y-74830000D03*
%TO.P,J1,5,Pin_5*%
%TO.N,/EFR32/SPI_MISO*%
X116900000Y-72290000D03*
%TO.P,J1,6,Pin_6*%
%TO.N,+3V3*%
X116900000Y-69750000D03*
%TD*%
D15*
%TO.P,J4,1,Pin_1*%
%TO.N,/EFR32/SPI_CS2*%
X112250000Y-91300000D03*
D16*
%TO.P,J4,2,Pin_2*%
%TO.N,GND*%
X114790000Y-91300000D03*
%TO.P,J4,3,Pin_3*%
%TO.N,/EFR32/SPI_CLK*%
X117330000Y-91300000D03*
%TO.P,J4,4,Pin_4*%
%TO.N,/EFR32/SPI_MOSI*%
X119870000Y-91300000D03*
%TO.P,J4,5,Pin_5*%
%TO.N,/EFR32/SPI_MISO*%
X122410000Y-91300000D03*
%TO.P,J4,6,Pin_6*%
%TO.N,+3V3*%
X124950000Y-91300000D03*
%TD*%
D17*
%TO.P,U2,49*%
%TO.N,N/C*%
X120110000Y-50631667D03*
X118843333Y-49365000D03*
X117576667Y-51898333D03*
X117576667Y-50631667D03*
D18*
X118210000Y-51265000D03*
D17*
X118843333Y-53165000D03*
X116310000Y-50631667D03*
X118843333Y-50631667D03*
X116310000Y-49365000D03*
X116310000Y-51898333D03*
X116310000Y-53165000D03*
X120110000Y-51898333D03*
X117576667Y-53165000D03*
X118843333Y-51898333D03*
X120110000Y-49365000D03*
X120110000Y-53165000D03*
X117576667Y-49365000D03*
%TD*%
D15*
%TO.P,J7,1,Pin_1*%
%TO.N,+3V3*%
X107000000Y-55675000D03*
D16*
%TO.P,J7,2,Pin_2*%
%TO.N,/EFR32/SWDIO*%
X107000000Y-58215000D03*
%TO.P,J7,3,Pin_3*%
%TO.N,/EFR32/SWCLK*%
X107000000Y-60755000D03*
%TO.P,J7,4,Pin_4*%
%TO.N,/EFR32/RESET*%
X107000000Y-63295000D03*
%TO.P,J7,5,Pin_5*%
%TO.N,GND*%
X107000000Y-65835000D03*
%TD*%
D15*
%TO.P,J6,1,Pin_1*%
%TO.N,Net-(D3-Pad2)*%
X106600000Y-40375000D03*
D16*
%TO.P,J6,2,Pin_2*%
%TO.N,+3V3*%
X106600000Y-37835000D03*
%TD*%
D15*
%TO.P,J5,1,Pin_1*%
%TO.N,/EFR32/SPI_CS3*%
X125000000Y-82650000D03*
D16*
%TO.P,J5,2,Pin_2*%
%TO.N,GND*%
X125000000Y-80110000D03*
%TO.P,J5,3,Pin_3*%
%TO.N,/EFR32/SPI_CLK*%
X125000000Y-77570000D03*
%TO.P,J5,4,Pin_4*%
%TO.N,/EFR32/SPI_MOSI*%
X125000000Y-75030000D03*
%TO.P,J5,5,Pin_5*%
%TO.N,/EFR32/SPI_MISO*%
X125000000Y-72490000D03*
%TO.P,J5,6,Pin_6*%
%TO.N,+3V3*%
X125000000Y-69950000D03*
%TD*%
D15*
%TO.P,J8,1,Pin_1*%
%TO.N,Net-(D4-Pad2)*%
X82700000Y-81225000D03*
D16*
%TO.P,J8,2,Pin_2*%
%TO.N,Net-(D5-Pad1)*%
X82700000Y-83765000D03*
%TD*%
D19*
%TO.P,C17,1*%
%TO.N,VDCDC*%
X117700000Y-56887500D03*
%TO.P,C17,2*%
%TO.N,GND*%
X117700000Y-58712500D03*
%TD*%
%TO.P,C11,1*%
%TO.N,+3V3*%
X115500000Y-56887500D03*
%TO.P,C11,2*%
%TO.N,GND*%
X115500000Y-58712500D03*
%TD*%
D20*
%TO.N,*%
X68000000Y-39000000D03*
X74000000Y-33000000D03*
X74000000Y-39000000D03*
X68000000Y-51000000D03*
X74000000Y-51000000D03*
X68000000Y-45000000D03*
X86000000Y-33000000D03*
X92000000Y-39000000D03*
X74000000Y-45000000D03*
X80000000Y-33000000D03*
X86000000Y-39000000D03*
X80000000Y-39000000D03*
D21*
%TO.N,/EFR32/SPI_CS1*%
X113036532Y-52038612D03*
%TO.N,+3V3*%
X115900000Y-55200000D03*
D22*
X99300000Y-88500000D03*
X99300000Y-86900000D03*
X78300000Y-48000000D03*
X88800000Y-52300000D03*
X102300000Y-86900000D03*
D21*
X119600000Y-56000000D03*
D22*
X100700000Y-86900000D03*
%TO.N,GND*%
X129500000Y-55500000D03*
X110000000Y-46000000D03*
X63600000Y-58200000D03*
D21*
X119200000Y-39900000D03*
D22*
X129500000Y-49500000D03*
X63600000Y-76300000D03*
X73660000Y-63500000D03*
X86100000Y-46300000D03*
D21*
X119200000Y-41800000D03*
D22*
X129500000Y-65500000D03*
X75000000Y-60000000D03*
X129500000Y-93500000D03*
X117500000Y-98000000D03*
X125500000Y-41500000D03*
X129500000Y-47500000D03*
X73500000Y-98000000D03*
X88900000Y-63500000D03*
X127500000Y-35500000D03*
X87500000Y-98000000D03*
X78740000Y-71120000D03*
X129500000Y-37500000D03*
X106000000Y-31900000D03*
X70000000Y-67620000D03*
X129500000Y-77500000D03*
X63600000Y-72300000D03*
X125500000Y-37500000D03*
X127500000Y-49500000D03*
X110000000Y-42000000D03*
X127500000Y-47500000D03*
X109500000Y-98000000D03*
X110000000Y-44000000D03*
X129500000Y-53500000D03*
X123500000Y-39500000D03*
X103500000Y-98000000D03*
X63600000Y-78300000D03*
X127500000Y-39500000D03*
X69465514Y-97941378D03*
X63600000Y-88300000D03*
X129500000Y-79500000D03*
X85000000Y-60000000D03*
X129500000Y-63500000D03*
X123500000Y-98000000D03*
X112000000Y-30000000D03*
D21*
X84800000Y-49900000D03*
D22*
X125500000Y-39500000D03*
X63600000Y-74300000D03*
D21*
X121200000Y-42400000D03*
D22*
X125500000Y-43500000D03*
X73660000Y-71120000D03*
X80000000Y-60000000D03*
X112000000Y-46000000D03*
X129500000Y-81500000D03*
X113500000Y-98000000D03*
X63600000Y-86300000D03*
X66200000Y-63500000D03*
X63600000Y-62200000D03*
X112000000Y-34000000D03*
X121500000Y-98000000D03*
X114000000Y-39000000D03*
X129500000Y-75500000D03*
X123500000Y-33500000D03*
X129500000Y-41500000D03*
X63600000Y-80300000D03*
X129500000Y-61500000D03*
X85000000Y-67620000D03*
X108000000Y-30000000D03*
X125500000Y-98000000D03*
X79500000Y-98000000D03*
X108000000Y-34000000D03*
X123500000Y-31500000D03*
X110000000Y-32000000D03*
X83820000Y-71120000D03*
X127500000Y-41500000D03*
X95500000Y-98000000D03*
X127500000Y-33500000D03*
X110000000Y-30000000D03*
D21*
X116616388Y-55209988D03*
D22*
X90000000Y-67620000D03*
X108000000Y-31900000D03*
X78740000Y-63500000D03*
X63600000Y-82300000D03*
X89500000Y-98000000D03*
X127500000Y-53500000D03*
X129500000Y-33500000D03*
X82600000Y-46300000D03*
X112000000Y-36000000D03*
X125500000Y-31500000D03*
X129500000Y-29500000D03*
X77500000Y-98000000D03*
X129500000Y-59500000D03*
X129500000Y-73500000D03*
X112000000Y-44000000D03*
X127500000Y-29500000D03*
X129500000Y-89500000D03*
X129500000Y-67500000D03*
X88300000Y-46300000D03*
X129500000Y-35500000D03*
X129500000Y-57500000D03*
X67486214Y-97894252D03*
X123500000Y-35500000D03*
X63600000Y-64200000D03*
D21*
X121200000Y-40800000D03*
D22*
X129500000Y-95500000D03*
X110000000Y-38000000D03*
X110000000Y-34000000D03*
X110000000Y-40000000D03*
X127500000Y-51500000D03*
X80000000Y-67620000D03*
X115500000Y-98000000D03*
X123500000Y-29500000D03*
X85500000Y-98000000D03*
X129500000Y-43500000D03*
X97500000Y-98000000D03*
X119500000Y-98000000D03*
X129500000Y-31500000D03*
X84400000Y-46300000D03*
X81500000Y-98000000D03*
X75000000Y-67620000D03*
X129500000Y-85500000D03*
X81600000Y-51500000D03*
X129500000Y-91500000D03*
X107500000Y-98000000D03*
X99500000Y-98000000D03*
X106000000Y-30000000D03*
X112000000Y-42000000D03*
D21*
X121200000Y-39200000D03*
D22*
X114000000Y-43000000D03*
X114000000Y-45000000D03*
X63600000Y-60200000D03*
D21*
X117000000Y-38000000D03*
D22*
X127500000Y-31500000D03*
X129500000Y-69500000D03*
X129500000Y-97500000D03*
X91500000Y-98000000D03*
X105500000Y-98000000D03*
D21*
X120600000Y-37800000D03*
D22*
X75500000Y-98000000D03*
X125500000Y-29500000D03*
X127500000Y-43500000D03*
X127500000Y-98000000D03*
X63600000Y-90300000D03*
X114000000Y-41000000D03*
X129500000Y-83500000D03*
X87100000Y-51100000D03*
X123500000Y-43500000D03*
X93500000Y-98000000D03*
X110000000Y-36000000D03*
X70000000Y-60000000D03*
X129500000Y-71500000D03*
X63600000Y-84300000D03*
X129500000Y-51500000D03*
X71500000Y-98000000D03*
X112000000Y-40000000D03*
X63600000Y-92300000D03*
X127500000Y-37500000D03*
X101500000Y-98000000D03*
X112000000Y-32000000D03*
X106000000Y-34000000D03*
X125500000Y-35500000D03*
X88900000Y-71120000D03*
D21*
X84800000Y-48400000D03*
D22*
X90000000Y-60000000D03*
X127500000Y-45500000D03*
X83820000Y-63500000D03*
X123500000Y-37500000D03*
X129500000Y-39500000D03*
X112000000Y-38000000D03*
X111500000Y-98000000D03*
X83500000Y-98000000D03*
X125500000Y-33500000D03*
X93980000Y-63500000D03*
X129500000Y-87500000D03*
X80700000Y-46300000D03*
X123500000Y-41500000D03*
X129500000Y-45500000D03*
D21*
%TO.N,VDCDC*%
X117400500Y-46900000D03*
X117500000Y-55200000D03*
X124300000Y-45100000D03*
%TO.N,/EFR32/SPI_CLK*%
X113467447Y-52455403D03*
%TO.N,/EFR32/SPI_MOSI*%
X113820904Y-52939625D03*
%TO.N,/EFR32/SPI_MISO*%
X114300000Y-53300000D03*
%TO.N,/EFR32/SPI_CS2*%
X112088752Y-51304351D03*
%TO.N,/EFR32/SPI_CS3*%
X112558478Y-51676856D03*
%TO.N,/EFR32/RESET*%
X121300000Y-48200000D03*
D22*
X122000000Y-60700000D03*
D21*
%TO.N,/EFR32/SWDIO*%
X112500000Y-48500000D03*
%TO.N,/EFR32/SWCLK*%
X113000000Y-49100000D03*
%TD*%
D23*
%TO.N,+3V3*%
X115500000Y-56000000D02*
X115500000Y-56887500D01*
X115500000Y-56000000D02*
X115500000Y-55600000D01*
X115500000Y-55600000D02*
X115900000Y-55200000D01*
%TO.N,VDCDC*%
X117500000Y-56687500D02*
X117700000Y-56887500D01*
X123400000Y-55200000D02*
X117500000Y-55200000D01*
X124300000Y-54300000D02*
X124300000Y-46800000D01*
X124300000Y-46800000D02*
X124300000Y-45100000D01*
X117400500Y-46900000D02*
X124200000Y-46900000D01*
X123400000Y-55200000D02*
X124300000Y-54300000D01*
X117500000Y-55200000D02*
X117500000Y-56687500D01*
X124200000Y-46900000D02*
X124300000Y-46800000D01*
%TD*%
%TA.AperFunction,Conductor*%
%TO.N,GND*%
G36*
X113385123Y-28018806D02*
G01*
X113399456Y-28044769D01*
X113399455Y-28045563D01*
X113402502Y-28051908D01*
X113402502Y-28051909D01*
X113427748Y-28104484D01*
X113439052Y-28128024D01*
X113510492Y-28185156D01*
X113577219Y-28200500D01*
X122222603Y-28200500D01*
X122265959Y-28190610D01*
X122282325Y-28186877D01*
X122282326Y-28186877D01*
X122289185Y-28185312D01*
X122325555Y-28156330D01*
X122355219Y-28132692D01*
X122355220Y-28132691D01*
X122360724Y-28128305D01*
X122372214Y-28104484D01*
X122397408Y-28052252D01*
X122397409Y-28052250D01*
X122400465Y-28045913D01*
X122400465Y-28045778D01*
X122425849Y-28010056D01*
X122459064Y-28000500D01*
X131023179Y-28000500D01*
X131067373Y-28018806D01*
X131085142Y-28054825D01*
X131097455Y-28148157D01*
X131097992Y-28156330D01*
X131098282Y-38404109D01*
X131099499Y-81337590D01*
X131099500Y-81378705D01*
X131099500Y-98548325D01*
X131098966Y-98556481D01*
X131084026Y-98669988D01*
X131079803Y-98685749D01*
X131036150Y-98791139D01*
X131027992Y-98805269D01*
X130958551Y-98895769D01*
X130947014Y-98907306D01*
X130856515Y-98976749D01*
X130842386Y-98984907D01*
X130818639Y-98994743D01*
X130794722Y-98999500D01*
X62579439Y-98999500D01*
X62555556Y-98994756D01*
X62530073Y-98984219D01*
X62515960Y-98976085D01*
X62425528Y-98906836D01*
X62413995Y-98895330D01*
X62344536Y-98805068D01*
X62336368Y-98790973D01*
X62292591Y-98685819D01*
X62288344Y-98670091D01*
X62288331Y-98669988D01*
X62272685Y-98553115D01*
X62272132Y-98544975D01*
X62270122Y-97700500D01*
X62267026Y-96400000D01*
X63094532Y-96400000D01*
X63114365Y-96626692D01*
X63173261Y-96846496D01*
X63269432Y-97052734D01*
X63399953Y-97239139D01*
X63560861Y-97400047D01*
X63747266Y-97530568D01*
X63749737Y-97531720D01*
X63749740Y-97531722D01*
X63861203Y-97583698D01*
X63953504Y-97626739D01*
X63956137Y-97627444D01*
X63956141Y-97627446D01*
X64170672Y-97684929D01*
X64170675Y-97684930D01*
X64173308Y-97685635D01*
X64176024Y-97685873D01*
X64176026Y-97685873D01*
X64341864Y-97700382D01*
X64341870Y-97700382D01*
X64343216Y-97700500D01*
X64456784Y-97700500D01*
X64458130Y-97700382D01*
X64458136Y-97700382D01*
X64623974Y-97685873D01*
X64623976Y-97685873D01*
X64626692Y-97685635D01*
X64629325Y-97684930D01*
X64629328Y-97684929D01*
X64843859Y-97627446D01*
X64843863Y-97627444D01*
X64846496Y-97626739D01*
X64938797Y-97583698D01*
X65050260Y-97531722D01*
X65050263Y-97531720D01*
X65052734Y-97530568D01*
X65239139Y-97400047D01*
X65400047Y-97239139D01*
X65530568Y-97052734D01*
X65626739Y-96846496D01*
X65685635Y-96626692D01*
X65705468Y-96400000D01*
X65699624Y-96333204D01*
X65685873Y-96176026D01*
X65685873Y-96176024D01*
X65685635Y-96173308D01*
X65684929Y-96170672D01*
X65627446Y-95956141D01*
X65627444Y-95956137D01*
X65626739Y-95953504D01*
X65587683Y-95869748D01*
X103574500Y-95869748D01*
X103586133Y-95928231D01*
X103630448Y-95994552D01*
X103635562Y-95997969D01*
X103691653Y-96035449D01*
X103691655Y-96035450D01*
X103696769Y-96038867D01*
X103702803Y-96040067D01*
X103702805Y-96040068D01*
X103752239Y-96049901D01*
X103752242Y-96049901D01*
X103755252Y-96050500D01*
X105494748Y-96050500D01*
X105497758Y-96049901D01*
X105497761Y-96049901D01*
X105547195Y-96040068D01*
X105547197Y-96040067D01*
X105553231Y-96038867D01*
X105558345Y-96035450D01*
X105558347Y-96035449D01*
X105614438Y-95997969D01*
X105619552Y-95994552D01*
X105663867Y-95928231D01*
X105675500Y-95869748D01*
X105675500Y-95262051D01*
X105831924Y-95262051D01*
X105864139Y-95404994D01*
X105865664Y-95409861D01*
X105947747Y-95612008D01*
X105950057Y-95616582D01*
X106064051Y-95802602D01*
X106067072Y-95806731D01*
X106209917Y-95971635D01*
X106213580Y-95975222D01*
X106381437Y-96114580D01*
X106385631Y-96117517D01*
X106573999Y-96227590D01*
X106578615Y-96229802D01*
X106782442Y-96307635D01*
X106787343Y-96309059D01*
X106898817Y-96331738D01*
X106908158Y-96329923D01*
X106911000Y-96325709D01*
X106911000Y-96324201D01*
X107419000Y-96324201D01*
X107422641Y-96332991D01*
X107428495Y-96335416D01*
X107445762Y-96333204D01*
X107450772Y-96332139D01*
X107659749Y-96269443D01*
X107664499Y-96267581D01*
X107860436Y-96171592D01*
X107864824Y-96168976D01*
X108042449Y-96042278D01*
X108046352Y-96038980D01*
X108200897Y-95884973D01*
X108204210Y-95881080D01*
X108331522Y-95703906D01*
X108334161Y-95699515D01*
X108430825Y-95503930D01*
X108432710Y-95499170D01*
X108496136Y-95290413D01*
X108497215Y-95285420D01*
X108499728Y-95266326D01*
X108497266Y-95257135D01*
X108491835Y-95254000D01*
X107431431Y-95254000D01*
X107422641Y-95257641D01*
X107419000Y-95266431D01*
X107419000Y-96324201D01*
X106911000Y-96324201D01*
X106911000Y-95266431D01*
X106907359Y-95257641D01*
X106898569Y-95254000D01*
X105842541Y-95254000D01*
X105833751Y-95257641D01*
X105831924Y-95262051D01*
X105675500Y-95262051D01*
X105675500Y-94736924D01*
X105828628Y-94736924D01*
X105830347Y-94742767D01*
X105836274Y-94746000D01*
X106898569Y-94746000D01*
X106907359Y-94742359D01*
X106911000Y-94733569D01*
X107419000Y-94733569D01*
X107422641Y-94742359D01*
X107431431Y-94746000D01*
X108489028Y-94746000D01*
X108497818Y-94742359D01*
X108499515Y-94738261D01*
X108455580Y-94563350D01*
X108453932Y-94558510D01*
X108366937Y-94358435D01*
X108364514Y-94353917D01*
X108246013Y-94170741D01*
X108242889Y-94166684D01*
X108096057Y-94005318D01*
X108092314Y-94001827D01*
X107921091Y-93866605D01*
X107916834Y-93863777D01*
X107725831Y-93758337D01*
X107721166Y-93756240D01*
X107515503Y-93683411D01*
X107510555Y-93682103D01*
X107431239Y-93667975D01*
X107421947Y-93670018D01*
X107419000Y-93674626D01*
X107419000Y-94733569D01*
X106911000Y-94733569D01*
X106911000Y-93677418D01*
X106907359Y-93668628D01*
X106901922Y-93666376D01*
X106851745Y-93674055D01*
X106846766Y-93675241D01*
X106639394Y-93743020D01*
X106634669Y-93745006D01*
X106441153Y-93845744D01*
X106436819Y-93848474D01*
X106262348Y-93979471D01*
X106258527Y-93982863D01*
X106107793Y-94140598D01*
X106104572Y-94144575D01*
X105981629Y-94324802D01*
X105979096Y-94329261D01*
X105887240Y-94527149D01*
X105885473Y-94531950D01*
X105828628Y-94736924D01*
X105675500Y-94736924D01*
X105675500Y-94130252D01*
X105663867Y-94071769D01*
X105619552Y-94005448D01*
X105585752Y-93982863D01*
X105558347Y-93964551D01*
X105558345Y-93964550D01*
X105553231Y-93961133D01*
X105547197Y-93959933D01*
X105547195Y-93959932D01*
X105497761Y-93950099D01*
X105497758Y-93950099D01*
X105494748Y-93949500D01*
X103755252Y-93949500D01*
X103752242Y-93950099D01*
X103752239Y-93950099D01*
X103702805Y-93959932D01*
X103702803Y-93959933D01*
X103696769Y-93961133D01*
X103691655Y-93964550D01*
X103691653Y-93964551D01*
X103664248Y-93982863D01*
X103630448Y-94005448D01*
X103586133Y-94071769D01*
X103574500Y-94130252D01*
X103574500Y-95869748D01*
X65587683Y-95869748D01*
X65530568Y-95747266D01*
X65400047Y-95560861D01*
X65239139Y-95399953D01*
X65052734Y-95269432D01*
X65050263Y-95268280D01*
X65050260Y-95268278D01*
X64938797Y-95216302D01*
X64846496Y-95173261D01*
X64843863Y-95172556D01*
X64843859Y-95172554D01*
X64629328Y-95115071D01*
X64629325Y-95115070D01*
X64626692Y-95114365D01*
X64623976Y-95114127D01*
X64623974Y-95114127D01*
X64458136Y-95099618D01*
X64458130Y-95099618D01*
X64456784Y-95099500D01*
X64343216Y-95099500D01*
X64341870Y-95099618D01*
X64341864Y-95099618D01*
X64176026Y-95114127D01*
X64176024Y-95114127D01*
X64173308Y-95114365D01*
X64170675Y-95115070D01*
X64170672Y-95115071D01*
X63956141Y-95172554D01*
X63956137Y-95172556D01*
X63953504Y-95173261D01*
X63861203Y-95216302D01*
X63749740Y-95268278D01*
X63749737Y-95268280D01*
X63747266Y-95269432D01*
X63560861Y-95399953D01*
X63399953Y-95560861D01*
X63269432Y-95747266D01*
X63173261Y-95953504D01*
X63172556Y-95956137D01*
X63172554Y-95956141D01*
X63115071Y-96170672D01*
X63114365Y-96173308D01*
X63114127Y-96176024D01*
X63114127Y-96176026D01*
X63100376Y-96333204D01*
X63094532Y-96400000D01*
X62267026Y-96400000D01*
X62256954Y-92169748D01*
X111199500Y-92169748D01*
X111200099Y-92172758D01*
X111200099Y-92172761D01*
X111203779Y-92191258D01*
X111211133Y-92228231D01*
X111255448Y-92294552D01*
X111260562Y-92297969D01*
X111316653Y-92335449D01*
X111316655Y-92335450D01*
X111321769Y-92338867D01*
X111327803Y-92340067D01*
X111327805Y-92340068D01*
X111377239Y-92349901D01*
X111377242Y-92349901D01*
X111380252Y-92350500D01*
X113119748Y-92350500D01*
X113122758Y-92349901D01*
X113122761Y-92349901D01*
X113172195Y-92340068D01*
X113172197Y-92340067D01*
X113178231Y-92338867D01*
X113183345Y-92335450D01*
X113183347Y-92335449D01*
X113239438Y-92297969D01*
X113244552Y-92294552D01*
X113288867Y-92228231D01*
X113296222Y-92191258D01*
X113299901Y-92172761D01*
X113299901Y-92172758D01*
X113300500Y-92169748D01*
X113300500Y-91562051D01*
X113456924Y-91562051D01*
X113489139Y-91704994D01*
X113490664Y-91709861D01*
X113572747Y-91912008D01*
X113575057Y-91916582D01*
X113689051Y-92102602D01*
X113692072Y-92106731D01*
X113834917Y-92271635D01*
X113838580Y-92275222D01*
X114006437Y-92414580D01*
X114010631Y-92417517D01*
X114198999Y-92527590D01*
X114203615Y-92529802D01*
X114407442Y-92607635D01*
X114412343Y-92609059D01*
X114523817Y-92631738D01*
X114533158Y-92629923D01*
X114536000Y-92625709D01*
X114536000Y-92624201D01*
X115044000Y-92624201D01*
X115047641Y-92632991D01*
X115053495Y-92635416D01*
X115070762Y-92633204D01*
X115075772Y-92632139D01*
X115284749Y-92569443D01*
X115289499Y-92567581D01*
X115485436Y-92471592D01*
X115489824Y-92468976D01*
X115667449Y-92342278D01*
X115671352Y-92338980D01*
X115825897Y-92184973D01*
X115829210Y-92181080D01*
X115956522Y-92003906D01*
X115959161Y-91999515D01*
X116055825Y-91803930D01*
X116057710Y-91799170D01*
X116121136Y-91590413D01*
X116122215Y-91585420D01*
X116124728Y-91566326D01*
X116122266Y-91557135D01*
X116116835Y-91554000D01*
X115056431Y-91554000D01*
X115047641Y-91557641D01*
X115044000Y-91566431D01*
X115044000Y-92624201D01*
X114536000Y-92624201D01*
X114536000Y-91566431D01*
X114532359Y-91557641D01*
X114523569Y-91554000D01*
X113467541Y-91554000D01*
X113458751Y-91557641D01*
X113456924Y-91562051D01*
X113300500Y-91562051D01*
X113300500Y-91285262D01*
X116274520Y-91285262D01*
X116291759Y-91490553D01*
X116348544Y-91688586D01*
X116442712Y-91871818D01*
X116444603Y-91874204D01*
X116444605Y-91874207D01*
X116473598Y-91910787D01*
X116570677Y-92033270D01*
X116573007Y-92035253D01*
X116656994Y-92106731D01*
X116727564Y-92166791D01*
X116907398Y-92267297D01*
X116910302Y-92268241D01*
X116910303Y-92268241D01*
X117100416Y-92330013D01*
X117100421Y-92330014D01*
X117103329Y-92330959D01*
X117106370Y-92331322D01*
X117106372Y-92331322D01*
X117175344Y-92339546D01*
X117307894Y-92355351D01*
X117310936Y-92355117D01*
X117310939Y-92355117D01*
X117510249Y-92339781D01*
X117510251Y-92339781D01*
X117513300Y-92339546D01*
X117711725Y-92284145D01*
X117714448Y-92282770D01*
X117714452Y-92282768D01*
X117892890Y-92192632D01*
X117895610Y-92191258D01*
X117898008Y-92189385D01*
X117898012Y-92189382D01*
X118009085Y-92102602D01*
X118057951Y-92064424D01*
X118086910Y-92030875D01*
X118113978Y-91999515D01*
X118192564Y-91908472D01*
X118294323Y-91729344D01*
X118359351Y-91533863D01*
X118364452Y-91493489D01*
X118384951Y-91331216D01*
X118384951Y-91331215D01*
X118385171Y-91329474D01*
X118385583Y-91300000D01*
X118385414Y-91298280D01*
X118385414Y-91298271D01*
X118384138Y-91285262D01*
X118814520Y-91285262D01*
X118831759Y-91490553D01*
X118888544Y-91688586D01*
X118982712Y-91871818D01*
X118984603Y-91874204D01*
X118984605Y-91874207D01*
X119013598Y-91910787D01*
X119110677Y-92033270D01*
X119113007Y-92035253D01*
X119196994Y-92106731D01*
X119267564Y-92166791D01*
X119447398Y-92267297D01*
X119450302Y-92268241D01*
X119450303Y-92268241D01*
X119640416Y-92330013D01*
X119640421Y-92330014D01*
X119643329Y-92330959D01*
X119646370Y-92331322D01*
X119646372Y-92331322D01*
X119715344Y-92339546D01*
X119847894Y-92355351D01*
X119850936Y-92355117D01*
X119850939Y-92355117D01*
X120050249Y-92339781D01*
X120050251Y-92339781D01*
X120053300Y-92339546D01*
X120251725Y-92284145D01*
X120254448Y-92282770D01*
X120254452Y-92282768D01*
X120432890Y-92192632D01*
X120435610Y-92191258D01*
X120438008Y-92189385D01*
X120438012Y-92189382D01*
X120549085Y-92102602D01*
X120597951Y-92064424D01*
X120626910Y-92030875D01*
X120653978Y-91999515D01*
X120732564Y-91908472D01*
X120834323Y-91729344D01*
X120899351Y-91533863D01*
X120904452Y-91493489D01*
X120924951Y-91331216D01*
X120924951Y-91331215D01*
X120925171Y-91329474D01*
X120925583Y-91300000D01*
X120925414Y-91298280D01*
X120925414Y-91298271D01*
X120924138Y-91285262D01*
X121354520Y-91285262D01*
X121371759Y-91490553D01*
X121428544Y-91688586D01*
X121522712Y-91871818D01*
X121524603Y-91874204D01*
X121524605Y-91874207D01*
X121553598Y-91910787D01*
X121650677Y-92033270D01*
X121653007Y-92035253D01*
X121736994Y-92106731D01*
X121807564Y-92166791D01*
X121987398Y-92267297D01*
X121990302Y-92268241D01*
X121990303Y-92268241D01*
X122180416Y-92330013D01*
X122180421Y-92330014D01*
X122183329Y-92330959D01*
X122186370Y-92331322D01*
X122186372Y-92331322D01*
X122255344Y-92339546D01*
X122387894Y-92355351D01*
X122390936Y-92355117D01*
X122390939Y-92355117D01*
X122590249Y-92339781D01*
X122590251Y-92339781D01*
X122593300Y-92339546D01*
X122791725Y-92284145D01*
X122794448Y-92282770D01*
X122794452Y-92282768D01*
X122972890Y-92192632D01*
X122975610Y-92191258D01*
X122978008Y-92189385D01*
X122978012Y-92189382D01*
X123089085Y-92102602D01*
X123137951Y-92064424D01*
X123166910Y-92030875D01*
X123193978Y-91999515D01*
X123272564Y-91908472D01*
X123374323Y-91729344D01*
X123439351Y-91533863D01*
X123444452Y-91493489D01*
X123464951Y-91331216D01*
X123464951Y-91331215D01*
X123465171Y-91329474D01*
X123465583Y-91300000D01*
X123465414Y-91298280D01*
X123465414Y-91298271D01*
X123464138Y-91285262D01*
X123894520Y-91285262D01*
X123911759Y-91490553D01*
X123968544Y-91688586D01*
X124062712Y-91871818D01*
X124064603Y-91874204D01*
X124064605Y-91874207D01*
X124093598Y-91910787D01*
X124190677Y-92033270D01*
X124193007Y-92035253D01*
X124276994Y-92106731D01*
X124347564Y-92166791D01*
X124527398Y-92267297D01*
X124530302Y-92268241D01*
X124530303Y-92268241D01*
X124720416Y-92330013D01*
X124720421Y-92330014D01*
X124723329Y-92330959D01*
X124726370Y-92331322D01*
X124726372Y-92331322D01*
X124795344Y-92339546D01*
X124927894Y-92355351D01*
X124930936Y-92355117D01*
X124930939Y-92355117D01*
X125130249Y-92339781D01*
X125130251Y-92339781D01*
X125133300Y-92339546D01*
X125331725Y-92284145D01*
X125334448Y-92282770D01*
X125334452Y-92282768D01*
X125512890Y-92192632D01*
X125515610Y-92191258D01*
X125518008Y-92189385D01*
X125518012Y-92189382D01*
X125629085Y-92102602D01*
X125677951Y-92064424D01*
X125706910Y-92030875D01*
X125733978Y-91999515D01*
X125812564Y-91908472D01*
X125914323Y-91729344D01*
X125979351Y-91533863D01*
X125984452Y-91493489D01*
X126004951Y-91331216D01*
X126004951Y-91331215D01*
X126005171Y-91329474D01*
X126005583Y-91300000D01*
X126005414Y-91298280D01*
X126005414Y-91298271D01*
X125985778Y-91098010D01*
X125985480Y-91094970D01*
X125925935Y-90897749D01*
X125829218Y-90715849D01*
X125699011Y-90556200D01*
X125540275Y-90424882D01*
X125359055Y-90326897D01*
X125289764Y-90305448D01*
X125165169Y-90266879D01*
X125165166Y-90266878D01*
X125162254Y-90265977D01*
X125159221Y-90265658D01*
X125159220Y-90265658D01*
X125104739Y-90259932D01*
X124957369Y-90244443D01*
X124954336Y-90244719D01*
X124954332Y-90244719D01*
X124841436Y-90254993D01*
X124752203Y-90263114D01*
X124749270Y-90263977D01*
X124749266Y-90263978D01*
X124619974Y-90302031D01*
X124554572Y-90321280D01*
X124372002Y-90416726D01*
X124211447Y-90545815D01*
X124079024Y-90703630D01*
X123979776Y-90884162D01*
X123917484Y-91080532D01*
X123917143Y-91083570D01*
X123917143Y-91083571D01*
X123915524Y-91098010D01*
X123894520Y-91285262D01*
X123464138Y-91285262D01*
X123445778Y-91098010D01*
X123445480Y-91094970D01*
X123385935Y-90897749D01*
X123289218Y-90715849D01*
X123159011Y-90556200D01*
X123000275Y-90424882D01*
X122819055Y-90326897D01*
X122749764Y-90305448D01*
X122625169Y-90266879D01*
X122625166Y-90266878D01*
X122622254Y-90265977D01*
X122619221Y-90265658D01*
X122619220Y-90265658D01*
X122564739Y-90259932D01*
X122417369Y-90244443D01*
X122414336Y-90244719D01*
X122414332Y-90244719D01*
X122301436Y-90254993D01*
X122212203Y-90263114D01*
X122209270Y-90263977D01*
X122209266Y-90263978D01*
X122079974Y-90302031D01*
X122014572Y-90321280D01*
X121832002Y-90416726D01*
X121671447Y-90545815D01*
X121539024Y-90703630D01*
X121439776Y-90884162D01*
X121377484Y-91080532D01*
X121377143Y-91083570D01*
X121377143Y-91083571D01*
X121375524Y-91098010D01*
X121354520Y-91285262D01*
X120924138Y-91285262D01*
X120905778Y-91098010D01*
X120905480Y-91094970D01*
X120845935Y-90897749D01*
X120749218Y-90715849D01*
X120619011Y-90556200D01*
X120460275Y-90424882D01*
X120279055Y-90326897D01*
X120209764Y-90305448D01*
X120085169Y-90266879D01*
X120085166Y-90266878D01*
X120082254Y-90265977D01*
X120079221Y-90265658D01*
X120079220Y-90265658D01*
X120024739Y-90259932D01*
X119877369Y-90244443D01*
X119874336Y-90244719D01*
X119874332Y-90244719D01*
X119761436Y-90254993D01*
X119672203Y-90263114D01*
X119669270Y-90263977D01*
X119669266Y-90263978D01*
X119539974Y-90302031D01*
X119474572Y-90321280D01*
X119292002Y-90416726D01*
X119131447Y-90545815D01*
X118999024Y-90703630D01*
X118899776Y-90884162D01*
X118837484Y-91080532D01*
X118837143Y-91083570D01*
X118837143Y-91083571D01*
X118835524Y-91098010D01*
X118814520Y-91285262D01*
X118384138Y-91285262D01*
X118365778Y-91098010D01*
X118365480Y-91094970D01*
X118305935Y-90897749D01*
X118209218Y-90715849D01*
X118079011Y-90556200D01*
X117920275Y-90424882D01*
X117739055Y-90326897D01*
X117669764Y-90305448D01*
X117545169Y-90266879D01*
X117545166Y-90266878D01*
X117542254Y-90265977D01*
X117539221Y-90265658D01*
X117539220Y-90265658D01*
X117484739Y-90259932D01*
X117337369Y-90244443D01*
X117334336Y-90244719D01*
X117334332Y-90244719D01*
X117221436Y-90254993D01*
X117132203Y-90263114D01*
X117129270Y-90263977D01*
X117129266Y-90263978D01*
X116999974Y-90302031D01*
X116934572Y-90321280D01*
X116752002Y-90416726D01*
X116591447Y-90545815D01*
X116459024Y-90703630D01*
X116359776Y-90884162D01*
X116297484Y-91080532D01*
X116297143Y-91083570D01*
X116297143Y-91083571D01*
X116295524Y-91098010D01*
X116274520Y-91285262D01*
X113300500Y-91285262D01*
X113300500Y-91036924D01*
X113453628Y-91036924D01*
X113455347Y-91042767D01*
X113461274Y-91046000D01*
X114523569Y-91046000D01*
X114532359Y-91042359D01*
X114536000Y-91033569D01*
X115044000Y-91033569D01*
X115047641Y-91042359D01*
X115056431Y-91046000D01*
X116114028Y-91046000D01*
X116122818Y-91042359D01*
X116124515Y-91038261D01*
X116080580Y-90863350D01*
X116078932Y-90858510D01*
X115991937Y-90658435D01*
X115989514Y-90653917D01*
X115871013Y-90470741D01*
X115867889Y-90466684D01*
X115721057Y-90305318D01*
X115717314Y-90301827D01*
X115546091Y-90166605D01*
X115541834Y-90163777D01*
X115350831Y-90058337D01*
X115346166Y-90056240D01*
X115140503Y-89983411D01*
X115135555Y-89982103D01*
X115056239Y-89967975D01*
X115046947Y-89970018D01*
X115044000Y-89974626D01*
X115044000Y-91033569D01*
X114536000Y-91033569D01*
X114536000Y-89977418D01*
X114532359Y-89968628D01*
X114526922Y-89966376D01*
X114476745Y-89974055D01*
X114471766Y-89975241D01*
X114264394Y-90043020D01*
X114259669Y-90045006D01*
X114066153Y-90145744D01*
X114061819Y-90148474D01*
X113887348Y-90279471D01*
X113883527Y-90282863D01*
X113732793Y-90440598D01*
X113729572Y-90444575D01*
X113606629Y-90624802D01*
X113604096Y-90629261D01*
X113512240Y-90827149D01*
X113510473Y-90831950D01*
X113453628Y-91036924D01*
X113300500Y-91036924D01*
X113300500Y-90430252D01*
X113299432Y-90424882D01*
X113290068Y-90377805D01*
X113290067Y-90377803D01*
X113288867Y-90371769D01*
X113244552Y-90305448D01*
X113210752Y-90282863D01*
X113183347Y-90264551D01*
X113183345Y-90264550D01*
X113178231Y-90261133D01*
X113172197Y-90259933D01*
X113172195Y-90259932D01*
X113122761Y-90250099D01*
X113122758Y-90250099D01*
X113119748Y-90249500D01*
X111380252Y-90249500D01*
X111377242Y-90250099D01*
X111377239Y-90250099D01*
X111327805Y-90259932D01*
X111327803Y-90259933D01*
X111321769Y-90261133D01*
X111316655Y-90264550D01*
X111316653Y-90264551D01*
X111289248Y-90282863D01*
X111255448Y-90305448D01*
X111211133Y-90371769D01*
X111209933Y-90377803D01*
X111209932Y-90377805D01*
X111200568Y-90424882D01*
X111199500Y-90430252D01*
X111199500Y-92169748D01*
X62256954Y-92169748D01*
X62248216Y-88500000D01*
X98694318Y-88500000D01*
X98714956Y-88656762D01*
X98775464Y-88802841D01*
X98871718Y-88928282D01*
X98997159Y-89024536D01*
X99000942Y-89026103D01*
X99139452Y-89083476D01*
X99139453Y-89083476D01*
X99143238Y-89085044D01*
X99147300Y-89085579D01*
X99147301Y-89085579D01*
X99295936Y-89105147D01*
X99300000Y-89105682D01*
X99304064Y-89105147D01*
X99452699Y-89085579D01*
X99452700Y-89085579D01*
X99456762Y-89085044D01*
X99460547Y-89083476D01*
X99460548Y-89083476D01*
X99599058Y-89026103D01*
X99602841Y-89024536D01*
X99728282Y-88928282D01*
X99824536Y-88802841D01*
X99885044Y-88656762D01*
X99905682Y-88500000D01*
X99885044Y-88343238D01*
X99824536Y-88197159D01*
X99728282Y-88071718D01*
X99602841Y-87975464D01*
X99599058Y-87973897D01*
X99460548Y-87916524D01*
X99460547Y-87916524D01*
X99456762Y-87914956D01*
X99452700Y-87914421D01*
X99452699Y-87914421D01*
X99304064Y-87894853D01*
X99300000Y-87894318D01*
X99295936Y-87894853D01*
X99147301Y-87914421D01*
X99147300Y-87914421D01*
X99143238Y-87914956D01*
X99139453Y-87916524D01*
X99139452Y-87916524D01*
X99000942Y-87973897D01*
X98997159Y-87975464D01*
X98871718Y-88071718D01*
X98775464Y-88197159D01*
X98714956Y-88343238D01*
X98694318Y-88500000D01*
X62248216Y-88500000D01*
X62244406Y-86899842D01*
X71849500Y-86899842D01*
X71852433Y-86947295D01*
X71896327Y-87147771D01*
X71977338Y-87336330D01*
X71979009Y-87338794D01*
X71979011Y-87338797D01*
X72090876Y-87503710D01*
X72090880Y-87503714D01*
X72092544Y-87506168D01*
X72237786Y-87651157D01*
X72240250Y-87652822D01*
X72404012Y-87763489D01*
X72407825Y-87766066D01*
X72410562Y-87767236D01*
X72410567Y-87767239D01*
X72593781Y-87845575D01*
X72593783Y-87845576D01*
X72596525Y-87846748D01*
X72599436Y-87847380D01*
X72599439Y-87847381D01*
X72777874Y-87886123D01*
X72797077Y-87890292D01*
X72842658Y-87893000D01*
X74757342Y-87893000D01*
X74767813Y-87892353D01*
X74802390Y-87890216D01*
X74802395Y-87890215D01*
X74804795Y-87890067D01*
X75005271Y-87846173D01*
X75193830Y-87765162D01*
X75196294Y-87763491D01*
X75196297Y-87763489D01*
X75361210Y-87651624D01*
X75361214Y-87651620D01*
X75363668Y-87649956D01*
X75508657Y-87504714D01*
X75564523Y-87422045D01*
X75621897Y-87337145D01*
X75621898Y-87337144D01*
X75623566Y-87334675D01*
X75624736Y-87331938D01*
X75624739Y-87331933D01*
X75703075Y-87148719D01*
X75703076Y-87148717D01*
X75704248Y-87145975D01*
X75747792Y-86945423D01*
X75750491Y-86900000D01*
X98694318Y-86900000D01*
X98714956Y-87056762D01*
X98716524Y-87060547D01*
X98716524Y-87060548D01*
X98773897Y-87199058D01*
X98775464Y-87202841D01*
X98871718Y-87328282D01*
X98997159Y-87424536D01*
X99000942Y-87426103D01*
X99139452Y-87483476D01*
X99139453Y-87483476D01*
X99143238Y-87485044D01*
X99147300Y-87485579D01*
X99147301Y-87485579D01*
X99295936Y-87505147D01*
X99300000Y-87505682D01*
X99304064Y-87505147D01*
X99452699Y-87485579D01*
X99452700Y-87485579D01*
X99456762Y-87485044D01*
X99460547Y-87483476D01*
X99460548Y-87483476D01*
X99599058Y-87426103D01*
X99602841Y-87424536D01*
X99728282Y-87328282D01*
X99824536Y-87202841D01*
X99826103Y-87199058D01*
X99883476Y-87060548D01*
X99883476Y-87060547D01*
X99885044Y-87056762D01*
X99905682Y-86900000D01*
X100094318Y-86900000D01*
X100114956Y-87056762D01*
X100116524Y-87060547D01*
X100116524Y-87060548D01*
X100173897Y-87199058D01*
X100175464Y-87202841D01*
X100271718Y-87328282D01*
X100397159Y-87424536D01*
X100400942Y-87426103D01*
X100539452Y-87483476D01*
X100539453Y-87483476D01*
X100543238Y-87485044D01*
X100547300Y-87485579D01*
X100547301Y-87485579D01*
X100695936Y-87505147D01*
X100700000Y-87505682D01*
X100704064Y-87505147D01*
X100852699Y-87485579D01*
X100852700Y-87485579D01*
X100856762Y-87485044D01*
X100860547Y-87483476D01*
X100860548Y-87483476D01*
X100999058Y-87426103D01*
X101002841Y-87424536D01*
X101128282Y-87328282D01*
X101224536Y-87202841D01*
X101226103Y-87199058D01*
X101283476Y-87060548D01*
X101283476Y-87060547D01*
X101285044Y-87056762D01*
X101305682Y-86900000D01*
X101694318Y-86900000D01*
X101714956Y-87056762D01*
X101716524Y-87060547D01*
X101716524Y-87060548D01*
X101773897Y-87199058D01*
X101775464Y-87202841D01*
X101871718Y-87328282D01*
X101997159Y-87424536D01*
X102000942Y-87426103D01*
X102139452Y-87483476D01*
X102139453Y-87483476D01*
X102143238Y-87485044D01*
X102147300Y-87485579D01*
X102147301Y-87485579D01*
X102295936Y-87505147D01*
X102300000Y-87505682D01*
X102304064Y-87505147D01*
X102452699Y-87485579D01*
X102452700Y-87485579D01*
X102456762Y-87485044D01*
X102460547Y-87483476D01*
X102460548Y-87483476D01*
X102599058Y-87426103D01*
X102602841Y-87424536D01*
X102728282Y-87328282D01*
X102824536Y-87202841D01*
X102826103Y-87199058D01*
X102883476Y-87060548D01*
X102883476Y-87060547D01*
X102885044Y-87056762D01*
X102905682Y-86900000D01*
X102885044Y-86743238D01*
X102824536Y-86597159D01*
X102728282Y-86471718D01*
X102602841Y-86375464D01*
X102599058Y-86373897D01*
X102460548Y-86316524D01*
X102460547Y-86316524D01*
X102456762Y-86314956D01*
X102452700Y-86314421D01*
X102452699Y-86314421D01*
X102304064Y-86294853D01*
X102300000Y-86294318D01*
X102295936Y-86294853D01*
X102147301Y-86314421D01*
X102147300Y-86314421D01*
X102143238Y-86314956D01*
X102139453Y-86316524D01*
X102139452Y-86316524D01*
X102000942Y-86373897D01*
X101997159Y-86375464D01*
X101871718Y-86471718D01*
X101775464Y-86597159D01*
X101714956Y-86743238D01*
X101694318Y-86900000D01*
X101305682Y-86900000D01*
X101285044Y-86743238D01*
X101224536Y-86597159D01*
X101128282Y-86471718D01*
X101002841Y-86375464D01*
X100999058Y-86373897D01*
X100860548Y-86316524D01*
X100860547Y-86316524D01*
X100856762Y-86314956D01*
X100852700Y-86314421D01*
X100852699Y-86314421D01*
X100704064Y-86294853D01*
X100700000Y-86294318D01*
X100695936Y-86294853D01*
X100547301Y-86314421D01*
X100547300Y-86314421D01*
X100543238Y-86314956D01*
X100539453Y-86316524D01*
X100539452Y-86316524D01*
X100400942Y-86373897D01*
X100397159Y-86375464D01*
X100271718Y-86471718D01*
X100175464Y-86597159D01*
X100114956Y-86743238D01*
X100094318Y-86900000D01*
X99905682Y-86900000D01*
X99885044Y-86743238D01*
X99824536Y-86597159D01*
X99728282Y-86471718D01*
X99602841Y-86375464D01*
X99599058Y-86373897D01*
X99460548Y-86316524D01*
X99460547Y-86316524D01*
X99456762Y-86314956D01*
X99452700Y-86314421D01*
X99452699Y-86314421D01*
X99304064Y-86294853D01*
X99300000Y-86294318D01*
X99295936Y-86294853D01*
X99147301Y-86314421D01*
X99147300Y-86314421D01*
X99143238Y-86314956D01*
X99139453Y-86316524D01*
X99139452Y-86316524D01*
X99000942Y-86373897D01*
X98997159Y-86375464D01*
X98871718Y-86471718D01*
X98775464Y-86597159D01*
X98714956Y-86743238D01*
X98694318Y-86900000D01*
X75750491Y-86900000D01*
X75750500Y-86899842D01*
X75750500Y-84985158D01*
X75747567Y-84937705D01*
X75703673Y-84737229D01*
X75622662Y-84548670D01*
X75620989Y-84546203D01*
X75509124Y-84381290D01*
X75509120Y-84381286D01*
X75507456Y-84378832D01*
X75362214Y-84233843D01*
X75243452Y-84153586D01*
X75194645Y-84120603D01*
X75194644Y-84120602D01*
X75192175Y-84118934D01*
X75189438Y-84117764D01*
X75189433Y-84117761D01*
X75006219Y-84039425D01*
X75006217Y-84039424D01*
X75003475Y-84038252D01*
X75000564Y-84037620D01*
X75000561Y-84037619D01*
X74805281Y-83995220D01*
X74802923Y-83994708D01*
X74757342Y-83992000D01*
X72842658Y-83992000D01*
X72832187Y-83992647D01*
X72797610Y-83994784D01*
X72797605Y-83994785D01*
X72795205Y-83994933D01*
X72594729Y-84038827D01*
X72406170Y-84119838D01*
X72403706Y-84121509D01*
X72403703Y-84121511D01*
X72238790Y-84233376D01*
X72238786Y-84233380D01*
X72236332Y-84235044D01*
X72091343Y-84380286D01*
X72089678Y-84382750D01*
X71979220Y-84546203D01*
X71976434Y-84550325D01*
X71975264Y-84553062D01*
X71975261Y-84553067D01*
X71898225Y-84733241D01*
X71895752Y-84739025D01*
X71895120Y-84741936D01*
X71895119Y-84741939D01*
X71881705Y-84803723D01*
X71852208Y-84939577D01*
X71849500Y-84985158D01*
X71849500Y-86899842D01*
X62244406Y-86899842D01*
X62236907Y-83750262D01*
X81644520Y-83750262D01*
X81661759Y-83955553D01*
X81718544Y-84153586D01*
X81812712Y-84336818D01*
X81814603Y-84339204D01*
X81814605Y-84339207D01*
X81845498Y-84378184D01*
X81940677Y-84498270D01*
X81943007Y-84500253D01*
X82001842Y-84550325D01*
X82097564Y-84631791D01*
X82277398Y-84732297D01*
X82280302Y-84733241D01*
X82280303Y-84733241D01*
X82470416Y-84795013D01*
X82470421Y-84795014D01*
X82473329Y-84795959D01*
X82476370Y-84796322D01*
X82476372Y-84796322D01*
X82538442Y-84803723D01*
X82677894Y-84820351D01*
X82680936Y-84820117D01*
X82680939Y-84820117D01*
X82880249Y-84804781D01*
X82880251Y-84804781D01*
X82883300Y-84804546D01*
X83081725Y-84749145D01*
X83084448Y-84747770D01*
X83084452Y-84747768D01*
X83262890Y-84657632D01*
X83265610Y-84656258D01*
X83268008Y-84654385D01*
X83268012Y-84654382D01*
X83397689Y-84553067D01*
X83427951Y-84529424D01*
X83456910Y-84495875D01*
X83480980Y-84467989D01*
X83562564Y-84373472D01*
X83641202Y-84235044D01*
X83662811Y-84197006D01*
X83662812Y-84197004D01*
X83664323Y-84194344D01*
X83729351Y-83998863D01*
X83729783Y-83995448D01*
X83754951Y-83796216D01*
X83754951Y-83796215D01*
X83755171Y-83794474D01*
X83755583Y-83765000D01*
X83755414Y-83763280D01*
X83755414Y-83763271D01*
X83735778Y-83563010D01*
X83735480Y-83559970D01*
X83723336Y-83519748D01*
X123949500Y-83519748D01*
X123950099Y-83522758D01*
X123950099Y-83522761D01*
X123957501Y-83559970D01*
X123961133Y-83578231D01*
X124005448Y-83644552D01*
X124010562Y-83647969D01*
X124066653Y-83685449D01*
X124066655Y-83685450D01*
X124071769Y-83688867D01*
X124077803Y-83690067D01*
X124077805Y-83690068D01*
X124127239Y-83699901D01*
X124127242Y-83699901D01*
X124130252Y-83700500D01*
X125869748Y-83700500D01*
X125872758Y-83699901D01*
X125872761Y-83699901D01*
X125922195Y-83690068D01*
X125922197Y-83690067D01*
X125928231Y-83688867D01*
X125933345Y-83685450D01*
X125933347Y-83685449D01*
X125989438Y-83647969D01*
X125994552Y-83644552D01*
X126038867Y-83578231D01*
X126042500Y-83559970D01*
X126049901Y-83522761D01*
X126049901Y-83522758D01*
X126050500Y-83519748D01*
X126050500Y-81780252D01*
X126038867Y-81721769D01*
X125994552Y-81655448D01*
X125977680Y-81644174D01*
X125933347Y-81614551D01*
X125933345Y-81614550D01*
X125928231Y-81611133D01*
X125922197Y-81609933D01*
X125922195Y-81609932D01*
X125872761Y-81600099D01*
X125872758Y-81600099D01*
X125869748Y-81599500D01*
X124130252Y-81599500D01*
X124127242Y-81600099D01*
X124127239Y-81600099D01*
X124077805Y-81609932D01*
X124077803Y-81609933D01*
X124071769Y-81611133D01*
X124066655Y-81614550D01*
X124066653Y-81614551D01*
X124022320Y-81644174D01*
X124005448Y-81655448D01*
X123961133Y-81721769D01*
X123949500Y-81780252D01*
X123949500Y-83519748D01*
X83723336Y-83519748D01*
X83675935Y-83362749D01*
X83653071Y-83319748D01*
X115849500Y-83319748D01*
X115850099Y-83322758D01*
X115850099Y-83322761D01*
X115858636Y-83365677D01*
X115861133Y-83378231D01*
X115905448Y-83444552D01*
X115910562Y-83447969D01*
X115966653Y-83485449D01*
X115966655Y-83485450D01*
X115971769Y-83488867D01*
X115977803Y-83490067D01*
X115977805Y-83490068D01*
X116027239Y-83499901D01*
X116027242Y-83499901D01*
X116030252Y-83500500D01*
X117769748Y-83500500D01*
X117772758Y-83499901D01*
X117772761Y-83499901D01*
X117822195Y-83490068D01*
X117822197Y-83490067D01*
X117828231Y-83488867D01*
X117833345Y-83485450D01*
X117833347Y-83485449D01*
X117889438Y-83447969D01*
X117894552Y-83444552D01*
X117938867Y-83378231D01*
X117941365Y-83365677D01*
X117949901Y-83322761D01*
X117949901Y-83322758D01*
X117950500Y-83319748D01*
X117950500Y-81580252D01*
X117938867Y-81521769D01*
X117894552Y-81455448D01*
X117837962Y-81417635D01*
X117833347Y-81414551D01*
X117833345Y-81414550D01*
X117828231Y-81411133D01*
X117822197Y-81409933D01*
X117822195Y-81409932D01*
X117772761Y-81400099D01*
X117772758Y-81400099D01*
X117769748Y-81399500D01*
X116030252Y-81399500D01*
X116027242Y-81400099D01*
X116027239Y-81400099D01*
X115977805Y-81409932D01*
X115977803Y-81409933D01*
X115971769Y-81411133D01*
X115966655Y-81414550D01*
X115966653Y-81414551D01*
X115962038Y-81417635D01*
X115905448Y-81455448D01*
X115861133Y-81521769D01*
X115849500Y-81580252D01*
X115849500Y-83319748D01*
X83653071Y-83319748D01*
X83585614Y-83192878D01*
X83580653Y-83183547D01*
X83580651Y-83183544D01*
X83579218Y-83180849D01*
X83449011Y-83021200D01*
X83290275Y-82889882D01*
X83109055Y-82791897D01*
X83024171Y-82765621D01*
X82915169Y-82731879D01*
X82915166Y-82731878D01*
X82912254Y-82730977D01*
X82909221Y-82730658D01*
X82909220Y-82730658D01*
X82856660Y-82725134D01*
X82707369Y-82709443D01*
X82704336Y-82709719D01*
X82704332Y-82709719D01*
X82591436Y-82719993D01*
X82502203Y-82728114D01*
X82499270Y-82728977D01*
X82499266Y-82728978D01*
X82374765Y-82765621D01*
X82304572Y-82786280D01*
X82122002Y-82881726D01*
X81961447Y-83010815D01*
X81829024Y-83168630D01*
X81729776Y-83349162D01*
X81667484Y-83545532D01*
X81667143Y-83548570D01*
X81667143Y-83548571D01*
X81650102Y-83700500D01*
X81644520Y-83750262D01*
X62236907Y-83750262D01*
X62233448Y-82297424D01*
X69099500Y-82297424D01*
X69109698Y-82411687D01*
X69162923Y-82597306D01*
X69252385Y-82768430D01*
X69374429Y-82918071D01*
X69524070Y-83040115D01*
X69695194Y-83129577D01*
X69698233Y-83130448D01*
X69698237Y-83130450D01*
X69823207Y-83166284D01*
X69880813Y-83182802D01*
X69883771Y-83183066D01*
X69993705Y-83192878D01*
X69993713Y-83192878D01*
X69995076Y-83193000D01*
X71604924Y-83193000D01*
X71606287Y-83192878D01*
X71606295Y-83192878D01*
X71716229Y-83183066D01*
X71719187Y-83182802D01*
X71776793Y-83166284D01*
X71901763Y-83130450D01*
X71901767Y-83130448D01*
X71904806Y-83129577D01*
X72075930Y-83040115D01*
X72110098Y-83012248D01*
X74849500Y-83012248D01*
X74850099Y-83015258D01*
X74850099Y-83015261D01*
X74851281Y-83021200D01*
X74861133Y-83070731D01*
X74905448Y-83137052D01*
X74910562Y-83140469D01*
X74966653Y-83177949D01*
X74966655Y-83177950D01*
X74971769Y-83181367D01*
X74977803Y-83182567D01*
X74977805Y-83182568D01*
X75027239Y-83192401D01*
X75027242Y-83192401D01*
X75030252Y-83193000D01*
X78569748Y-83193000D01*
X78572758Y-83192401D01*
X78572761Y-83192401D01*
X78622195Y-83182568D01*
X78622197Y-83182567D01*
X78628231Y-83181367D01*
X78633345Y-83177950D01*
X78633347Y-83177949D01*
X78689438Y-83140469D01*
X78694552Y-83137052D01*
X78738867Y-83070731D01*
X78748720Y-83021200D01*
X78749901Y-83015261D01*
X78749901Y-83015258D01*
X78750500Y-83012248D01*
X78750500Y-82094748D01*
X81649500Y-82094748D01*
X81661133Y-82153231D01*
X81705448Y-82219552D01*
X81710562Y-82222969D01*
X81766653Y-82260449D01*
X81766655Y-82260450D01*
X81771769Y-82263867D01*
X81777803Y-82265067D01*
X81777805Y-82265068D01*
X81827239Y-82274901D01*
X81827242Y-82274901D01*
X81830252Y-82275500D01*
X83569748Y-82275500D01*
X83572758Y-82274901D01*
X83572761Y-82274901D01*
X83622195Y-82265068D01*
X83622197Y-82265067D01*
X83628231Y-82263867D01*
X83633345Y-82260450D01*
X83633347Y-82260449D01*
X83689438Y-82222969D01*
X83694552Y-82219552D01*
X83738867Y-82153231D01*
X83750500Y-82094748D01*
X83750500Y-80355252D01*
X83749901Y-80352239D01*
X83740068Y-80302805D01*
X83740067Y-80302803D01*
X83738867Y-80296769D01*
X83694552Y-80230448D01*
X83677680Y-80219174D01*
X83633347Y-80189551D01*
X83633345Y-80189550D01*
X83628231Y-80186133D01*
X83622197Y-80184933D01*
X83622195Y-80184932D01*
X83572761Y-80175099D01*
X83572758Y-80175099D01*
X83569748Y-80174500D01*
X81830252Y-80174500D01*
X81827242Y-80175099D01*
X81827239Y-80175099D01*
X81777805Y-80184932D01*
X81777803Y-80184933D01*
X81771769Y-80186133D01*
X81766655Y-80189550D01*
X81766653Y-80189551D01*
X81722320Y-80219174D01*
X81705448Y-80230448D01*
X81661133Y-80296769D01*
X81659933Y-80302803D01*
X81659932Y-80302805D01*
X81650099Y-80352239D01*
X81649500Y-80355252D01*
X81649500Y-82094748D01*
X78750500Y-82094748D01*
X78750500Y-80172051D01*
X115566924Y-80172051D01*
X115599139Y-80314994D01*
X115600664Y-80319861D01*
X115682747Y-80522008D01*
X115685057Y-80526582D01*
X115799051Y-80712602D01*
X115802072Y-80716731D01*
X115944917Y-80881635D01*
X115948580Y-80885222D01*
X116116437Y-81024580D01*
X116120631Y-81027517D01*
X116308999Y-81137590D01*
X116313615Y-81139802D01*
X116517442Y-81217635D01*
X116522343Y-81219059D01*
X116633817Y-81241738D01*
X116643158Y-81239923D01*
X116646000Y-81235709D01*
X116646000Y-81234201D01*
X117154000Y-81234201D01*
X117157641Y-81242991D01*
X117163495Y-81245416D01*
X117180762Y-81243204D01*
X117185772Y-81242139D01*
X117394749Y-81179443D01*
X117399499Y-81177581D01*
X117595436Y-81081592D01*
X117599824Y-81078976D01*
X117777449Y-80952278D01*
X117781352Y-80948980D01*
X117935897Y-80794973D01*
X117939210Y-80791080D01*
X118066522Y-80613906D01*
X118069161Y-80609515D01*
X118165825Y-80413930D01*
X118167710Y-80409170D01*
X118178988Y-80372051D01*
X123666924Y-80372051D01*
X123699139Y-80514994D01*
X123700664Y-80519861D01*
X123782747Y-80722008D01*
X123785057Y-80726582D01*
X123899051Y-80912602D01*
X123902072Y-80916731D01*
X124044917Y-81081635D01*
X124048580Y-81085222D01*
X124216437Y-81224580D01*
X124220631Y-81227517D01*
X124408999Y-81337590D01*
X124413615Y-81339802D01*
X124617442Y-81417635D01*
X124622343Y-81419059D01*
X124733817Y-81441738D01*
X124743158Y-81439923D01*
X124746000Y-81435709D01*
X124746000Y-81434201D01*
X125254000Y-81434201D01*
X125257641Y-81442991D01*
X125263495Y-81445416D01*
X125280762Y-81443204D01*
X125285772Y-81442139D01*
X125494749Y-81379443D01*
X125499499Y-81377581D01*
X125695436Y-81281592D01*
X125699824Y-81278976D01*
X125877449Y-81152278D01*
X125881352Y-81148980D01*
X126035897Y-80994973D01*
X126039210Y-80991080D01*
X126166522Y-80813906D01*
X126169161Y-80809515D01*
X126265825Y-80613930D01*
X126267710Y-80609170D01*
X126331136Y-80400413D01*
X126332215Y-80395420D01*
X126334728Y-80376326D01*
X126332266Y-80367135D01*
X126326835Y-80364000D01*
X125266431Y-80364000D01*
X125257641Y-80367641D01*
X125254000Y-80376431D01*
X125254000Y-81434201D01*
X124746000Y-81434201D01*
X124746000Y-80376431D01*
X124742359Y-80367641D01*
X124733569Y-80364000D01*
X123677541Y-80364000D01*
X123668751Y-80367641D01*
X123666924Y-80372051D01*
X118178988Y-80372051D01*
X118231136Y-80200413D01*
X118232215Y-80195420D01*
X118234728Y-80176326D01*
X118232266Y-80167135D01*
X118226835Y-80164000D01*
X117166431Y-80164000D01*
X117157641Y-80167641D01*
X117154000Y-80176431D01*
X117154000Y-81234201D01*
X116646000Y-81234201D01*
X116646000Y-80176431D01*
X116642359Y-80167641D01*
X116633569Y-80164000D01*
X115577541Y-80164000D01*
X115568751Y-80167641D01*
X115566924Y-80172051D01*
X78750500Y-80172051D01*
X78750500Y-79846924D01*
X123663628Y-79846924D01*
X123665347Y-79852767D01*
X123671274Y-79856000D01*
X124733569Y-79856000D01*
X124742359Y-79852359D01*
X124746000Y-79843569D01*
X125254000Y-79843569D01*
X125257641Y-79852359D01*
X125266431Y-79856000D01*
X126324028Y-79856000D01*
X126332818Y-79852359D01*
X126334515Y-79848261D01*
X126290580Y-79673350D01*
X126288932Y-79668510D01*
X126201937Y-79468435D01*
X126199514Y-79463917D01*
X126081013Y-79280741D01*
X126077889Y-79276684D01*
X125931057Y-79115318D01*
X125927314Y-79111827D01*
X125756091Y-78976605D01*
X125751834Y-78973777D01*
X125560831Y-78868337D01*
X125556166Y-78866240D01*
X125350503Y-78793411D01*
X125345555Y-78792103D01*
X125266239Y-78777975D01*
X125256947Y-78780018D01*
X125254000Y-78784626D01*
X125254000Y-79843569D01*
X124746000Y-79843569D01*
X124746000Y-78787418D01*
X124742359Y-78778628D01*
X124736922Y-78776376D01*
X124686745Y-78784055D01*
X124681766Y-78785241D01*
X124474394Y-78853020D01*
X124469669Y-78855006D01*
X124276153Y-78955744D01*
X124271819Y-78958474D01*
X124097348Y-79089471D01*
X124093527Y-79092863D01*
X123942793Y-79250598D01*
X123939572Y-79254575D01*
X123816629Y-79434802D01*
X123814096Y-79439261D01*
X123722240Y-79637149D01*
X123720473Y-79641950D01*
X123663628Y-79846924D01*
X78750500Y-79846924D01*
X78750500Y-79646924D01*
X115563628Y-79646924D01*
X115565347Y-79652767D01*
X115571274Y-79656000D01*
X116633569Y-79656000D01*
X116642359Y-79652359D01*
X116646000Y-79643569D01*
X117154000Y-79643569D01*
X117157641Y-79652359D01*
X117166431Y-79656000D01*
X118224028Y-79656000D01*
X118232818Y-79652359D01*
X118234515Y-79648261D01*
X118190580Y-79473350D01*
X118188932Y-79468510D01*
X118101937Y-79268435D01*
X118099514Y-79263917D01*
X117981013Y-79080741D01*
X117977889Y-79076684D01*
X117831057Y-78915318D01*
X117827314Y-78911827D01*
X117656091Y-78776605D01*
X117651834Y-78773777D01*
X117460831Y-78668337D01*
X117456166Y-78666240D01*
X117250503Y-78593411D01*
X117245555Y-78592103D01*
X117166239Y-78577975D01*
X117156947Y-78580018D01*
X117154000Y-78584626D01*
X117154000Y-79643569D01*
X116646000Y-79643569D01*
X116646000Y-78587418D01*
X116642359Y-78578628D01*
X116636922Y-78576376D01*
X116586745Y-78584055D01*
X116581766Y-78585241D01*
X116374394Y-78653020D01*
X116369669Y-78655006D01*
X116176153Y-78755744D01*
X116171819Y-78758474D01*
X115997348Y-78889471D01*
X115993527Y-78892863D01*
X115842793Y-79050598D01*
X115839572Y-79054575D01*
X115716629Y-79234802D01*
X115714096Y-79239261D01*
X115622240Y-79437149D01*
X115620473Y-79441950D01*
X115563628Y-79646924D01*
X78750500Y-79646924D01*
X78750500Y-79472752D01*
X78749901Y-79469739D01*
X78740068Y-79420305D01*
X78740067Y-79420303D01*
X78738867Y-79414269D01*
X78694552Y-79347948D01*
X78677680Y-79336674D01*
X78633347Y-79307051D01*
X78633345Y-79307050D01*
X78628231Y-79303633D01*
X78622197Y-79302433D01*
X78622195Y-79302432D01*
X78572761Y-79292599D01*
X78572758Y-79292599D01*
X78569748Y-79292000D01*
X75030252Y-79292000D01*
X75027242Y-79292599D01*
X75027239Y-79292599D01*
X74977805Y-79302432D01*
X74977803Y-79302433D01*
X74971769Y-79303633D01*
X74966655Y-79307050D01*
X74966653Y-79307051D01*
X74922320Y-79336674D01*
X74905448Y-79347948D01*
X74861133Y-79414269D01*
X74859933Y-79420303D01*
X74859932Y-79420305D01*
X74850099Y-79469739D01*
X74849500Y-79472752D01*
X74849500Y-83012248D01*
X72110098Y-83012248D01*
X72225571Y-82918071D01*
X72347615Y-82768430D01*
X72437077Y-82597306D01*
X72490302Y-82411687D01*
X72500500Y-82297424D01*
X72500500Y-80187576D01*
X72500372Y-80186133D01*
X72490566Y-80076271D01*
X72490302Y-80073313D01*
X72437077Y-79887694D01*
X72347615Y-79716570D01*
X72225571Y-79566929D01*
X72075930Y-79444885D01*
X71904806Y-79355423D01*
X71901767Y-79354552D01*
X71901763Y-79354550D01*
X71743981Y-79309307D01*
X71719187Y-79302198D01*
X71715563Y-79301875D01*
X71606295Y-79292122D01*
X71606287Y-79292122D01*
X71604924Y-79292000D01*
X69995076Y-79292000D01*
X69993713Y-79292122D01*
X69993705Y-79292122D01*
X69884437Y-79301875D01*
X69880813Y-79302198D01*
X69856019Y-79309307D01*
X69698237Y-79354550D01*
X69698233Y-79354552D01*
X69695194Y-79355423D01*
X69524070Y-79444885D01*
X69374429Y-79566929D01*
X69252385Y-79716570D01*
X69162923Y-79887694D01*
X69109698Y-80073313D01*
X69109434Y-80076271D01*
X69099629Y-80186133D01*
X69099500Y-80187576D01*
X69099500Y-82297424D01*
X62233448Y-82297424D01*
X62221681Y-77355262D01*
X115844520Y-77355262D01*
X115845758Y-77370000D01*
X115861315Y-77555262D01*
X115861759Y-77560553D01*
X115918544Y-77758586D01*
X116012712Y-77941818D01*
X116014603Y-77944204D01*
X116014605Y-77944207D01*
X116043598Y-77980787D01*
X116140677Y-78103270D01*
X116297564Y-78236791D01*
X116477398Y-78337297D01*
X116480302Y-78338241D01*
X116480303Y-78338241D01*
X116670416Y-78400013D01*
X116670421Y-78400014D01*
X116673329Y-78400959D01*
X116676370Y-78401322D01*
X116676372Y-78401322D01*
X116738442Y-78408723D01*
X116877894Y-78425351D01*
X116880936Y-78425117D01*
X116880939Y-78425117D01*
X117080249Y-78409781D01*
X117080251Y-78409781D01*
X117083300Y-78409546D01*
X117281725Y-78354145D01*
X117284448Y-78352770D01*
X117284452Y-78352768D01*
X117462890Y-78262632D01*
X117465610Y-78261258D01*
X117468008Y-78259385D01*
X117468012Y-78259382D01*
X117615429Y-78144207D01*
X117627951Y-78134424D01*
X117656910Y-78100875D01*
X117742250Y-78002006D01*
X117762564Y-77978472D01*
X117864323Y-77799344D01*
X117929351Y-77603863D01*
X117929906Y-77599474D01*
X117935491Y-77555262D01*
X123944520Y-77555262D01*
X123961759Y-77760553D01*
X124018544Y-77958586D01*
X124112712Y-78141818D01*
X124114603Y-78144204D01*
X124114605Y-78144207D01*
X124189167Y-78238281D01*
X124240677Y-78303270D01*
X124397564Y-78436791D01*
X124577398Y-78537297D01*
X124580302Y-78538241D01*
X124580303Y-78538241D01*
X124770416Y-78600013D01*
X124770421Y-78600014D01*
X124773329Y-78600959D01*
X124776370Y-78601322D01*
X124776372Y-78601322D01*
X124838442Y-78608723D01*
X124977894Y-78625351D01*
X124980936Y-78625117D01*
X124980939Y-78625117D01*
X125180249Y-78609781D01*
X125180251Y-78609781D01*
X125183300Y-78609546D01*
X125381725Y-78554145D01*
X125384448Y-78552770D01*
X125384452Y-78552768D01*
X125562890Y-78462632D01*
X125565610Y-78461258D01*
X125568008Y-78459385D01*
X125568012Y-78459382D01*
X125702709Y-78354145D01*
X125727951Y-78334424D01*
X125756910Y-78300875D01*
X125792725Y-78259382D01*
X125862564Y-78178472D01*
X125964323Y-77999344D01*
X126029351Y-77803863D01*
X126030289Y-77796442D01*
X126054951Y-77601216D01*
X126054951Y-77601215D01*
X126055171Y-77599474D01*
X126055583Y-77570000D01*
X126055414Y-77568280D01*
X126055414Y-77568271D01*
X126035778Y-77368010D01*
X126035480Y-77364970D01*
X125975935Y-77167749D01*
X125879218Y-76985849D01*
X125749011Y-76826200D01*
X125590275Y-76694882D01*
X125409055Y-76596897D01*
X125354143Y-76579899D01*
X125215169Y-76536879D01*
X125215166Y-76536878D01*
X125212254Y-76535977D01*
X125209221Y-76535658D01*
X125209220Y-76535658D01*
X125156660Y-76530134D01*
X125007369Y-76514443D01*
X125004336Y-76514719D01*
X125004332Y-76514719D01*
X124891436Y-76524993D01*
X124802203Y-76533114D01*
X124799270Y-76533977D01*
X124799266Y-76533978D01*
X124649005Y-76578203D01*
X124604572Y-76591280D01*
X124422002Y-76686726D01*
X124261447Y-76815815D01*
X124129024Y-76973630D01*
X124068446Y-77083822D01*
X124031772Y-77150532D01*
X124029776Y-77154162D01*
X123967484Y-77350532D01*
X123967143Y-77353570D01*
X123967143Y-77353571D01*
X123965524Y-77368010D01*
X123944520Y-77555262D01*
X117935491Y-77555262D01*
X117954951Y-77401216D01*
X117954951Y-77401215D01*
X117955171Y-77399474D01*
X117955583Y-77370000D01*
X117955414Y-77368280D01*
X117955414Y-77368271D01*
X117935778Y-77168010D01*
X117935480Y-77164970D01*
X117875935Y-76967749D01*
X117831033Y-76883301D01*
X117780653Y-76788547D01*
X117780651Y-76788544D01*
X117779218Y-76785849D01*
X117649011Y-76626200D01*
X117490275Y-76494882D01*
X117309055Y-76396897D01*
X117254143Y-76379899D01*
X117115169Y-76336879D01*
X117115166Y-76336878D01*
X117112254Y-76335977D01*
X117109221Y-76335658D01*
X117109220Y-76335658D01*
X117056660Y-76330134D01*
X116907369Y-76314443D01*
X116904336Y-76314719D01*
X116904332Y-76314719D01*
X116791436Y-76324993D01*
X116702203Y-76333114D01*
X116699270Y-76333977D01*
X116699266Y-76333978D01*
X116549005Y-76378203D01*
X116504572Y-76391280D01*
X116322002Y-76486726D01*
X116161447Y-76615815D01*
X116029024Y-76773630D01*
X115929776Y-76954162D01*
X115867484Y-77150532D01*
X115867143Y-77153570D01*
X115867143Y-77153571D01*
X115845051Y-77350532D01*
X115844520Y-77355262D01*
X62221681Y-77355262D01*
X62215633Y-74815262D01*
X115844520Y-74815262D01*
X115845758Y-74830000D01*
X115861315Y-75015262D01*
X115861759Y-75020553D01*
X115918544Y-75218586D01*
X116012712Y-75401818D01*
X116014603Y-75404204D01*
X116014605Y-75404207D01*
X116043598Y-75440787D01*
X116140677Y-75563270D01*
X116297564Y-75696791D01*
X116477398Y-75797297D01*
X116480302Y-75798241D01*
X116480303Y-75798241D01*
X116670416Y-75860013D01*
X116670421Y-75860014D01*
X116673329Y-75860959D01*
X116676370Y-75861322D01*
X116676372Y-75861322D01*
X116738442Y-75868723D01*
X116877894Y-75885351D01*
X116880936Y-75885117D01*
X116880939Y-75885117D01*
X117080249Y-75869781D01*
X117080251Y-75869781D01*
X117083300Y-75869546D01*
X117281725Y-75814145D01*
X117284448Y-75812770D01*
X117284452Y-75812768D01*
X117462890Y-75722632D01*
X117465610Y-75721258D01*
X117468008Y-75719385D01*
X117468012Y-75719382D01*
X117615429Y-75604207D01*
X117627951Y-75594424D01*
X117656910Y-75560875D01*
X117742250Y-75462006D01*
X117762564Y-75438472D01*
X117864323Y-75259344D01*
X117929351Y-75063863D01*
X117929906Y-75059474D01*
X117935491Y-75015262D01*
X123944520Y-75015262D01*
X123961759Y-75220553D01*
X124018544Y-75418586D01*
X124112712Y-75601818D01*
X124114603Y-75604204D01*
X124114605Y-75604207D01*
X124189167Y-75698281D01*
X124240677Y-75763270D01*
X124397564Y-75896791D01*
X124577398Y-75997297D01*
X124580302Y-75998241D01*
X124580303Y-75998241D01*
X124770416Y-76060013D01*
X124770421Y-76060014D01*
X124773329Y-76060959D01*
X124776370Y-76061322D01*
X124776372Y-76061322D01*
X124838442Y-76068723D01*
X124977894Y-76085351D01*
X124980936Y-76085117D01*
X124980939Y-76085117D01*
X125180249Y-76069781D01*
X125180251Y-76069781D01*
X125183300Y-76069546D01*
X125381725Y-76014145D01*
X125384448Y-76012770D01*
X125384452Y-76012768D01*
X125562890Y-75922632D01*
X125565610Y-75921258D01*
X125568008Y-75919385D01*
X125568012Y-75919382D01*
X125702709Y-75814145D01*
X125727951Y-75794424D01*
X125756910Y-75760875D01*
X125792725Y-75719382D01*
X125862564Y-75638472D01*
X125964323Y-75459344D01*
X126029351Y-75263863D01*
X126030289Y-75256442D01*
X126054951Y-75061216D01*
X126054951Y-75061215D01*
X126055171Y-75059474D01*
X126055583Y-75030000D01*
X126055414Y-75028280D01*
X126055414Y-75028271D01*
X126035778Y-74828010D01*
X126035480Y-74824970D01*
X125975935Y-74627749D01*
X125879218Y-74445849D01*
X125749011Y-74286200D01*
X125590275Y-74154882D01*
X125409055Y-74056897D01*
X125354143Y-74039899D01*
X125215169Y-73996879D01*
X125215166Y-73996878D01*
X125212254Y-73995977D01*
X125209221Y-73995658D01*
X125209220Y-73995658D01*
X125156660Y-73990134D01*
X125007369Y-73974443D01*
X125004336Y-73974719D01*
X125004332Y-73974719D01*
X124891436Y-73984993D01*
X124802203Y-73993114D01*
X124799270Y-73993977D01*
X124799266Y-73993978D01*
X124649005Y-74038203D01*
X124604572Y-74051280D01*
X124422002Y-74146726D01*
X124261447Y-74275815D01*
X124129024Y-74433630D01*
X124068446Y-74543822D01*
X124031772Y-74610532D01*
X124029776Y-74614162D01*
X123967484Y-74810532D01*
X123967143Y-74813570D01*
X123967143Y-74813571D01*
X123965524Y-74828010D01*
X123944520Y-75015262D01*
X117935491Y-75015262D01*
X117954951Y-74861216D01*
X117954951Y-74861215D01*
X117955171Y-74859474D01*
X117955583Y-74830000D01*
X117955414Y-74828280D01*
X117955414Y-74828271D01*
X117935778Y-74628010D01*
X117935480Y-74624970D01*
X117875935Y-74427749D01*
X117831033Y-74343301D01*
X117780653Y-74248547D01*
X117780651Y-74248544D01*
X117779218Y-74245849D01*
X117649011Y-74086200D01*
X117490275Y-73954882D01*
X117309055Y-73856897D01*
X117254143Y-73839899D01*
X117115169Y-73796879D01*
X117115166Y-73796878D01*
X117112254Y-73795977D01*
X117109221Y-73795658D01*
X117109220Y-73795658D01*
X117056660Y-73790134D01*
X116907369Y-73774443D01*
X116904336Y-73774719D01*
X116904332Y-73774719D01*
X116791436Y-73784993D01*
X116702203Y-73793114D01*
X116699270Y-73793977D01*
X116699266Y-73793978D01*
X116549005Y-73838203D01*
X116504572Y-73851280D01*
X116322002Y-73946726D01*
X116161447Y-74075815D01*
X116029024Y-74233630D01*
X115929776Y-74414162D01*
X115867484Y-74610532D01*
X115867143Y-74613570D01*
X115867143Y-74613571D01*
X115845051Y-74810532D01*
X115844520Y-74815262D01*
X62215633Y-74815262D01*
X62209585Y-72275262D01*
X115844520Y-72275262D01*
X115845758Y-72290000D01*
X115861315Y-72475262D01*
X115861759Y-72480553D01*
X115918544Y-72678586D01*
X116012712Y-72861818D01*
X116014603Y-72864204D01*
X116014605Y-72864207D01*
X116043598Y-72900787D01*
X116140677Y-73023270D01*
X116297564Y-73156791D01*
X116477398Y-73257297D01*
X116480302Y-73258241D01*
X116480303Y-73258241D01*
X116670416Y-73320013D01*
X116670421Y-73320014D01*
X116673329Y-73320959D01*
X116676370Y-73321322D01*
X116676372Y-73321322D01*
X116738442Y-73328723D01*
X116877894Y-73345351D01*
X116880936Y-73345117D01*
X116880939Y-73345117D01*
X117080249Y-73329781D01*
X117080251Y-73329781D01*
X117083300Y-73329546D01*
X117281725Y-73274145D01*
X117284448Y-73272770D01*
X117284452Y-73272768D01*
X117462890Y-73182632D01*
X117465610Y-73181258D01*
X117468008Y-73179385D01*
X117468012Y-73179382D01*
X117615429Y-73064207D01*
X117627951Y-73054424D01*
X117656910Y-73020875D01*
X117742250Y-72922006D01*
X117762564Y-72898472D01*
X117864323Y-72719344D01*
X117929351Y-72523863D01*
X117929906Y-72519474D01*
X117935491Y-72475262D01*
X123944520Y-72475262D01*
X123961759Y-72680553D01*
X124018544Y-72878586D01*
X124112712Y-73061818D01*
X124114603Y-73064204D01*
X124114605Y-73064207D01*
X124189167Y-73158281D01*
X124240677Y-73223270D01*
X124397564Y-73356791D01*
X124577398Y-73457297D01*
X124580302Y-73458241D01*
X124580303Y-73458241D01*
X124770416Y-73520013D01*
X124770421Y-73520014D01*
X124773329Y-73520959D01*
X124776370Y-73521322D01*
X124776372Y-73521322D01*
X124838442Y-73528723D01*
X124977894Y-73545351D01*
X124980936Y-73545117D01*
X124980939Y-73545117D01*
X125180249Y-73529781D01*
X125180251Y-73529781D01*
X125183300Y-73529546D01*
X125381725Y-73474145D01*
X125384448Y-73472770D01*
X125384452Y-73472768D01*
X125562890Y-73382632D01*
X125565610Y-73381258D01*
X125568008Y-73379385D01*
X125568012Y-73379382D01*
X125702709Y-73274145D01*
X125727951Y-73254424D01*
X125756910Y-73220875D01*
X125792725Y-73179382D01*
X125862564Y-73098472D01*
X125964323Y-72919344D01*
X126029351Y-72723863D01*
X126030289Y-72716442D01*
X126054951Y-72521216D01*
X126054951Y-72521215D01*
X126055171Y-72519474D01*
X126055583Y-72490000D01*
X126055414Y-72488280D01*
X126055414Y-72488271D01*
X126035778Y-72288010D01*
X126035480Y-72284970D01*
X125975935Y-72087749D01*
X125879218Y-71905849D01*
X125749011Y-71746200D01*
X125590275Y-71614882D01*
X125409055Y-71516897D01*
X125354143Y-71499899D01*
X125215169Y-71456879D01*
X125215166Y-71456878D01*
X125212254Y-71455977D01*
X125209221Y-71455658D01*
X125209220Y-71455658D01*
X125156660Y-71450134D01*
X125007369Y-71434443D01*
X125004336Y-71434719D01*
X125004332Y-71434719D01*
X124891436Y-71444993D01*
X124802203Y-71453114D01*
X124799270Y-71453977D01*
X124799266Y-71453978D01*
X124649005Y-71498203D01*
X124604572Y-71511280D01*
X124422002Y-71606726D01*
X124261447Y-71735815D01*
X124129024Y-71893630D01*
X124068446Y-72003822D01*
X124031772Y-72070532D01*
X124029776Y-72074162D01*
X123967484Y-72270532D01*
X123967143Y-72273570D01*
X123967143Y-72273571D01*
X123965524Y-72288010D01*
X123944520Y-72475262D01*
X117935491Y-72475262D01*
X117954951Y-72321216D01*
X117954951Y-72321215D01*
X117955171Y-72319474D01*
X117955583Y-72290000D01*
X117955414Y-72288280D01*
X117955414Y-72288271D01*
X117935778Y-72088010D01*
X117935480Y-72084970D01*
X117875935Y-71887749D01*
X117831033Y-71803301D01*
X117780653Y-71708547D01*
X117780651Y-71708544D01*
X117779218Y-71705849D01*
X117649011Y-71546200D01*
X117490275Y-71414882D01*
X117309055Y-71316897D01*
X117254143Y-71299899D01*
X117115169Y-71256879D01*
X117115166Y-71256878D01*
X117112254Y-71255977D01*
X117109221Y-71255658D01*
X117109220Y-71255658D01*
X117056660Y-71250134D01*
X116907369Y-71234443D01*
X116904336Y-71234719D01*
X116904332Y-71234719D01*
X116791436Y-71244993D01*
X116702203Y-71253114D01*
X116699270Y-71253977D01*
X116699266Y-71253978D01*
X116549005Y-71298203D01*
X116504572Y-71311280D01*
X116322002Y-71406726D01*
X116161447Y-71535815D01*
X116029024Y-71693630D01*
X115929776Y-71874162D01*
X115867484Y-72070532D01*
X115867143Y-72073570D01*
X115867143Y-72073571D01*
X115845051Y-72270532D01*
X115844520Y-72275262D01*
X62209585Y-72275262D01*
X62206354Y-70918241D01*
X62203537Y-69735262D01*
X115844520Y-69735262D01*
X115845758Y-69750000D01*
X115861315Y-69935262D01*
X115861759Y-69940553D01*
X115918544Y-70138586D01*
X116012712Y-70321818D01*
X116014603Y-70324204D01*
X116014605Y-70324207D01*
X116043598Y-70360787D01*
X116140677Y-70483270D01*
X116297564Y-70616791D01*
X116477398Y-70717297D01*
X116480302Y-70718241D01*
X116480303Y-70718241D01*
X116670416Y-70780013D01*
X116670421Y-70780014D01*
X116673329Y-70780959D01*
X116676370Y-70781322D01*
X116676372Y-70781322D01*
X116738442Y-70788723D01*
X116877894Y-70805351D01*
X116880936Y-70805117D01*
X116880939Y-70805117D01*
X117080249Y-70789781D01*
X117080251Y-70789781D01*
X117083300Y-70789546D01*
X117281725Y-70734145D01*
X117284448Y-70732770D01*
X117284452Y-70732768D01*
X117462890Y-70642632D01*
X117465610Y-70641258D01*
X117468008Y-70639385D01*
X117468012Y-70639382D01*
X117615429Y-70524207D01*
X117627951Y-70514424D01*
X117656910Y-70480875D01*
X117742250Y-70382006D01*
X117762564Y-70358472D01*
X117864323Y-70179344D01*
X117929351Y-69983863D01*
X117929906Y-69979474D01*
X117935491Y-69935262D01*
X123944520Y-69935262D01*
X123961759Y-70140553D01*
X124018544Y-70338586D01*
X124112712Y-70521818D01*
X124114603Y-70524204D01*
X124114605Y-70524207D01*
X124189167Y-70618281D01*
X124240677Y-70683270D01*
X124397564Y-70816791D01*
X124577398Y-70917297D01*
X124580302Y-70918241D01*
X124580303Y-70918241D01*
X124770416Y-70980013D01*
X124770421Y-70980014D01*
X124773329Y-70980959D01*
X124776370Y-70981322D01*
X124776372Y-70981322D01*
X124838442Y-70988723D01*
X124977894Y-71005351D01*
X124980936Y-71005117D01*
X124980939Y-71005117D01*
X125180249Y-70989781D01*
X125180251Y-70989781D01*
X125183300Y-70989546D01*
X125381725Y-70934145D01*
X125384448Y-70932770D01*
X125384452Y-70932768D01*
X125562890Y-70842632D01*
X125565610Y-70841258D01*
X125568008Y-70839385D01*
X125568012Y-70839382D01*
X125702709Y-70734145D01*
X125727951Y-70714424D01*
X125756910Y-70680875D01*
X125792725Y-70639382D01*
X125862564Y-70558472D01*
X125964323Y-70379344D01*
X126029351Y-70183863D01*
X126030289Y-70176442D01*
X126054951Y-69981216D01*
X126054951Y-69981215D01*
X126055171Y-69979474D01*
X126055583Y-69950000D01*
X126055414Y-69948280D01*
X126055414Y-69948271D01*
X126035778Y-69748010D01*
X126035480Y-69744970D01*
X125975935Y-69547749D01*
X125879218Y-69365849D01*
X125749011Y-69206200D01*
X125590275Y-69074882D01*
X125409055Y-68976897D01*
X125354143Y-68959899D01*
X125215169Y-68916879D01*
X125215166Y-68916878D01*
X125212254Y-68915977D01*
X125209221Y-68915658D01*
X125209220Y-68915658D01*
X125156660Y-68910134D01*
X125007369Y-68894443D01*
X125004336Y-68894719D01*
X125004332Y-68894719D01*
X124891436Y-68904993D01*
X124802203Y-68913114D01*
X124799270Y-68913977D01*
X124799266Y-68913978D01*
X124649005Y-68958203D01*
X124604572Y-68971280D01*
X124422002Y-69066726D01*
X124261447Y-69195815D01*
X124129024Y-69353630D01*
X124068446Y-69463822D01*
X124031772Y-69530532D01*
X124029776Y-69534162D01*
X123967484Y-69730532D01*
X123967143Y-69733570D01*
X123967143Y-69733571D01*
X123965524Y-69748010D01*
X123944520Y-69935262D01*
X117935491Y-69935262D01*
X117954951Y-69781216D01*
X117954951Y-69781215D01*
X117955171Y-69779474D01*
X117955583Y-69750000D01*
X117955414Y-69748280D01*
X117955414Y-69748271D01*
X117935778Y-69548010D01*
X117935480Y-69544970D01*
X117875935Y-69347749D01*
X117831033Y-69263301D01*
X117780653Y-69168547D01*
X117780651Y-69168544D01*
X117779218Y-69165849D01*
X117649011Y-69006200D01*
X117490275Y-68874882D01*
X117309055Y-68776897D01*
X117254143Y-68759899D01*
X117115169Y-68716879D01*
X117115166Y-68716878D01*
X117112254Y-68715977D01*
X117109221Y-68715658D01*
X117109220Y-68715658D01*
X117056660Y-68710134D01*
X116907369Y-68694443D01*
X116904336Y-68694719D01*
X116904332Y-68694719D01*
X116791436Y-68704993D01*
X116702203Y-68713114D01*
X116699270Y-68713977D01*
X116699266Y-68713978D01*
X116549005Y-68758203D01*
X116504572Y-68771280D01*
X116322002Y-68866726D01*
X116161447Y-68995815D01*
X116029024Y-69153630D01*
X115929776Y-69334162D01*
X115867484Y-69530532D01*
X115867143Y-69533570D01*
X115867143Y-69533571D01*
X115845051Y-69730532D01*
X115844520Y-69735262D01*
X62203537Y-69735262D01*
X62195358Y-66300000D01*
X65694532Y-66300000D01*
X65694770Y-66302720D01*
X65707394Y-66447008D01*
X65714365Y-66526692D01*
X65715070Y-66529325D01*
X65715071Y-66529328D01*
X65717638Y-66538906D01*
X65773261Y-66746496D01*
X65869432Y-66952734D01*
X65999953Y-67139139D01*
X66160861Y-67300047D01*
X66347266Y-67430568D01*
X66349737Y-67431720D01*
X66349740Y-67431722D01*
X66461203Y-67483698D01*
X66553504Y-67526739D01*
X66556137Y-67527444D01*
X66556141Y-67527446D01*
X66770672Y-67584929D01*
X66770675Y-67584930D01*
X66773308Y-67585635D01*
X66776024Y-67585873D01*
X66776026Y-67585873D01*
X66941864Y-67600382D01*
X66941870Y-67600382D01*
X66943216Y-67600500D01*
X67056784Y-67600500D01*
X67058130Y-67600382D01*
X67058136Y-67600382D01*
X67223974Y-67585873D01*
X67223976Y-67585873D01*
X67226692Y-67585635D01*
X67229325Y-67584930D01*
X67229328Y-67584929D01*
X67443859Y-67527446D01*
X67443863Y-67527444D01*
X67446496Y-67526739D01*
X67538797Y-67483698D01*
X67650260Y-67431722D01*
X67650263Y-67431720D01*
X67652734Y-67430568D01*
X67839139Y-67300047D01*
X68000047Y-67139139D01*
X68130568Y-66952734D01*
X68226739Y-66746496D01*
X68282363Y-66538906D01*
X68284929Y-66529328D01*
X68284930Y-66529325D01*
X68285635Y-66526692D01*
X68292607Y-66447008D01*
X68305230Y-66302720D01*
X68305468Y-66300000D01*
X68289757Y-66120420D01*
X68287712Y-66097051D01*
X105666924Y-66097051D01*
X105699139Y-66239994D01*
X105700664Y-66244861D01*
X105782747Y-66447008D01*
X105785057Y-66451582D01*
X105899051Y-66637602D01*
X105902072Y-66641731D01*
X106044917Y-66806635D01*
X106048580Y-66810222D01*
X106216437Y-66949580D01*
X106220631Y-66952517D01*
X106408999Y-67062590D01*
X106413615Y-67064802D01*
X106617442Y-67142635D01*
X106622343Y-67144059D01*
X106733817Y-67166738D01*
X106743158Y-67164923D01*
X106746000Y-67160709D01*
X106746000Y-67159201D01*
X107254000Y-67159201D01*
X107257641Y-67167991D01*
X107263495Y-67170416D01*
X107280762Y-67168204D01*
X107285772Y-67167139D01*
X107494749Y-67104443D01*
X107499499Y-67102581D01*
X107695436Y-67006592D01*
X107699824Y-67003976D01*
X107877449Y-66877278D01*
X107881352Y-66873980D01*
X108035897Y-66719973D01*
X108039210Y-66716080D01*
X108166522Y-66538906D01*
X108169161Y-66534515D01*
X108265825Y-66338930D01*
X108267710Y-66334170D01*
X108331136Y-66125413D01*
X108332215Y-66120420D01*
X108334728Y-66101326D01*
X108332266Y-66092135D01*
X108326835Y-66089000D01*
X107266431Y-66089000D01*
X107257641Y-66092641D01*
X107254000Y-66101431D01*
X107254000Y-67159201D01*
X106746000Y-67159201D01*
X106746000Y-66101431D01*
X106742359Y-66092641D01*
X106733569Y-66089000D01*
X105677541Y-66089000D01*
X105668751Y-66092641D01*
X105666924Y-66097051D01*
X68287712Y-66097051D01*
X68285873Y-66076026D01*
X68285873Y-66076024D01*
X68285635Y-66073308D01*
X68226739Y-65853504D01*
X68167627Y-65726739D01*
X68131722Y-65649740D01*
X68131720Y-65649737D01*
X68130568Y-65647266D01*
X68077813Y-65571924D01*
X105663628Y-65571924D01*
X105665347Y-65577767D01*
X105671274Y-65581000D01*
X106733569Y-65581000D01*
X106742359Y-65577359D01*
X106746000Y-65568569D01*
X107254000Y-65568569D01*
X107257641Y-65577359D01*
X107266431Y-65581000D01*
X108324028Y-65581000D01*
X108332818Y-65577359D01*
X108334515Y-65573261D01*
X108290580Y-65398350D01*
X108288932Y-65393510D01*
X108201937Y-65193435D01*
X108199514Y-65188917D01*
X108081013Y-65005741D01*
X108077889Y-65001684D01*
X107931057Y-64840318D01*
X107927314Y-64836827D01*
X107756091Y-64701605D01*
X107751834Y-64698777D01*
X107560831Y-64593337D01*
X107556166Y-64591240D01*
X107350503Y-64518411D01*
X107345555Y-64517103D01*
X107266239Y-64502975D01*
X107256947Y-64505018D01*
X107254000Y-64509626D01*
X107254000Y-65568569D01*
X106746000Y-65568569D01*
X106746000Y-64512418D01*
X106742359Y-64503628D01*
X106736922Y-64501376D01*
X106686745Y-64509055D01*
X106681766Y-64510241D01*
X106474394Y-64578020D01*
X106469669Y-64580006D01*
X106276153Y-64680744D01*
X106271819Y-64683474D01*
X106097348Y-64814471D01*
X106093527Y-64817863D01*
X105942793Y-64975598D01*
X105939572Y-64979575D01*
X105816629Y-65159802D01*
X105814096Y-65164261D01*
X105722240Y-65362149D01*
X105720473Y-65366950D01*
X105663628Y-65571924D01*
X68077813Y-65571924D01*
X68000047Y-65460861D01*
X67839139Y-65299953D01*
X67652734Y-65169432D01*
X67650263Y-65168280D01*
X67650260Y-65168278D01*
X67538797Y-65116302D01*
X67446496Y-65073261D01*
X67443863Y-65072556D01*
X67443859Y-65072554D01*
X67229328Y-65015071D01*
X67229325Y-65015070D01*
X67226692Y-65014365D01*
X67223976Y-65014127D01*
X67223974Y-65014127D01*
X67058136Y-64999618D01*
X67058130Y-64999618D01*
X67056784Y-64999500D01*
X66943216Y-64999500D01*
X66941870Y-64999618D01*
X66941864Y-64999618D01*
X66776026Y-65014127D01*
X66776024Y-65014127D01*
X66773308Y-65014365D01*
X66770675Y-65015070D01*
X66770672Y-65015071D01*
X66556141Y-65072554D01*
X66556137Y-65072556D01*
X66553504Y-65073261D01*
X66461203Y-65116302D01*
X66349740Y-65168278D01*
X66349737Y-65168280D01*
X66347266Y-65169432D01*
X66160861Y-65299953D01*
X65999953Y-65460861D01*
X65869432Y-65647266D01*
X65868280Y-65649737D01*
X65868278Y-65649740D01*
X65832373Y-65726739D01*
X65773261Y-65853504D01*
X65714365Y-66073308D01*
X65714127Y-66076024D01*
X65714127Y-66076026D01*
X65710243Y-66120420D01*
X65694532Y-66300000D01*
X62195358Y-66300000D01*
X62191072Y-64500000D01*
X122594532Y-64500000D01*
X122614365Y-64726692D01*
X122615070Y-64729325D01*
X122615071Y-64729328D01*
X122644811Y-64840318D01*
X122673261Y-64946496D01*
X122674414Y-64948968D01*
X122732911Y-65074414D01*
X122769432Y-65152734D01*
X122899953Y-65339139D01*
X123060861Y-65500047D01*
X123247266Y-65630568D01*
X123249737Y-65631720D01*
X123249740Y-65631722D01*
X123288380Y-65649740D01*
X123453504Y-65726739D01*
X123456137Y-65727444D01*
X123456141Y-65727446D01*
X123670672Y-65784929D01*
X123670675Y-65784930D01*
X123673308Y-65785635D01*
X123676024Y-65785873D01*
X123676026Y-65785873D01*
X123841864Y-65800382D01*
X123841870Y-65800382D01*
X123843216Y-65800500D01*
X123956784Y-65800500D01*
X123958130Y-65800382D01*
X123958136Y-65800382D01*
X124123974Y-65785873D01*
X124123976Y-65785873D01*
X124126692Y-65785635D01*
X124129325Y-65784930D01*
X124129328Y-65784929D01*
X124343859Y-65727446D01*
X124343863Y-65727444D01*
X124346496Y-65726739D01*
X124511620Y-65649740D01*
X124550260Y-65631722D01*
X124550263Y-65631720D01*
X124552734Y-65630568D01*
X124739139Y-65500047D01*
X124900047Y-65339139D01*
X125030568Y-65152734D01*
X125067090Y-65074414D01*
X125125586Y-64948968D01*
X125126739Y-64946496D01*
X125155190Y-64840318D01*
X125184929Y-64729328D01*
X125184930Y-64729325D01*
X125185635Y-64726692D01*
X125205468Y-64500000D01*
X125202722Y-64468616D01*
X125185873Y-64276026D01*
X125185873Y-64276024D01*
X125185635Y-64273308D01*
X125182685Y-64262297D01*
X125127446Y-64056141D01*
X125127444Y-64056137D01*
X125126739Y-64053504D01*
X125057857Y-63905787D01*
X125031722Y-63849740D01*
X125031720Y-63849737D01*
X125030568Y-63847266D01*
X124900047Y-63660861D01*
X124739139Y-63499953D01*
X124552734Y-63369432D01*
X124550263Y-63368280D01*
X124550260Y-63368278D01*
X124389407Y-63293271D01*
X124346496Y-63273261D01*
X124343863Y-63272556D01*
X124343859Y-63272554D01*
X124129328Y-63215071D01*
X124129325Y-63215070D01*
X124126692Y-63214365D01*
X124123976Y-63214127D01*
X124123974Y-63214127D01*
X123958136Y-63199618D01*
X123958130Y-63199618D01*
X123956784Y-63199500D01*
X123843216Y-63199500D01*
X123841870Y-63199618D01*
X123841864Y-63199618D01*
X123676026Y-63214127D01*
X123676024Y-63214127D01*
X123673308Y-63214365D01*
X123670675Y-63215070D01*
X123670672Y-63215071D01*
X123456141Y-63272554D01*
X123456137Y-63272556D01*
X123453504Y-63273261D01*
X123410593Y-63293271D01*
X123249740Y-63368278D01*
X123249737Y-63368280D01*
X123247266Y-63369432D01*
X123060861Y-63499953D01*
X122899953Y-63660861D01*
X122769432Y-63847266D01*
X122768280Y-63849737D01*
X122768278Y-63849740D01*
X122742143Y-63905787D01*
X122673261Y-64053504D01*
X122672556Y-64056137D01*
X122672554Y-64056141D01*
X122617315Y-64262297D01*
X122614365Y-64273308D01*
X122614127Y-64276024D01*
X122614127Y-64276026D01*
X122597278Y-64468616D01*
X122594532Y-64500000D01*
X62191072Y-64500000D01*
X62188168Y-63280262D01*
X105944520Y-63280262D01*
X105945758Y-63295000D01*
X105952140Y-63370999D01*
X105961759Y-63485553D01*
X106018544Y-63683586D01*
X106112712Y-63866818D01*
X106114603Y-63869204D01*
X106114605Y-63869207D01*
X106143598Y-63905787D01*
X106240677Y-64028270D01*
X106397564Y-64161791D01*
X106577398Y-64262297D01*
X106580302Y-64263241D01*
X106580303Y-64263241D01*
X106770416Y-64325013D01*
X106770421Y-64325014D01*
X106773329Y-64325959D01*
X106776370Y-64326322D01*
X106776372Y-64326322D01*
X106838442Y-64333723D01*
X106977894Y-64350351D01*
X106980936Y-64350117D01*
X106980939Y-64350117D01*
X107180249Y-64334781D01*
X107180251Y-64334781D01*
X107183300Y-64334546D01*
X107381725Y-64279145D01*
X107384448Y-64277770D01*
X107384452Y-64277768D01*
X107562890Y-64187632D01*
X107565610Y-64186258D01*
X107568008Y-64184385D01*
X107568012Y-64184382D01*
X107653014Y-64117971D01*
X107727951Y-64059424D01*
X107756910Y-64025875D01*
X107780980Y-63997989D01*
X107862564Y-63903472D01*
X107964323Y-63724344D01*
X108029351Y-63528863D01*
X108034452Y-63488489D01*
X108054951Y-63326216D01*
X108054951Y-63326215D01*
X108055171Y-63324474D01*
X108055583Y-63295000D01*
X108055414Y-63293280D01*
X108055414Y-63293271D01*
X108035778Y-63093010D01*
X108035480Y-63089970D01*
X107975935Y-62892749D01*
X107879218Y-62710849D01*
X107749011Y-62551200D01*
X107590275Y-62419882D01*
X107409055Y-62321897D01*
X107354143Y-62304899D01*
X107215169Y-62261879D01*
X107215166Y-62261878D01*
X107212254Y-62260977D01*
X107209221Y-62260658D01*
X107209220Y-62260658D01*
X107156660Y-62255134D01*
X107007369Y-62239443D01*
X107004336Y-62239719D01*
X107004332Y-62239719D01*
X106891436Y-62249993D01*
X106802203Y-62258114D01*
X106799270Y-62258977D01*
X106799266Y-62258978D01*
X106649005Y-62303203D01*
X106604572Y-62316280D01*
X106422002Y-62411726D01*
X106261447Y-62540815D01*
X106129024Y-62698630D01*
X106029776Y-62879162D01*
X105967484Y-63075532D01*
X105967143Y-63078570D01*
X105967143Y-63078571D01*
X105945385Y-63272554D01*
X105944520Y-63280262D01*
X62188168Y-63280262D01*
X62182121Y-60740262D01*
X105944520Y-60740262D01*
X105961759Y-60945553D01*
X106018544Y-61143586D01*
X106112712Y-61326818D01*
X106114603Y-61329204D01*
X106114605Y-61329207D01*
X106143598Y-61365787D01*
X106240677Y-61488270D01*
X106397564Y-61621791D01*
X106577398Y-61722297D01*
X106580302Y-61723241D01*
X106580303Y-61723241D01*
X106770416Y-61785013D01*
X106770421Y-61785014D01*
X106773329Y-61785959D01*
X106776370Y-61786322D01*
X106776372Y-61786322D01*
X106838442Y-61793723D01*
X106977894Y-61810351D01*
X106980936Y-61810117D01*
X106980939Y-61810117D01*
X107180249Y-61794781D01*
X107180251Y-61794781D01*
X107183300Y-61794546D01*
X107381725Y-61739145D01*
X107384448Y-61737770D01*
X107384452Y-61737768D01*
X107562890Y-61647632D01*
X107565610Y-61646258D01*
X107568008Y-61644385D01*
X107568012Y-61644382D01*
X107653014Y-61577971D01*
X107727951Y-61519424D01*
X107756910Y-61485875D01*
X107780980Y-61457989D01*
X107862564Y-61363472D01*
X107964323Y-61184344D01*
X108029351Y-60988863D01*
X108034452Y-60948489D01*
X108054951Y-60786216D01*
X108054951Y-60786215D01*
X108055171Y-60784474D01*
X108055583Y-60755000D01*
X108055414Y-60753280D01*
X108055414Y-60753271D01*
X108050191Y-60700000D01*
X121394318Y-60700000D01*
X121414956Y-60856762D01*
X121475464Y-61002841D01*
X121571718Y-61128282D01*
X121697159Y-61224536D01*
X121700942Y-61226103D01*
X121839452Y-61283476D01*
X121839453Y-61283476D01*
X121843238Y-61285044D01*
X121847300Y-61285579D01*
X121847301Y-61285579D01*
X121995936Y-61305147D01*
X122000000Y-61305682D01*
X122004064Y-61305147D01*
X122152699Y-61285579D01*
X122152700Y-61285579D01*
X122156762Y-61285044D01*
X122160547Y-61283476D01*
X122160548Y-61283476D01*
X122299058Y-61226103D01*
X122302841Y-61224536D01*
X122428282Y-61128282D01*
X122524536Y-61002841D01*
X122585044Y-60856762D01*
X122605682Y-60700000D01*
X122585044Y-60543238D01*
X122524536Y-60397159D01*
X122428282Y-60271718D01*
X122302841Y-60175464D01*
X122298213Y-60173547D01*
X122160548Y-60116524D01*
X122160547Y-60116524D01*
X122156762Y-60114956D01*
X122152700Y-60114421D01*
X122152699Y-60114421D01*
X122004064Y-60094853D01*
X122000000Y-60094318D01*
X121995936Y-60094853D01*
X121847301Y-60114421D01*
X121847300Y-60114421D01*
X121843238Y-60114956D01*
X121839453Y-60116524D01*
X121839452Y-60116524D01*
X121701787Y-60173547D01*
X121697159Y-60175464D01*
X121571718Y-60271718D01*
X121475464Y-60397159D01*
X121414956Y-60543238D01*
X121394318Y-60700000D01*
X108050191Y-60700000D01*
X108035778Y-60553010D01*
X108035480Y-60549970D01*
X107975935Y-60352749D01*
X107931033Y-60268301D01*
X107880653Y-60173547D01*
X107880651Y-60173544D01*
X107879218Y-60170849D01*
X107749011Y-60011200D01*
X107590275Y-59879882D01*
X107409055Y-59781897D01*
X107354143Y-59764899D01*
X107215169Y-59721879D01*
X107215166Y-59721878D01*
X107212254Y-59720977D01*
X107209221Y-59720658D01*
X107209220Y-59720658D01*
X107156660Y-59715134D01*
X107007369Y-59699443D01*
X107004336Y-59699719D01*
X107004332Y-59699719D01*
X106891436Y-59709993D01*
X106802203Y-59718114D01*
X106799270Y-59718977D01*
X106799266Y-59718978D01*
X106649005Y-59763203D01*
X106604572Y-59776280D01*
X106422002Y-59871726D01*
X106261447Y-60000815D01*
X106129024Y-60158630D01*
X106029776Y-60339162D01*
X105967484Y-60535532D01*
X105967143Y-60538570D01*
X105967143Y-60538571D01*
X105965524Y-60553010D01*
X105944520Y-60740262D01*
X62182121Y-60740262D01*
X62176073Y-58200262D01*
X105944520Y-58200262D01*
X105945758Y-58215000D01*
X105961128Y-58398034D01*
X105961759Y-58405553D01*
X106018544Y-58603586D01*
X106112712Y-58786818D01*
X106114603Y-58789204D01*
X106114605Y-58789207D01*
X106143598Y-58825787D01*
X106240677Y-58948270D01*
X106243007Y-58950253D01*
X106333124Y-59026948D01*
X106397564Y-59081791D01*
X106577398Y-59182297D01*
X106580302Y-59183241D01*
X106580303Y-59183241D01*
X106770416Y-59245013D01*
X106770421Y-59245014D01*
X106773329Y-59245959D01*
X106776370Y-59246322D01*
X106776372Y-59246322D01*
X106838442Y-59253723D01*
X106977894Y-59270351D01*
X106980936Y-59270117D01*
X106980939Y-59270117D01*
X107180249Y-59254781D01*
X107180251Y-59254781D01*
X107183300Y-59254546D01*
X107381725Y-59199145D01*
X107384448Y-59197770D01*
X107384452Y-59197768D01*
X107562890Y-59107632D01*
X107565610Y-59106258D01*
X107568008Y-59104385D01*
X107568012Y-59104382D01*
X107667123Y-59026948D01*
X107671214Y-59023752D01*
X114292001Y-59023752D01*
X114292167Y-59026966D01*
X114302615Y-59127664D01*
X114304048Y-59134301D01*
X114357756Y-59295286D01*
X114360818Y-59301822D01*
X114450010Y-59445953D01*
X114454482Y-59451596D01*
X114574441Y-59571346D01*
X114580102Y-59575817D01*
X114724385Y-59664753D01*
X114730919Y-59667800D01*
X114892004Y-59721230D01*
X114898632Y-59722651D01*
X114998052Y-59732838D01*
X115001234Y-59733000D01*
X115233569Y-59733000D01*
X115242359Y-59729359D01*
X115246000Y-59720569D01*
X115246000Y-59720568D01*
X115754000Y-59720568D01*
X115757641Y-59729358D01*
X115766431Y-59732999D01*
X115998752Y-59732999D01*
X116001966Y-59732833D01*
X116102664Y-59722385D01*
X116109301Y-59720952D01*
X116270286Y-59667244D01*
X116276822Y-59664182D01*
X116420953Y-59574990D01*
X116426596Y-59570518D01*
X116546348Y-59450558D01*
X116550945Y-59444736D01*
X116592700Y-59421397D01*
X116638729Y-59434420D01*
X116648975Y-59444648D01*
X116654481Y-59451594D01*
X116774441Y-59571346D01*
X116780102Y-59575817D01*
X116924385Y-59664753D01*
X116930919Y-59667800D01*
X117092004Y-59721230D01*
X117098632Y-59722651D01*
X117198052Y-59732838D01*
X117201234Y-59733000D01*
X117433569Y-59733000D01*
X117442359Y-59729359D01*
X117446000Y-59720569D01*
X117446000Y-59720568D01*
X117954000Y-59720568D01*
X117957641Y-59729358D01*
X117966431Y-59732999D01*
X118198752Y-59732999D01*
X118201966Y-59732833D01*
X118302664Y-59722385D01*
X118309301Y-59720952D01*
X118470286Y-59667244D01*
X118476822Y-59664182D01*
X118620953Y-59574990D01*
X118626596Y-59570518D01*
X118746346Y-59450559D01*
X118750817Y-59444898D01*
X118839753Y-59300615D01*
X118842800Y-59294081D01*
X118896230Y-59132996D01*
X118897651Y-59126368D01*
X118907838Y-59026948D01*
X118908000Y-59023766D01*
X118908000Y-58978931D01*
X118904359Y-58970141D01*
X118895569Y-58966500D01*
X117966431Y-58966500D01*
X117957641Y-58970141D01*
X117954000Y-58978931D01*
X117954000Y-59720568D01*
X117446000Y-59720568D01*
X117446000Y-58978931D01*
X117442359Y-58970141D01*
X117433569Y-58966500D01*
X115766431Y-58966500D01*
X115757641Y-58970141D01*
X115754000Y-58978931D01*
X115754000Y-59720568D01*
X115246000Y-59720568D01*
X115246000Y-58978931D01*
X115242359Y-58970141D01*
X115233569Y-58966500D01*
X114304432Y-58966500D01*
X114295642Y-58970141D01*
X114292001Y-58978931D01*
X114292001Y-59023752D01*
X107671214Y-59023752D01*
X107727951Y-58979424D01*
X107756910Y-58945875D01*
X107780980Y-58917989D01*
X107862564Y-58823472D01*
X107964323Y-58644344D01*
X108029351Y-58448863D01*
X108029704Y-58446069D01*
X114292000Y-58446069D01*
X114295641Y-58454859D01*
X114304431Y-58458500D01*
X118895568Y-58458500D01*
X118904358Y-58454859D01*
X118907999Y-58446069D01*
X118907999Y-58401248D01*
X118907833Y-58398034D01*
X118897385Y-58297336D01*
X118895952Y-58290699D01*
X118842244Y-58129714D01*
X118839182Y-58123178D01*
X118749990Y-57979047D01*
X118745518Y-57973404D01*
X118625559Y-57853654D01*
X118619898Y-57849183D01*
X118475615Y-57760247D01*
X118469081Y-57757200D01*
X118307996Y-57703770D01*
X118301360Y-57702347D01*
X118297341Y-57701935D01*
X118255243Y-57679220D01*
X118241538Y-57633390D01*
X118264253Y-57591292D01*
X118283004Y-57580791D01*
X118358774Y-57554183D01*
X118358776Y-57554182D01*
X118363184Y-57552634D01*
X118472150Y-57472150D01*
X118552634Y-57363184D01*
X118597519Y-57235369D01*
X118599072Y-57218942D01*
X118600362Y-57205298D01*
X118600362Y-57205290D01*
X118600500Y-57203834D01*
X118600500Y-56571166D01*
X118597519Y-56539631D01*
X118552634Y-56411816D01*
X118472150Y-56302850D01*
X118363184Y-56222366D01*
X118358776Y-56220818D01*
X118358774Y-56220817D01*
X118289176Y-56196377D01*
X118235369Y-56177481D01*
X118218942Y-56175928D01*
X118205298Y-56174638D01*
X118205290Y-56174638D01*
X118203834Y-56174500D01*
X117863000Y-56174500D01*
X117818806Y-56156194D01*
X117800500Y-56112000D01*
X117800500Y-55563000D01*
X117818806Y-55518806D01*
X117863000Y-55500500D01*
X119437815Y-55500500D01*
X119482009Y-55518806D01*
X119500315Y-55563000D01*
X119482009Y-55607194D01*
X119466190Y-55618688D01*
X119361658Y-55671950D01*
X119271950Y-55761658D01*
X119214354Y-55874696D01*
X119194508Y-56000000D01*
X119214354Y-56125304D01*
X119271950Y-56238342D01*
X119361658Y-56328050D01*
X119474696Y-56385646D01*
X119600000Y-56405492D01*
X119725304Y-56385646D01*
X119838342Y-56328050D01*
X119928050Y-56238342D01*
X119985646Y-56125304D01*
X120005492Y-56000000D01*
X119985646Y-55874696D01*
X119928050Y-55761658D01*
X119838342Y-55671950D01*
X119733810Y-55618688D01*
X119702744Y-55582313D01*
X119706497Y-55534625D01*
X119742872Y-55503559D01*
X119762185Y-55500500D01*
X123344948Y-55500500D01*
X123351036Y-55500947D01*
X123355342Y-55502425D01*
X123405454Y-55500544D01*
X123407798Y-55500500D01*
X123427948Y-55500500D01*
X123430775Y-55499974D01*
X123433642Y-55499709D01*
X123433650Y-55499800D01*
X123437912Y-55499326D01*
X123439725Y-55499258D01*
X123467208Y-55498226D01*
X123481518Y-55492078D01*
X123494746Y-55488060D01*
X123504378Y-55486266D01*
X123510053Y-55485209D01*
X123535016Y-55469822D01*
X123543117Y-55465613D01*
X123570063Y-55454036D01*
X123574949Y-55450022D01*
X123582331Y-55442640D01*
X123593730Y-55433630D01*
X123600433Y-55429498D01*
X123600434Y-55429497D01*
X123605348Y-55426468D01*
X123624512Y-55401266D01*
X123630068Y-55394903D01*
X124473559Y-54551413D01*
X124478181Y-54547423D01*
X124482269Y-54545425D01*
X124516368Y-54508666D01*
X124517995Y-54506977D01*
X124532248Y-54492724D01*
X124533878Y-54490347D01*
X124535720Y-54488131D01*
X124535792Y-54488191D01*
X124538470Y-54484840D01*
X124554474Y-54467588D01*
X124554475Y-54467586D01*
X124558401Y-54463354D01*
X124560539Y-54457996D01*
X124560541Y-54457992D01*
X124564171Y-54448891D01*
X124570680Y-54436699D01*
X124579492Y-54423854D01*
X124586261Y-54395330D01*
X124589017Y-54386613D01*
X124599883Y-54359378D01*
X124600500Y-54353085D01*
X124600500Y-54342643D01*
X124602189Y-54328212D01*
X124604008Y-54320547D01*
X124605340Y-54314934D01*
X124601071Y-54283565D01*
X124600500Y-54275138D01*
X124600500Y-46842643D01*
X124602189Y-46828212D01*
X124604008Y-46820547D01*
X124605340Y-46814934D01*
X124601071Y-46783565D01*
X124600500Y-46775138D01*
X124600500Y-45391780D01*
X124618806Y-45347586D01*
X124628050Y-45338342D01*
X124685646Y-45225304D01*
X124705492Y-45100000D01*
X124685646Y-44974696D01*
X124628050Y-44861658D01*
X124538342Y-44771950D01*
X124425304Y-44714354D01*
X124300000Y-44694508D01*
X124174696Y-44714354D01*
X124061658Y-44771950D01*
X123971950Y-44861658D01*
X123914354Y-44974696D01*
X123894508Y-45100000D01*
X123914354Y-45225304D01*
X123971950Y-45338342D01*
X123981194Y-45347586D01*
X123999500Y-45391780D01*
X123999500Y-46537000D01*
X123981194Y-46581194D01*
X123937000Y-46599500D01*
X117692280Y-46599500D01*
X117648086Y-46581194D01*
X117638842Y-46571950D01*
X117525804Y-46514354D01*
X117400500Y-46494508D01*
X117275196Y-46514354D01*
X117162158Y-46571950D01*
X117072450Y-46661658D01*
X117014854Y-46774696D01*
X116995008Y-46900000D01*
X117014854Y-47025304D01*
X117072450Y-47138342D01*
X117162158Y-47228050D01*
X117275196Y-47285646D01*
X117400500Y-47305492D01*
X117525804Y-47285646D01*
X117638842Y-47228050D01*
X117648086Y-47218806D01*
X117692280Y-47200500D01*
X123937000Y-47200500D01*
X123981194Y-47218806D01*
X123999500Y-47263000D01*
X123999500Y-54149641D01*
X123981194Y-54193835D01*
X123293835Y-54881194D01*
X123249641Y-54899500D01*
X117791780Y-54899500D01*
X117747586Y-54881194D01*
X117738342Y-54871950D01*
X117625304Y-54814354D01*
X117500000Y-54794508D01*
X117374696Y-54814354D01*
X117261658Y-54871950D01*
X117171950Y-54961658D01*
X117114354Y-55074696D01*
X117094508Y-55200000D01*
X117114354Y-55325304D01*
X117171950Y-55438342D01*
X117181194Y-55447586D01*
X117199500Y-55491780D01*
X117199500Y-56120942D01*
X117181194Y-56165136D01*
X117157710Y-56179912D01*
X117036816Y-56222366D01*
X116927850Y-56302850D01*
X116847366Y-56411816D01*
X116802481Y-56539631D01*
X116799500Y-56571166D01*
X116799500Y-57203834D01*
X116799638Y-57205290D01*
X116799638Y-57205298D01*
X116800928Y-57218942D01*
X116802481Y-57235369D01*
X116847366Y-57363184D01*
X116927850Y-57472150D01*
X117036816Y-57552634D01*
X117041225Y-57554182D01*
X117041230Y-57554185D01*
X117117278Y-57580891D01*
X117152910Y-57612806D01*
X117155538Y-57660569D01*
X117123623Y-57696201D01*
X117103017Y-57702026D01*
X117097337Y-57702615D01*
X117090699Y-57704048D01*
X116929714Y-57757756D01*
X116923178Y-57760818D01*
X116779047Y-57850010D01*
X116773404Y-57854482D01*
X116653652Y-57974442D01*
X116649055Y-57980264D01*
X116607300Y-58003603D01*
X116561271Y-57990580D01*
X116551025Y-57980352D01*
X116545519Y-57973406D01*
X116425559Y-57853654D01*
X116419898Y-57849183D01*
X116275615Y-57760247D01*
X116269081Y-57757200D01*
X116107996Y-57703770D01*
X116101360Y-57702347D01*
X116097341Y-57701935D01*
X116055243Y-57679220D01*
X116041538Y-57633390D01*
X116064253Y-57591292D01*
X116083004Y-57580791D01*
X116158774Y-57554183D01*
X116158776Y-57554182D01*
X116163184Y-57552634D01*
X116272150Y-57472150D01*
X116352634Y-57363184D01*
X116397519Y-57235369D01*
X116399072Y-57218942D01*
X116400362Y-57205298D01*
X116400362Y-57205290D01*
X116400500Y-57203834D01*
X116400500Y-56571166D01*
X116397519Y-56539631D01*
X116352634Y-56411816D01*
X116272150Y-56302850D01*
X116163184Y-56222366D01*
X116158776Y-56220818D01*
X116158774Y-56220817D01*
X116089176Y-56196377D01*
X116035369Y-56177481D01*
X116018942Y-56175928D01*
X116005298Y-56174638D01*
X116005290Y-56174638D01*
X116003834Y-56174500D01*
X115863000Y-56174500D01*
X115818806Y-56156194D01*
X115800500Y-56112000D01*
X115800500Y-55750359D01*
X115818806Y-55706165D01*
X115908785Y-55616186D01*
X115943201Y-55598650D01*
X116025304Y-55585646D01*
X116138342Y-55528050D01*
X116228050Y-55438342D01*
X116285646Y-55325304D01*
X116305492Y-55200000D01*
X116285646Y-55074696D01*
X116228050Y-54961658D01*
X116138342Y-54871950D01*
X116025304Y-54814354D01*
X115900000Y-54794508D01*
X115774696Y-54814354D01*
X115661658Y-54871950D01*
X115571950Y-54961658D01*
X115514354Y-55074696D01*
X115513585Y-55079552D01*
X115501351Y-55156798D01*
X115483814Y-55191215D01*
X115326445Y-55348584D01*
X115321820Y-55352576D01*
X115317731Y-55354575D01*
X115313807Y-55358805D01*
X115283620Y-55391347D01*
X115281993Y-55393036D01*
X115267752Y-55407277D01*
X115266125Y-55409648D01*
X115264281Y-55411867D01*
X115264211Y-55411808D01*
X115261534Y-55415156D01*
X115241599Y-55436646D01*
X115235829Y-55451109D01*
X115229318Y-55463303D01*
X115223772Y-55471387D01*
X115223771Y-55471390D01*
X115220508Y-55476146D01*
X115216798Y-55491780D01*
X115213739Y-55504670D01*
X115210983Y-55513387D01*
X115200117Y-55540622D01*
X115199500Y-55546915D01*
X115199500Y-55557357D01*
X115197811Y-55571788D01*
X115194660Y-55585066D01*
X115198646Y-55614354D01*
X115198929Y-55616434D01*
X115199500Y-55624862D01*
X115199500Y-56112000D01*
X115181194Y-56156194D01*
X115137000Y-56174500D01*
X114996166Y-56174500D01*
X114994710Y-56174638D01*
X114994702Y-56174638D01*
X114981058Y-56175928D01*
X114964631Y-56177481D01*
X114910824Y-56196377D01*
X114841226Y-56220817D01*
X114841224Y-56220818D01*
X114836816Y-56222366D01*
X114727850Y-56302850D01*
X114647366Y-56411816D01*
X114602481Y-56539631D01*
X114599500Y-56571166D01*
X114599500Y-57203834D01*
X114599638Y-57205290D01*
X114599638Y-57205298D01*
X114600928Y-57218942D01*
X114602481Y-57235369D01*
X114647366Y-57363184D01*
X114727850Y-57472150D01*
X114836816Y-57552634D01*
X114841225Y-57554182D01*
X114841230Y-57554185D01*
X114917278Y-57580891D01*
X114952910Y-57612806D01*
X114955538Y-57660569D01*
X114923623Y-57696201D01*
X114903017Y-57702026D01*
X114897337Y-57702615D01*
X114890699Y-57704048D01*
X114729714Y-57757756D01*
X114723178Y-57760818D01*
X114579047Y-57850010D01*
X114573404Y-57854482D01*
X114453654Y-57974441D01*
X114449183Y-57980102D01*
X114360247Y-58124385D01*
X114357200Y-58130919D01*
X114303770Y-58292004D01*
X114302349Y-58298632D01*
X114292162Y-58398052D01*
X114292000Y-58401234D01*
X114292000Y-58446069D01*
X108029704Y-58446069D01*
X108034452Y-58408489D01*
X108054951Y-58246216D01*
X108054951Y-58246215D01*
X108055171Y-58244474D01*
X108055583Y-58215000D01*
X108055414Y-58213280D01*
X108055414Y-58213271D01*
X108035778Y-58013010D01*
X108035480Y-58009970D01*
X107975935Y-57812749D01*
X107918138Y-57704048D01*
X107880653Y-57633547D01*
X107880651Y-57633544D01*
X107879218Y-57630849D01*
X107749011Y-57471200D01*
X107590275Y-57339882D01*
X107409055Y-57241897D01*
X107354143Y-57224899D01*
X107215169Y-57181879D01*
X107215166Y-57181878D01*
X107212254Y-57180977D01*
X107209221Y-57180658D01*
X107209220Y-57180658D01*
X107156660Y-57175134D01*
X107007369Y-57159443D01*
X107004336Y-57159719D01*
X107004332Y-57159719D01*
X106891436Y-57169993D01*
X106802203Y-57178114D01*
X106799270Y-57178977D01*
X106799266Y-57178978D01*
X106649005Y-57223203D01*
X106604572Y-57236280D01*
X106422002Y-57331726D01*
X106261447Y-57460815D01*
X106129024Y-57618630D01*
X106086379Y-57696201D01*
X106051170Y-57760247D01*
X106029776Y-57799162D01*
X105967484Y-57995532D01*
X105967143Y-57998570D01*
X105967143Y-57998571D01*
X105965524Y-58013010D01*
X105944520Y-58200262D01*
X62176073Y-58200262D01*
X62174549Y-57559966D01*
X62175075Y-57551725D01*
X62190532Y-57433349D01*
X62194801Y-57417433D01*
X62239056Y-57311064D01*
X62247337Y-57296817D01*
X62317853Y-57205713D01*
X62329570Y-57194124D01*
X62421452Y-57124614D01*
X62435787Y-57116493D01*
X62542637Y-57073416D01*
X62558599Y-57069322D01*
X62587629Y-57065858D01*
X62677149Y-57055174D01*
X62685394Y-57054740D01*
X70868284Y-57164606D01*
X78627798Y-57268788D01*
X78627799Y-57268788D01*
X79130549Y-57275538D01*
X79169599Y-52300000D01*
X88194318Y-52300000D01*
X88194853Y-52304064D01*
X88213290Y-52444104D01*
X88214956Y-52456762D01*
X88275464Y-52602841D01*
X88371718Y-52728282D01*
X88497159Y-52824536D01*
X88500942Y-52826103D01*
X88639452Y-52883476D01*
X88639453Y-52883476D01*
X88643238Y-52885044D01*
X88647300Y-52885579D01*
X88647301Y-52885579D01*
X88795936Y-52905147D01*
X88800000Y-52905682D01*
X88804064Y-52905147D01*
X88952699Y-52885579D01*
X88952700Y-52885579D01*
X88956762Y-52885044D01*
X88960547Y-52883476D01*
X88960548Y-52883476D01*
X89099058Y-52826103D01*
X89102841Y-52824536D01*
X89228282Y-52728282D01*
X89324536Y-52602841D01*
X89385044Y-52456762D01*
X89386711Y-52444104D01*
X89405147Y-52304064D01*
X89405682Y-52300000D01*
X89396544Y-52230588D01*
X89385579Y-52147301D01*
X89385579Y-52147300D01*
X89385044Y-52143238D01*
X89380354Y-52131914D01*
X89326103Y-52000942D01*
X89324536Y-51997159D01*
X89228282Y-51871718D01*
X89102841Y-51775464D01*
X89099058Y-51773897D01*
X88960548Y-51716524D01*
X88960547Y-51716524D01*
X88956762Y-51714956D01*
X88952700Y-51714421D01*
X88952699Y-51714421D01*
X88804064Y-51694853D01*
X88800000Y-51694318D01*
X88795936Y-51694853D01*
X88647301Y-51714421D01*
X88647300Y-51714421D01*
X88643238Y-51714956D01*
X88639453Y-51716524D01*
X88639452Y-51716524D01*
X88500942Y-51773897D01*
X88497159Y-51775464D01*
X88371718Y-51871718D01*
X88275464Y-51997159D01*
X88273897Y-52000942D01*
X88219647Y-52131914D01*
X88214956Y-52143238D01*
X88214421Y-52147300D01*
X88214421Y-52147301D01*
X88203456Y-52230588D01*
X88194318Y-52300000D01*
X79169599Y-52300000D01*
X79216937Y-46268480D01*
X79217530Y-46260367D01*
X79233724Y-46143859D01*
X79238029Y-46128204D01*
X79282090Y-46023589D01*
X79290282Y-46009571D01*
X79359803Y-45919834D01*
X79371330Y-45908399D01*
X79461618Y-45839599D01*
X79475701Y-45831519D01*
X79580664Y-45788297D01*
X79596353Y-45784117D01*
X79712989Y-45768856D01*
X79721107Y-45768328D01*
X84920405Y-45769109D01*
X86688526Y-45769375D01*
X89411502Y-45769784D01*
X89419693Y-45770326D01*
X89481638Y-45778536D01*
X89537517Y-45785943D01*
X89553356Y-45790214D01*
X89631039Y-45822603D01*
X89659223Y-45834354D01*
X89673404Y-45842599D01*
X89764133Y-45912763D01*
X89775682Y-45924416D01*
X89845028Y-46015774D01*
X89853146Y-46030030D01*
X89896330Y-46136286D01*
X89900458Y-46152164D01*
X89915014Y-46270121D01*
X89915483Y-46278321D01*
X89819997Y-57069981D01*
X90328027Y-57068436D01*
X90328028Y-57068436D01*
X90743978Y-57067171D01*
X96800000Y-57048753D01*
X96796525Y-56544748D01*
X105949500Y-56544748D01*
X105950099Y-56547758D01*
X105950099Y-56547761D01*
X105954464Y-56569702D01*
X105961133Y-56603231D01*
X106005448Y-56669552D01*
X106010562Y-56672969D01*
X106066653Y-56710449D01*
X106066655Y-56710450D01*
X106071769Y-56713867D01*
X106077803Y-56715067D01*
X106077805Y-56715068D01*
X106127239Y-56724901D01*
X106127242Y-56724901D01*
X106130252Y-56725500D01*
X107869748Y-56725500D01*
X107872758Y-56724901D01*
X107872761Y-56724901D01*
X107922195Y-56715068D01*
X107922197Y-56715067D01*
X107928231Y-56713867D01*
X107933345Y-56710450D01*
X107933347Y-56710449D01*
X107989438Y-56672969D01*
X107994552Y-56669552D01*
X108038867Y-56603231D01*
X108045537Y-56569702D01*
X108049901Y-56547761D01*
X108049901Y-56547758D01*
X108050500Y-56544748D01*
X108050500Y-54805252D01*
X108038867Y-54746769D01*
X107994552Y-54680448D01*
X107977680Y-54669174D01*
X107933347Y-54639551D01*
X107933345Y-54639550D01*
X107928231Y-54636133D01*
X107922197Y-54634933D01*
X107922195Y-54634932D01*
X107872761Y-54625099D01*
X107872758Y-54625099D01*
X107869748Y-54624500D01*
X106130252Y-54624500D01*
X106127242Y-54625099D01*
X106127239Y-54625099D01*
X106077805Y-54634932D01*
X106077803Y-54634933D01*
X106071769Y-54636133D01*
X106066655Y-54639550D01*
X106066653Y-54639551D01*
X106022320Y-54669174D01*
X106005448Y-54680448D01*
X105961133Y-54746769D01*
X105949500Y-54805252D01*
X105949500Y-56544748D01*
X96796525Y-56544748D01*
X96796504Y-56541677D01*
X96776334Y-53616561D01*
X96760390Y-51304351D01*
X111683260Y-51304351D01*
X111703106Y-51429655D01*
X111760702Y-51542693D01*
X111850410Y-51632401D01*
X111963448Y-51689997D01*
X112088752Y-51709843D01*
X112093607Y-51709074D01*
X112093609Y-51709074D01*
X112094777Y-51708889D01*
X112095548Y-51709074D01*
X112098529Y-51709074D01*
X112098529Y-51709790D01*
X112141291Y-51720054D01*
X112166288Y-51760842D01*
X112172832Y-51802160D01*
X112230428Y-51915198D01*
X112320136Y-52004906D01*
X112433174Y-52062502D01*
X112495826Y-52072425D01*
X112553621Y-52081579D01*
X112553623Y-52081579D01*
X112558478Y-52082348D01*
X112574291Y-52079843D01*
X112620803Y-52091008D01*
X112645799Y-52131796D01*
X112650886Y-52163916D01*
X112708482Y-52276954D01*
X112798190Y-52366662D01*
X112911228Y-52424258D01*
X112986401Y-52436164D01*
X113015923Y-52440840D01*
X113056710Y-52465834D01*
X113067877Y-52492794D01*
X113081801Y-52580707D01*
X113139397Y-52693745D01*
X113229105Y-52783453D01*
X113342143Y-52841049D01*
X113346999Y-52841818D01*
X113347005Y-52841820D01*
X113367120Y-52845006D01*
X113407906Y-52870000D01*
X113419072Y-52916514D01*
X113416181Y-52934765D01*
X113416181Y-52934770D01*
X113415412Y-52939625D01*
X113435258Y-53064929D01*
X113492854Y-53177967D01*
X113582562Y-53267675D01*
X113695600Y-53325271D01*
X113820904Y-53345117D01*
X113825759Y-53344348D01*
X113825761Y-53344348D01*
X113837948Y-53342418D01*
X113884462Y-53353586D01*
X113909455Y-53394372D01*
X113914354Y-53425304D01*
X113971950Y-53538342D01*
X114061658Y-53628050D01*
X114174696Y-53685646D01*
X114300000Y-53705492D01*
X114425304Y-53685646D01*
X114538342Y-53628050D01*
X114628050Y-53538342D01*
X114685646Y-53425304D01*
X114705492Y-53300000D01*
X114685646Y-53174696D01*
X114677873Y-53159440D01*
X115854901Y-53159440D01*
X115855478Y-53163853D01*
X115855478Y-53163854D01*
X115858972Y-53190572D01*
X115859500Y-53198676D01*
X115859500Y-53434748D01*
X115871133Y-53493231D01*
X115915448Y-53559552D01*
X115920562Y-53562969D01*
X115976653Y-53600449D01*
X115976655Y-53600450D01*
X115981769Y-53603867D01*
X115987803Y-53605067D01*
X115987805Y-53605068D01*
X116037239Y-53614901D01*
X116037242Y-53614901D01*
X116040252Y-53615500D01*
X116303300Y-53615500D01*
X116304444Y-53615510D01*
X116366255Y-53616643D01*
X116369341Y-53615801D01*
X116374204Y-53615500D01*
X117569967Y-53615500D01*
X117571111Y-53615510D01*
X117632922Y-53616643D01*
X117636008Y-53615801D01*
X117640871Y-53615500D01*
X118836633Y-53615500D01*
X118837777Y-53615510D01*
X118899588Y-53616643D01*
X118902674Y-53615801D01*
X118907537Y-53615500D01*
X120103300Y-53615500D01*
X120104444Y-53615510D01*
X120166255Y-53616643D01*
X120169341Y-53615801D01*
X120174204Y-53615500D01*
X120379748Y-53615500D01*
X120382758Y-53614901D01*
X120382761Y-53614901D01*
X120432195Y-53605068D01*
X120432197Y-53605067D01*
X120438231Y-53603867D01*
X120443345Y-53600450D01*
X120443347Y-53600449D01*
X120499438Y-53562969D01*
X120504552Y-53559552D01*
X120548867Y-53493231D01*
X120560500Y-53434748D01*
X120560500Y-53208072D01*
X120561366Y-53197703D01*
X120564597Y-53178496D01*
X120564997Y-53176120D01*
X120565133Y-53165000D01*
X120561131Y-53137055D01*
X120560500Y-53128195D01*
X120560500Y-51941405D01*
X120561366Y-51931036D01*
X120562566Y-51923905D01*
X120564997Y-51909453D01*
X120565133Y-51898333D01*
X120561131Y-51870388D01*
X120560500Y-51861528D01*
X120560500Y-50674739D01*
X120561366Y-50664370D01*
X120564597Y-50645163D01*
X120564997Y-50642787D01*
X120565133Y-50631667D01*
X120561131Y-50603722D01*
X120560500Y-50594862D01*
X120560500Y-49408072D01*
X120561366Y-49397703D01*
X120564597Y-49378496D01*
X120564997Y-49376120D01*
X120565133Y-49365000D01*
X120561131Y-49337055D01*
X120560500Y-49328195D01*
X120560500Y-49095252D01*
X120548867Y-49036769D01*
X120504552Y-48970448D01*
X120474574Y-48950417D01*
X120443347Y-48929551D01*
X120443345Y-48929550D01*
X120438231Y-48926133D01*
X120432197Y-48924933D01*
X120432195Y-48924932D01*
X120382761Y-48915099D01*
X120382758Y-48915099D01*
X120379748Y-48914500D01*
X120117555Y-48914500D01*
X120117173Y-48914499D01*
X120048231Y-48914078D01*
X120047134Y-48914391D01*
X120045539Y-48914500D01*
X118850888Y-48914500D01*
X118850506Y-48914499D01*
X118781564Y-48914078D01*
X118780467Y-48914391D01*
X118778872Y-48914500D01*
X117584222Y-48914500D01*
X117583840Y-48914499D01*
X117514898Y-48914078D01*
X117513801Y-48914391D01*
X117512206Y-48914500D01*
X116317555Y-48914500D01*
X116317173Y-48914499D01*
X116248231Y-48914078D01*
X116247134Y-48914391D01*
X116245539Y-48914500D01*
X116040252Y-48914500D01*
X116037242Y-48915099D01*
X116037239Y-48915099D01*
X115987805Y-48924932D01*
X115987803Y-48924933D01*
X115981769Y-48926133D01*
X115976655Y-48929550D01*
X115976653Y-48929551D01*
X115945426Y-48950417D01*
X115915448Y-48970448D01*
X115871133Y-49036769D01*
X115859500Y-49095252D01*
X115859500Y-49325065D01*
X115858756Y-49334680D01*
X115854901Y-49359440D01*
X115855478Y-49363853D01*
X115855478Y-49363854D01*
X115858972Y-49390572D01*
X115859500Y-49398676D01*
X115859500Y-50591732D01*
X115858756Y-50601347D01*
X115854901Y-50626107D01*
X115855478Y-50630520D01*
X115855478Y-50630521D01*
X115858972Y-50657239D01*
X115859500Y-50665343D01*
X115859500Y-51858398D01*
X115858756Y-51868013D01*
X115854901Y-51892773D01*
X115855478Y-51897186D01*
X115855478Y-51897187D01*
X115858972Y-51923905D01*
X115859500Y-51932009D01*
X115859500Y-53125065D01*
X115858756Y-53134680D01*
X115854901Y-53159440D01*
X114677873Y-53159440D01*
X114628050Y-53061658D01*
X114538342Y-52971950D01*
X114425304Y-52914354D01*
X114300000Y-52894508D01*
X114295145Y-52895277D01*
X114295143Y-52895277D01*
X114282956Y-52897207D01*
X114236442Y-52886039D01*
X114211449Y-52845253D01*
X114210783Y-52841049D01*
X114206550Y-52814321D01*
X114148954Y-52701283D01*
X114059246Y-52611575D01*
X113946208Y-52553979D01*
X113941352Y-52553210D01*
X113941346Y-52553208D01*
X113921231Y-52550022D01*
X113880445Y-52525028D01*
X113869279Y-52478514D01*
X113872170Y-52460263D01*
X113872170Y-52460258D01*
X113872939Y-52455403D01*
X113853093Y-52330099D01*
X113795497Y-52217061D01*
X113705789Y-52127353D01*
X113592751Y-52069757D01*
X113517578Y-52057851D01*
X113488056Y-52053175D01*
X113447269Y-52028181D01*
X113436102Y-52001221D01*
X113422947Y-51918165D01*
X113422178Y-51913308D01*
X113364582Y-51800270D01*
X113274874Y-51710562D01*
X113161836Y-51652966D01*
X113099184Y-51643043D01*
X113041389Y-51633889D01*
X113041387Y-51633889D01*
X113036532Y-51633120D01*
X113020719Y-51635625D01*
X112974207Y-51624460D01*
X112949211Y-51583672D01*
X112944893Y-51556408D01*
X112944124Y-51551552D01*
X112886528Y-51438514D01*
X112796820Y-51348806D01*
X112683782Y-51291210D01*
X112558478Y-51271364D01*
X112553623Y-51272133D01*
X112553621Y-51272133D01*
X112552453Y-51272318D01*
X112551682Y-51272133D01*
X112548701Y-51272133D01*
X112548701Y-51271417D01*
X112505939Y-51261153D01*
X112480942Y-51220365D01*
X112475167Y-51183904D01*
X112474398Y-51179047D01*
X112416802Y-51066009D01*
X112327094Y-50976301D01*
X112214056Y-50918705D01*
X112088752Y-50898859D01*
X111963448Y-50918705D01*
X111850410Y-50976301D01*
X111760702Y-51066009D01*
X111703106Y-51179047D01*
X111683260Y-51304351D01*
X96760390Y-51304351D01*
X96741053Y-48500000D01*
X112094508Y-48500000D01*
X112114354Y-48625304D01*
X112171950Y-48738342D01*
X112261658Y-48828050D01*
X112374696Y-48885646D01*
X112500000Y-48905492D01*
X112504855Y-48904723D01*
X112544381Y-48898463D01*
X112590895Y-48909631D01*
X112615889Y-48950417D01*
X112613983Y-48974637D01*
X112614354Y-48974696D01*
X112594508Y-49100000D01*
X112614354Y-49225304D01*
X112671950Y-49338342D01*
X112761658Y-49428050D01*
X112874696Y-49485646D01*
X113000000Y-49505492D01*
X113125304Y-49485646D01*
X113238342Y-49428050D01*
X113328050Y-49338342D01*
X113385646Y-49225304D01*
X113405492Y-49100000D01*
X113385646Y-48974696D01*
X113328050Y-48861658D01*
X113238342Y-48771950D01*
X113125304Y-48714354D01*
X113000000Y-48694508D01*
X112995145Y-48695277D01*
X112955619Y-48701537D01*
X112909105Y-48690369D01*
X112884111Y-48649583D01*
X112886017Y-48625363D01*
X112885646Y-48625304D01*
X112886392Y-48620591D01*
X112892023Y-48585044D01*
X112904723Y-48504855D01*
X112905492Y-48500000D01*
X112885646Y-48374696D01*
X112828050Y-48261658D01*
X112766392Y-48200000D01*
X120894508Y-48200000D01*
X120914354Y-48325304D01*
X120971950Y-48438342D01*
X121061658Y-48528050D01*
X121174696Y-48585646D01*
X121300000Y-48605492D01*
X121425304Y-48585646D01*
X121538342Y-48528050D01*
X121628050Y-48438342D01*
X121685646Y-48325304D01*
X121705492Y-48200000D01*
X121685646Y-48074696D01*
X121628050Y-47961658D01*
X121538342Y-47871950D01*
X121425304Y-47814354D01*
X121300000Y-47794508D01*
X121174696Y-47814354D01*
X121061658Y-47871950D01*
X120971950Y-47961658D01*
X120914354Y-48074696D01*
X120894508Y-48200000D01*
X112766392Y-48200000D01*
X112738342Y-48171950D01*
X112625304Y-48114354D01*
X112500000Y-48094508D01*
X112374696Y-48114354D01*
X112261658Y-48171950D01*
X112171950Y-48261658D01*
X112114354Y-48374696D01*
X112094508Y-48500000D01*
X96741053Y-48500000D01*
X96691024Y-41244748D01*
X105549500Y-41244748D01*
X105561133Y-41303231D01*
X105605448Y-41369552D01*
X105610562Y-41372969D01*
X105666653Y-41410449D01*
X105666655Y-41410450D01*
X105671769Y-41413867D01*
X105677803Y-41415067D01*
X105677805Y-41415068D01*
X105727239Y-41424901D01*
X105727242Y-41424901D01*
X105730252Y-41425500D01*
X107469748Y-41425500D01*
X107472758Y-41424901D01*
X107472761Y-41424901D01*
X107522195Y-41415068D01*
X107522197Y-41415067D01*
X107528231Y-41413867D01*
X107533345Y-41410450D01*
X107533347Y-41410449D01*
X107589438Y-41372969D01*
X107594552Y-41369552D01*
X107638867Y-41303231D01*
X107650500Y-41244748D01*
X107650500Y-39505252D01*
X107649901Y-39502239D01*
X107640068Y-39452805D01*
X107640067Y-39452803D01*
X107638867Y-39446769D01*
X107594552Y-39380448D01*
X107539966Y-39343974D01*
X107533347Y-39339551D01*
X107533345Y-39339550D01*
X107528231Y-39336133D01*
X107522197Y-39334933D01*
X107522195Y-39334932D01*
X107472761Y-39325099D01*
X107472758Y-39325099D01*
X107469748Y-39324500D01*
X105730252Y-39324500D01*
X105727242Y-39325099D01*
X105727239Y-39325099D01*
X105677805Y-39334932D01*
X105677803Y-39334933D01*
X105671769Y-39336133D01*
X105666655Y-39339550D01*
X105666653Y-39339551D01*
X105660034Y-39343974D01*
X105605448Y-39380448D01*
X105561133Y-39446769D01*
X105559933Y-39452803D01*
X105559932Y-39452805D01*
X105550099Y-39502239D01*
X105549500Y-39505252D01*
X105549500Y-41244748D01*
X96691024Y-41244748D01*
X96667411Y-37820262D01*
X105544520Y-37820262D01*
X105545706Y-37834388D01*
X105559454Y-37998099D01*
X105561759Y-38025553D01*
X105618544Y-38223586D01*
X105712712Y-38406818D01*
X105714603Y-38409204D01*
X105714605Y-38409207D01*
X105743598Y-38445787D01*
X105840677Y-38568270D01*
X105997564Y-38701791D01*
X106177398Y-38802297D01*
X106180302Y-38803241D01*
X106180303Y-38803241D01*
X106370416Y-38865013D01*
X106370421Y-38865014D01*
X106373329Y-38865959D01*
X106376370Y-38866322D01*
X106376372Y-38866322D01*
X106438442Y-38873723D01*
X106577894Y-38890351D01*
X106580936Y-38890117D01*
X106580939Y-38890117D01*
X106780249Y-38874781D01*
X106780251Y-38874781D01*
X106783300Y-38874546D01*
X106981725Y-38819145D01*
X106984448Y-38817770D01*
X106984452Y-38817768D01*
X107162890Y-38727632D01*
X107165610Y-38726258D01*
X107168008Y-38724385D01*
X107168012Y-38724382D01*
X107253014Y-38657971D01*
X107327951Y-38599424D01*
X107356910Y-38565875D01*
X107380980Y-38537989D01*
X107462564Y-38443472D01*
X107564323Y-38264344D01*
X107629351Y-38068863D01*
X107634452Y-38028489D01*
X107654951Y-37866216D01*
X107654951Y-37866215D01*
X107655171Y-37864474D01*
X107655583Y-37835000D01*
X107655414Y-37833280D01*
X107655414Y-37833271D01*
X107635778Y-37633010D01*
X107635480Y-37629970D01*
X107575935Y-37432749D01*
X107479218Y-37250849D01*
X107349011Y-37091200D01*
X107190275Y-36959882D01*
X107009055Y-36861897D01*
X106954143Y-36844899D01*
X106815169Y-36801879D01*
X106815166Y-36801878D01*
X106812254Y-36800977D01*
X106809221Y-36800658D01*
X106809220Y-36800658D01*
X106756660Y-36795134D01*
X106607369Y-36779443D01*
X106604336Y-36779719D01*
X106604332Y-36779719D01*
X106491436Y-36789993D01*
X106402203Y-36798114D01*
X106399270Y-36798977D01*
X106399266Y-36798978D01*
X106249005Y-36843203D01*
X106204572Y-36856280D01*
X106022002Y-36951726D01*
X105861447Y-37080815D01*
X105729024Y-37238630D01*
X105688481Y-37312378D01*
X105640142Y-37400307D01*
X105629776Y-37419162D01*
X105567484Y-37615532D01*
X105567143Y-37618570D01*
X105567143Y-37618571D01*
X105565524Y-37633010D01*
X105544520Y-37820262D01*
X96667411Y-37820262D01*
X96623830Y-31500000D01*
X100494532Y-31500000D01*
X100514365Y-31726692D01*
X100515070Y-31729325D01*
X100515071Y-31729328D01*
X100534407Y-31801489D01*
X100573261Y-31946496D01*
X100669432Y-32152734D01*
X100799953Y-32339139D01*
X100960861Y-32500047D01*
X101147266Y-32630568D01*
X101149737Y-32631720D01*
X101149740Y-32631722D01*
X101261203Y-32683698D01*
X101353504Y-32726739D01*
X101356137Y-32727444D01*
X101356141Y-32727446D01*
X101570672Y-32784929D01*
X101570675Y-32784930D01*
X101573308Y-32785635D01*
X101576024Y-32785873D01*
X101576026Y-32785873D01*
X101741864Y-32800382D01*
X101741870Y-32800382D01*
X101743216Y-32800500D01*
X101856784Y-32800500D01*
X101858130Y-32800382D01*
X101858136Y-32800382D01*
X102023974Y-32785873D01*
X102023976Y-32785873D01*
X102026692Y-32785635D01*
X102029325Y-32784930D01*
X102029328Y-32784929D01*
X102243859Y-32727446D01*
X102243863Y-32727444D01*
X102246496Y-32726739D01*
X102338797Y-32683698D01*
X102450260Y-32631722D01*
X102450263Y-32631720D01*
X102452734Y-32630568D01*
X102639139Y-32500047D01*
X102800047Y-32339139D01*
X102930568Y-32152734D01*
X103026739Y-31946496D01*
X103065594Y-31801489D01*
X103084929Y-31729328D01*
X103084930Y-31729325D01*
X103085635Y-31726692D01*
X103103843Y-31518569D01*
X116549500Y-31518569D01*
X116549501Y-33481430D01*
X116564357Y-33575235D01*
X116621968Y-33688302D01*
X116711698Y-33778032D01*
X116824765Y-33835643D01*
X116864539Y-33841943D01*
X116916142Y-33850116D01*
X116916147Y-33850116D01*
X116918569Y-33850500D01*
X117900000Y-33850500D01*
X118881430Y-33850499D01*
X118975235Y-33835643D01*
X119088302Y-33778032D01*
X119178032Y-33688302D01*
X119235643Y-33575235D01*
X119250500Y-33481431D01*
X119250499Y-31518570D01*
X119235643Y-31424765D01*
X119178032Y-31311698D01*
X119088302Y-31221968D01*
X118975235Y-31164357D01*
X118935461Y-31158057D01*
X118883858Y-31149884D01*
X118883853Y-31149884D01*
X118881431Y-31149500D01*
X118878971Y-31149500D01*
X117900001Y-31149501D01*
X116918570Y-31149501D01*
X116824765Y-31164357D01*
X116711698Y-31221968D01*
X116621968Y-31311698D01*
X116564357Y-31424765D01*
X116549500Y-31518569D01*
X103103843Y-31518569D01*
X103105468Y-31500000D01*
X103098503Y-31420385D01*
X103085873Y-31276026D01*
X103085873Y-31276024D01*
X103085635Y-31273308D01*
X103084929Y-31270672D01*
X103027446Y-31056141D01*
X103027444Y-31056137D01*
X103026739Y-31053504D01*
X102930568Y-30847266D01*
X102800047Y-30660861D01*
X102639139Y-30499953D01*
X102452734Y-30369432D01*
X102450263Y-30368280D01*
X102450260Y-30368278D01*
X102338797Y-30316302D01*
X102246496Y-30273261D01*
X102243863Y-30272556D01*
X102243859Y-30272554D01*
X102029328Y-30215071D01*
X102029325Y-30215070D01*
X102026692Y-30214365D01*
X102023976Y-30214127D01*
X102023974Y-30214127D01*
X101858136Y-30199618D01*
X101858130Y-30199618D01*
X101856784Y-30199500D01*
X101743216Y-30199500D01*
X101741870Y-30199618D01*
X101741864Y-30199618D01*
X101576026Y-30214127D01*
X101576024Y-30214127D01*
X101573308Y-30214365D01*
X101570675Y-30215070D01*
X101570672Y-30215071D01*
X101356141Y-30272554D01*
X101356137Y-30272556D01*
X101353504Y-30273261D01*
X101261203Y-30316302D01*
X101149740Y-30368278D01*
X101149737Y-30368280D01*
X101147266Y-30369432D01*
X100960861Y-30499953D01*
X100799953Y-30660861D01*
X100669432Y-30847266D01*
X100573261Y-31053504D01*
X100572556Y-31056137D01*
X100572554Y-31056141D01*
X100515071Y-31270672D01*
X100514365Y-31273308D01*
X100514127Y-31276024D01*
X100514127Y-31276026D01*
X100501497Y-31420385D01*
X100494532Y-31500000D01*
X96623830Y-31500000D01*
X96601467Y-28256875D01*
X96601949Y-28248696D01*
X96616645Y-28131119D01*
X96620780Y-28115294D01*
X96625183Y-28104484D01*
X96651684Y-28039423D01*
X96685308Y-28005400D01*
X96709566Y-28000500D01*
X113340929Y-28000500D01*
X113385123Y-28018806D01*
G37*
%TD.AperFunction*%
%TD*%
M02*
