<svg xmlns="http://www.w3.org/2000/svg" version="1.1" xmlns:xlink="http://www.w3.org/1999/xlink" xmlns:svgjs="http://svgjs.dev/svgjs" width="1000" height="1000" viewBox="0 0 1000 1000"><rect width="1000" height="1000" fill="#50a060"></rect><g transform="matrix(0.7,0,0,0.7,149.57576594275685,443.2355032129358)"><svg viewBox="0 0 396 64" data-background-color="#50a060" preserveAspectRatio="xMidYMid meet" height="161" width="1000" xmlns="http://www.w3.org/2000/svg" xmlns:xlink="http://www.w3.org/1999/xlink"><defs></defs><g id="tight-bounds" transform="matrix(1,0,0,1,0.2399952666689842,0.23538415591934836)"><svg viewBox="0 0 395.52 63.529231662501246" height="63.529231662501246" width="395.52"><g><svg viewBox="0 0 487.4176189726048 78.2900152510502" height="63.529231662501246" width="395.52"><g transform="matrix(1,0,0,1,91.89761897260485,10.82011064612923)"><svg viewBox="0 0 395.52 56.64979395879175" height="56.64979395879175" width="395.52"><g><svg viewBox="0 0 395.52 56.64979395879175" height="56.64979395879175" width="395.52"><g><svg viewBox="0 0 395.52 56.64979395879175" height="56.64979395879175" width="395.52"><g transform="matrix(1,0,0,1,0,0)"><svg width="395.52" viewBox="2.299999952316284 -35.5 249.92999267578125 35.79999923706055" height="56.64979395879175" data-palette-color="#096a2e"><path d="M18.1 0.3L18.1 0.3Q10.85 0.3 6.58-4.6 2.3-9.5 2.3-17.68 2.3-25.85 6.35-30.68 10.4-35.5 17.65-35.5L17.65-35.5Q22.25-35.5 27-33.7L27-33.7 26.1-30.6Q24.4-31.3 21.65-31.78 18.9-32.25 17.4-32.25L17.4-32.25Q12.15-32.25 9.1-28.4 6.05-24.55 6.05-18 6.05-11.45 9.28-7.2 12.5-2.95 17.55-2.95L17.55-2.95Q21.1-2.95 24.25-3.95L24.25-3.95 24.25-14.5 16.95-14.5 16.95-17.75 28-17.75 28-2.4Q23.3 0.3 18.1 0.3ZM43.7-16.45L43.7-16.45 40.6-16.45 40.6-0.05 36.85-0.05 36.85-35.05 46.95-35.05Q52.05-35.05 54.62-32.73 57.2-30.4 57.2-26.1L57.2-26.1Q57.2-23.1 55.12-20.6 53.05-18.1 50-17.7L50-17.7Q52.45-17.15 53.47-16.13 54.5-15.1 55.9-11.75L55.9-11.75 60.85-0.05 56.9-0.05 52.05-11.25Q50.7-14.4 49.02-15.43 47.35-16.45 43.7-16.45ZM46.75-31.85L46.75-31.85 40.6-31.85 40.6-19.65 46.25-19.65Q49.35-19.65 51.17-21.48 53-23.3 53-26.1 53-28.9 51.35-30.38 49.7-31.85 46.75-31.85ZM85.85-3.25L85.85 0 67 0 67-35 85.85-35 85.85-31.75 70.75-31.75 70.75-20.65 84.6-20.65 84.6-17.3 70.75-17.3 70.75-3.25 85.85-3.25ZM112.94-3.25L112.94 0 94.09 0 94.09-35 112.94-35 112.94-31.75 97.84-31.75 97.84-20.65 111.69-20.65 111.69-17.3 97.84-17.3 97.84-3.25 112.94-3.25ZM146.04-35L146.04 0.05 141.94 0.05 125.09-28 125.09 0 121.19 0 121.19-35 125.09-35 142.29-5.9 142.29-35 146.04-35ZM180.44-18.75L180.44-18.75Q180.44-10.3 175.54-5.15 170.64 0 162.44 0L162.44 0 155.14 0 155.14-35 163.99-35Q171.44-35 175.94-30.45 180.44-25.9 180.44-18.75ZM176.39-19.15L176.39-19.15Q176.39-25.05 172.79-28.4 169.19-31.75 164.19-31.75L164.19-31.75 159.19-31.75 159.19-3.25 162.89-3.25Q168.54-3.25 172.46-7.5 176.39-11.75 176.39-19.15ZM199.09 0.25L199.09 0.25Q192.24 0.25 188.74-4.83 185.24-9.9 185.24-17.75 185.24-25.6 188.76-30.55 192.29-35.5 199.11-35.5 205.94-35.5 209.49-30.55 213.04-25.6 213.04-17.75L213.04-17.75Q213.04-7 206.94-2.25L206.94-2.25Q203.69 0.25 199.09 0.25ZM199.19-32.25L199.19-32.25Q194.09-32.25 191.56-28 189.04-23.75 189.04-17.6 189.04-11.45 191.61-7.25 194.19-3.05 199.19-3.05 204.19-3.05 206.74-7.3 209.29-11.55 209.29-18L209.29-18Q209.29-26.1 204.74-30.1L204.74-30.1Q202.39-32.25 199.19-32.25ZM248.28-34.95L252.23-34.95 243.93 0 239.58 0 234.48-20.3 228.23 0 224.13 0 215.98-34.95 220.28-34.95 226.38-4.25 233.03-25.5 235.83-25.5 241.98-4.25 248.28-34.95Z" opacity="1" transform="matrix(1,0,0,1,0,0)" fill="#096a2e" class="undefined-text-0" data-fill-palette-color="primary" id="text-0"></path></svg></g></svg></g></svg></g></svg></g><g><svg viewBox="0 0 78.52396221398912 78.2900152510502" height="78.2900152510502" width="78.52396221398912"><g><svg xmlns="http://www.w3.org/2000/svg" xmlns:xlink="http://www.w3.org/1999/xlink" version="1.1" x="0" y="0" viewBox="3.305999994277954 3.6679999828338623 42.62699890136719 42.5" enable-background="new 0 0 50 50" xml:space="preserve" height="78.2900152510502" width="78.52396221398912" class="icon-icon-0" data-fill-palette-color="accent" id="icon-0"><g fill="#c9efc7" data-fill-palette-color="accent"><path fill="#c9efc7" d="M3.306 23.614h19.946V3.668H3.306V23.614zM6.584 6.947h13.388v13.389H6.584V6.947z" data-fill-palette-color="accent"></path><path fill="#c9efc7" d="M25.987 23.614h19.946V3.668H25.987V23.614zM29.266 6.947h13.389v13.389H29.266V6.947z" data-fill-palette-color="accent"></path><path fill="#c9efc7" d="M3.306 46.168h19.946V26.222H3.306V46.168zM6.584 29.497h13.388v13.389H6.584V29.497z" data-fill-palette-color="accent"></path><path fill="#c9efc7" d="M25.987 46.168h19.946V26.222H25.987V46.168zM29.266 29.497h13.389v13.389H29.266V29.497z" data-fill-palette-color="accent"></path></g></svg></g></svg></g></svg></g></svg><rect width="395.52" height="63.529231662501246" fill="none" stroke="none" visibility="hidden"></rect></g></svg></g></svg>